<svg width="25" height="28" viewBox="0 0 25 28" fill="none" xmlns="http://www.w3.org/2000/svg">
<path d="M1.70957 0C1.10382 0 0.611328 0.480179 0.611328 1.07078V7.49548C0.611328 8.08608 1.10382 8.56626 1.70957 8.56626H6.10252C6.70827 8.56626 7.20076 8.08608 7.20076 7.49548V2.67696H5.00428C4.70055 2.67696 4.45516 2.4377 4.45516 2.14156V0H1.70957ZM5.00428 0V2.14156H7.20076L5.00428 0ZM2.53325 4.28313H5.27884C5.42985 4.28313 5.5534 4.40359 5.5534 4.55082C5.5534 4.69806 5.42985 4.81852 5.27884 4.81852H2.53325C2.38224 4.81852 2.25869 4.69806 2.25869 4.55082C2.25869 4.40359 2.38224 4.28313 2.53325 4.28313ZM2.53325 5.35391H5.27884C5.42985 5.35391 5.5534 5.47437 5.5534 5.62161C5.5534 5.76884 5.42985 5.8893 5.27884 5.8893H2.53325C2.38224 5.8893 2.25869 5.76884 2.25869 5.62161C2.25869 5.47437 2.38224 5.35391 2.53325 5.35391ZM2.53325 6.42469H5.27884C5.42985 6.42469 5.5534 6.54516 5.5534 6.69239C5.5534 6.83962 5.42985 6.96008 5.27884 6.96008H2.53325C2.38224 6.96008 2.25869 6.83962 2.25869 6.69239C2.25869 6.54516 2.38224 6.42469 2.53325 6.42469Z" fill="#4384F4"/>
<path fill-rule="evenodd" clip-rule="evenodd" d="M3.67773 10.6812V8.40161H4.13397V10.6812C4.13397 10.7858 4.20521 10.8771 4.30676 10.9025L6.06267 11.3415L5.28973 10.0532C5.22491 9.94518 5.25994 9.80506 5.36797 9.74024C5.476 9.67542 5.61613 9.71045 5.68095 9.81848L6.73723 11.579C6.80205 11.687 6.76702 11.8271 6.65899 11.8919L4.89851 12.9482C4.79048 13.013 4.65036 12.978 4.58554 12.87C4.52072 12.7619 4.55575 12.6218 4.66378 12.557L5.95202 11.7841L4.19611 11.3451C3.89146 11.2689 3.67773 10.9952 3.67773 10.6812Z" fill="#4384F4"/>
<path d="M10.276 0C9.67023 0 9.17773 0.480179 9.17773 1.07078V7.49548C9.17773 8.08608 9.67023 8.56626 10.276 8.56626H14.6689C15.2747 8.56626 15.7672 8.08608 15.7672 7.49548V2.67696H13.5707C13.267 2.67696 13.0216 2.4377 13.0216 2.14156V0H10.276ZM13.5707 0V2.14156H15.7672L13.5707 0ZM11.0997 4.28313H13.8452C13.9963 4.28313 14.1198 4.40359 14.1198 4.55082C14.1198 4.69806 13.9963 4.81852 13.8452 4.81852H11.0997C10.9486 4.81852 10.8251 4.69806 10.8251 4.55082C10.8251 4.40359 10.9486 4.28313 11.0997 4.28313ZM11.0997 5.35391H13.8452C13.9963 5.35391 14.1198 5.47437 14.1198 5.62161C14.1198 5.76884 13.9963 5.8893 13.8452 5.8893H11.0997C10.9486 5.8893 10.8251 5.76884 10.8251 5.62161C10.8251 5.47437 10.9486 5.35391 11.0997 5.35391ZM11.0997 6.42469H13.8452C13.9963 6.42469 14.1198 6.54516 14.1198 6.69239C14.1198 6.83962 13.9963 6.96008 13.8452 6.96008H11.0997C10.9486 6.96008 10.8251 6.83962 10.8251 6.69239C10.8251 6.54516 10.9486 6.42469 11.0997 6.42469Z" fill="#8FB7FC"/>
<path fill-rule="evenodd" clip-rule="evenodd" d="M12.2442 11.3102L12.2442 8.56616L12.7004 8.56616L12.7004 11.3102L13.7627 10.2478C13.8518 10.1588 13.9963 10.1588 14.0854 10.2478C14.1744 10.3369 14.1744 10.4814 14.0854 10.5705L12.6336 12.0222C12.5445 12.1113 12.4001 12.1113 12.311 12.0222L10.8593 10.5705C10.7702 10.4814 10.7702 10.3369 10.8593 10.2478C10.9484 10.1588 11.0928 10.1588 11.1819 10.2478L12.2442 11.3102Z" fill="#8FB7FC"/>
<path d="M18.8419 0C18.2361 0 17.7437 0.480179 17.7437 1.07078V7.49548C17.7437 8.08608 18.2361 8.56626 18.8419 8.56626H23.2348C23.8406 8.56626 24.3331 8.08608 24.3331 7.49548V2.67696H22.1366C21.8329 2.67696 21.5875 2.4377 21.5875 2.14156V0H18.8419ZM22.1366 0V2.14156H24.3331L22.1366 0ZM19.6656 4.28313H22.4112C22.5622 4.28313 22.6857 4.40359 22.6857 4.55082C22.6857 4.69806 22.5622 4.81852 22.4112 4.81852H19.6656C19.5146 4.81852 19.391 4.69806 19.391 4.55082C19.391 4.40359 19.5146 4.28313 19.6656 4.28313ZM19.6656 5.35391H22.4112C22.5622 5.35391 22.6857 5.47437 22.6857 5.62161C22.6857 5.76884 22.5622 5.8893 22.4112 5.8893H19.6656C19.5146 5.8893 19.391 5.76884 19.391 5.62161C19.391 5.47437 19.5146 5.35391 19.6656 5.35391ZM19.6656 6.42469H22.4112C22.5622 6.42469 22.6857 6.54516 22.6857 6.69239C22.6857 6.83962 22.5622 6.96008 22.4112 6.96008H19.6656C19.5146 6.96008 19.391 6.83962 19.391 6.69239C19.391 6.54516 19.5146 6.42469 19.6656 6.42469Z" fill="#4384F4"/>
<path fill-rule="evenodd" clip-rule="evenodd" d="M21.2666 10.6812V8.40161H20.8104V10.6812C20.8104 10.7858 20.7391 10.8771 20.6376 10.9025L18.8817 11.3415L19.6546 10.0532C19.7194 9.94518 19.6844 9.80506 19.5764 9.74024C19.4683 9.67542 19.3282 9.71045 19.2634 9.81848L18.2071 11.579C18.1423 11.687 18.1773 11.8271 18.2853 11.8919L20.0458 12.9482C20.1539 13.013 20.294 12.978 20.3588 12.87C20.4236 12.7619 20.3886 12.6218 20.2806 12.557L18.9923 11.7841L20.7482 11.3451C21.0529 11.2689 21.2666 10.9952 21.2666 10.6812Z" fill="#4384F4"/>
<path fill-rule="evenodd" clip-rule="evenodd" d="M5.72708 14.3098C5.25342 14.3098 4.82559 14.5818 4.6239 15.0096C4.41916 15.4344 4.48333 15.9417 4.77975 16.3053L10.372 23.1383V25.5555C10.372 25.8642 10.5157 26.1545 10.7632 26.3378L12.719 27.8046C13.0154 28.0277 13.4096 28.0613 13.7427 27.8963C14.0758 27.7313 14.2836 27.3921 14.2836 27.0223V23.1383L19.8728 16.3084C20.1723 15.9417 20.2334 15.4374 20.0317 15.0096C19.83 14.5818 19.4022 14.3098 18.9285 14.3098H5.72708ZM8.33985 15.0369C8.06371 15.0369 7.83985 15.2608 7.83985 15.5369C7.83985 15.813 8.06371 16.0369 8.33985 16.0369H16.7071C17.1248 16.0369 17.3584 16.5188 17.0995 16.8467L13.7764 21.0561C13.6053 21.2728 13.6423 21.5872 13.859 21.7583C14.0757 21.9294 14.3901 21.8924 14.5613 21.6757L17.8844 17.4664C18.661 16.4827 17.9603 15.0369 16.7071 15.0369H8.33985Z" fill="#4384F4"/>
<path fill-rule="evenodd" clip-rule="evenodd" d="M20.9272 17.3429C21.1136 17.5002 21.1372 17.7788 20.9799 17.9651L16.7387 22.9757C16.5815 23.1621 16.3029 23.1856 16.1165 23.0284C15.9302 22.8711 15.9066 22.5926 16.0639 22.4062L20.305 17.3956C20.4623 17.2093 20.7409 17.1857 20.9272 17.3429Z" fill="#4384F4"/>
<path fill-rule="evenodd" clip-rule="evenodd" d="M8.63946 23.4868C8.87876 23.4868 9.07275 23.6808 9.07275 23.9201L9.07275 25.6533C9.07275 25.8926 8.87876 26.0866 8.63946 26.0866C8.40016 26.0866 8.20617 25.8926 8.20617 25.6533L8.20617 23.9201C8.20617 23.6808 8.40016 23.4868 8.63946 23.4868Z" fill="#4384F4"/>
</svg>
