<svg width="20" height="20" viewBox="0 0 20 20" fill="none" xmlns="http://www.w3.org/2000/svg">
<path d="M9.99999 0C4.47714 0 0 4.47714 0 9.99999C0 15.5228 4.47714 20 9.99999 20C15.5228 20 20 15.5228 20 9.99999C20 4.47714 15.5228 0 9.99999 0Z" fill="#4384F4"/>
<path d="M9.63468 15.8713V14.7011C8.04004 14.5488 6.72011 13.5447 6.6665 11.9383V11.9313L7.83233 11.9244V11.9383C7.95294 12.7969 8.46885 13.4824 9.63468 13.614V10.2833L9.48057 10.2418C7.81223 9.82633 6.91441 9.05772 6.91441 7.70054V7.68669C6.91441 6.20486 8.04674 5.1939 9.63468 5.04156V3.87134H10.4387V5.04156C11.9864 5.18698 13.1858 6.22564 13.2394 7.74901V7.75593L12.0735 7.76286V7.74901C11.9864 6.82114 11.3432 6.24641 10.4387 6.1287V9.307L10.6464 9.35547C12.3683 9.78478 13.3332 10.5188 13.3332 11.966V11.9798C13.3332 13.6417 12.0199 14.5765 10.4387 14.708V15.8713H9.63468ZM8.08024 7.61744C8.08024 8.28911 8.48225 8.81537 9.63468 9.10619V6.1287C8.61625 6.27411 8.08024 6.93885 8.08024 7.60359V7.61744ZM10.4789 10.4911L10.4387 10.4841V13.6278C11.6849 13.524 12.1673 12.8731 12.1673 12.0768V12.0629C12.1673 11.3082 11.8055 10.8234 10.4789 10.4911Z" fill="white"/>
</svg>
