<svg width="21" height="20" viewBox="0 0 21 20" fill="none" xmlns="http://www.w3.org/2000/svg">
<path d="M9.84915 6.79424H16.8112C17.3718 6.79424 17.8283 6.33772 17.8283 5.77713C17.8283 5.21654 17.3718 4.76001 16.8112 4.76001H9.84915C9.28856 4.76001 8.83203 5.21654 8.83203 5.77713C8.83203 6.34107 9.28856 6.79424 9.84915 6.79424Z" fill="#4384F4"/>
<path d="M1.59108 15.0118C1.722 15.1427 1.92341 15.1527 2.04425 15.0353L6.32756 10.7318C6.44504 10.6143 6.43497 10.4096 6.30406 10.2786L5.62934 9.60728C5.49842 9.47636 5.29701 9.46629 5.17617 9.58378L0.892863 13.8906C0.775374 14.0081 0.785445 14.2128 0.916361 14.3438L1.59108 15.0118Z" fill="#4384F4"/>
<path d="M3.64551 18.0427H0.335682C0.151057 18.0427 0 18.1904 0 18.3784V19.3284C0 19.513 0.151057 19.6641 0.335682 19.6641H5.09901C4.48136 19.2646 3.97448 18.704 3.64551 18.0427Z" fill="#4384F4"/>
<path d="M10.1379 4.08878H11.0073L9.7921 1.43018C9.26508 1.50067 8.94283 2.07804 9.2013 2.56478L10.1379 4.08878Z" fill="#4384F4"/>
<path d="M16.5222 4.08878L17.4554 2.56478C17.7139 2.07804 17.395 1.50067 16.868 1.43018L15.6528 4.08878H16.5222Z" fill="#4384F4"/>
<path d="M11.7453 4.09196H14.9141L16.3105 1.04061C16.4885 0.530378 16.1125 0 15.572 0H11.0873C10.5469 0 10.1709 0.533735 10.3488 1.04061L11.7453 4.09196Z" fill="#4384F4"/>
<path d="M17.0627 7.44556C16.9788 7.45898 16.8949 7.4657 16.8076 7.4657H9.84889C9.76161 7.4657 9.67769 7.45898 9.59712 7.44556C8.12012 8.58688 6.99223 10.319 6.4585 12.125C6.74718 12.0612 7.04594 12.0243 7.35477 12.0243C9.64748 12.0243 11.5105 13.8907 11.5105 16.18C11.5105 17.5194 10.8727 18.7077 9.88581 19.4697C10.9096 19.8255 12.0812 20.0001 13.3299 20.0001C17.3111 20.0001 20.5437 18.2243 20.5437 14.3807C20.5437 11.8531 19.1473 9.06019 17.0627 7.44556ZM13.3299 12.9071C14.1456 12.9071 14.8069 13.5684 14.8069 14.3841C14.8069 15.0823 14.3168 15.6664 13.6656 15.8175V16.3109C13.6656 16.4955 13.5145 16.6466 13.3299 16.6466C13.1453 16.6466 12.9942 16.4955 12.9942 16.3109V15.8175C12.343 15.6631 11.8529 15.0823 11.8529 14.3841C11.8529 14.1995 12.004 14.0484 12.1886 14.0484C12.3732 14.0484 12.5243 14.1995 12.5243 14.3841C12.5243 14.8272 12.8868 15.1897 13.3299 15.1897C13.773 15.1897 14.1355 14.8272 14.1355 14.3841C14.1355 13.941 13.773 13.5785 13.3299 13.5785C12.5142 13.5785 11.8529 12.9172 11.8529 12.1015C11.8529 11.4032 12.343 10.8192 12.9942 10.6681V10.1747C12.9942 9.99003 13.1453 9.83897 13.3299 9.83897C13.5145 9.83897 13.6656 9.99003 13.6656 10.1747V10.6681C14.3168 10.8225 14.8069 11.4032 14.8069 12.1015C14.8069 12.2861 14.6559 12.4371 14.4712 12.4371C14.2866 12.4371 14.1355 12.2861 14.1355 12.1015C14.1355 11.6584 13.773 11.2958 13.3299 11.2958C12.8868 11.2958 12.5243 11.6584 12.5243 12.1015C12.5243 12.5446 12.8835 12.9071 13.3299 12.9071Z" fill="#4384F4"/>
<path d="M7.35499 12.699C5.43153 12.699 3.87061 14.2599 3.87061 16.1834C3.87061 18.1068 5.43153 19.6677 7.35499 19.6677C9.27844 19.6677 10.8394 18.1068 10.8394 16.1834C10.8394 14.2565 9.2818 12.699 7.35499 12.699ZM7.35499 15.8477C7.98607 15.8477 8.4963 16.3613 8.4963 16.989C8.4963 17.5026 8.15391 17.9289 7.69067 18.0732V18.3519C7.69067 18.5365 7.53961 18.6875 7.35499 18.6875C7.17036 18.6875 7.0193 18.5365 7.0193 18.3519V18.0732C6.55271 17.9289 6.21367 17.4992 6.21367 16.989C6.21367 16.8044 6.36472 16.6533 6.54935 16.6533C6.73397 16.6533 6.88503 16.8044 6.88503 16.989C6.88503 17.2475 7.09651 17.4589 7.35499 17.4589C7.61346 17.4589 7.82494 17.2475 7.82494 16.989C7.82494 16.7305 7.61346 16.519 7.35499 16.519C6.7239 16.519 6.21367 16.0054 6.21367 15.3777C6.21367 14.8641 6.55606 14.4378 7.0193 14.2935V14.0148C7.0193 13.8302 7.17036 13.6792 7.35499 13.6792C7.53961 13.6792 7.69067 13.8302 7.69067 14.0148V14.2935C8.15727 14.4378 8.4963 14.8675 8.4963 15.3777C8.4963 15.5623 8.34525 15.7134 8.16062 15.7134C7.976 15.7134 7.82494 15.5623 7.82494 15.3777C7.82494 15.1192 7.61346 14.9078 7.35499 14.9078C7.09651 14.9078 6.88503 15.1192 6.88503 15.3777C6.88503 15.6362 7.09651 15.8477 7.35499 15.8477Z" fill="#8FB7FC"/>
<path d="M0.335682 17.4251H3.39039C3.26619 17.0323 3.19905 16.6127 3.19905 16.1797C3.19905 16.0521 3.20576 15.9279 3.21919 15.8037H0.335682C0.151057 15.8037 0 15.9548 0 16.1394V17.0894C0 17.2774 0.151057 17.4251 0.335682 17.4251Z" fill="#4384F4"/>
</svg>
