<svg width="25" height="20" viewBox="0 0 25 20" fill="none" xmlns="http://www.w3.org/2000/svg">
<path opacity="0.4" d="M18.75 1.25C19.8274 1.25 20.8608 1.67801 21.6226 2.43988C22.3845 3.20175 22.8125 4.23506 22.8125 5.3125C22.8125 6.38994 22.3845 7.42325 21.6226 8.18512C20.8608 8.94699 19.8274 9.375 18.75 9.375C17.6726 9.375 16.6392 8.94699 15.8774 8.18512C15.1155 7.42325 14.6875 6.38994 14.6875 5.3125C14.6875 4.23506 15.1155 3.20175 15.8774 2.43988C16.6392 1.67801 17.6726 1.25 18.75 1.25ZM17.5 18.75C16.0039 18.75 14.6602 18.0938 13.7461 17.0508C13.75 16.9922 13.75 16.9336 13.75 16.875V16.25C13.75 14.8867 13.3125 13.6289 12.5742 12.6016C12.8008 11.8203 13.5195 11.25 14.375 11.25H23.125C24.1602 11.25 25 12.0898 25 13.125V13.75C25 16.5117 22.7617 18.75 20 18.75H17.5Z" fill="#4384F4"/>
<path d="M6.25 9.375C7.32744 9.375 8.36075 8.94699 9.12262 8.18512C9.88449 7.42325 10.3125 6.38994 10.3125 5.3125C10.3125 4.23506 9.88449 3.20175 9.12262 2.43988C8.36075 1.67801 7.32744 1.25 6.25 1.25C5.17256 1.25 4.13925 1.67801 3.37738 2.43988C2.61551 3.20175 2.1875 4.23506 2.1875 5.3125C2.1875 6.38994 2.61551 7.42325 3.37738 8.18512C4.13925 8.94699 5.17256 9.375 6.25 9.375ZM5 11.25C2.23828 11.25 0 13.4883 0 16.25V16.875C0 17.9102 0.839844 18.75 1.875 18.75H10.625C11.6602 18.75 12.5 17.9102 12.5 16.875V16.25C12.5 13.4883 10.2617 11.25 7.5 11.25H5Z" fill="#4384F4"/>
</svg>
