<svg width="23" height="22" viewBox="0 0 23 22" fill="none" xmlns="http://www.w3.org/2000/svg">
<path d="M17.1232 8.67917H15.9486V13.4973H17.1232V8.67917Z" fill="#8FB7FC"/>
<path d="M13.8133 10.8425H12.6385V13.4973H13.8133V10.8425Z" fill="#8FB7FC"/>
<path d="M20.4334 6.62177H19.2586V13.4973H20.4334V6.62177Z" fill="#8FB7FC"/>
<path d="M5.02476 1.61987C4.60775 1.71215 4.22397 1.91539 3.91469 2.20775C3.6054 2.50011 3.3823 2.87053 3.26936 3.2792C3.15642 3.68788 3.15791 4.11935 3.27368 4.52725C3.38944 4.93514 3.6151 5.30404 3.9264 5.59429C4.23769 5.88454 4.62286 6.08517 5.0405 6.17461C5.45815 6.26405 5.89247 6.23893 6.29679 6.10193C6.70112 5.96494 7.06016 5.72126 7.33532 5.39709C7.61048 5.07291 7.79136 4.6805 7.85852 4.26202H5.34972C5.26358 4.26202 5.18097 4.2281 5.12004 4.16772C5.0591 4.10734 5.02483 4.02544 5.02476 3.94001V1.61987Z" fill="#8FB7FC"/>
<path d="M5.81238 1.58054H5.81072L5.78759 1.57808H5.78511H5.78263L5.75922 1.57617H5.7573H5.75482L5.73609 1.5748H5.73114H5.72728L5.70773 1.57344H5.69974H5.67881H5.67523V3.62183H7.87147C7.87147 3.61682 7.87069 3.61192 7.86992 3.60699L7.8692 3.60225L7.86871 3.59834V3.5967L7.86485 3.57185V3.56994V3.56803V3.5642L7.86155 3.54481L7.85825 3.52378V3.52214V3.51723L7.85522 3.49838V3.49619V3.49401L7.85219 3.47598L7.85051 3.46754C7.8495 3.46232 7.84848 3.45708 7.84723 3.45195L7.8431 3.43092V3.42819V3.42546L7.83842 3.40443V3.40197L7.83374 3.38094V3.3793L7.82905 3.361V3.35827V3.35581V3.35308L7.82382 3.33232V3.32987L7.81886 3.31157V3.30911V3.3072V3.30556L7.81446 3.29108V3.27688V3.27524L7.80923 3.25803V3.25585V3.25421V3.2523V3.25066L7.80399 3.23264V3.231V3.22745V3.22581L7.79986 3.21161V3.20997V3.20669V3.20478V3.20314V3.20095L7.79601 3.18894V3.18702V3.18347L7.79077 3.16709L7.78334 3.14551V3.14305L7.77645 3.12339L7.7748 3.11956V3.10755L7.7715 3.09853V3.09717V3.09444V3.0928L7.76682 3.07996V3.07832V3.07532V3.07395L7.72716 3.04746V3.04446L7.72275 3.03217V3.02971L7.71614 3.01387V3.01223L7.70816 2.99284V2.9912L7.70678 2.98847L7.70072 2.97563V2.97399L7.69659 2.96443V2.96225V2.96006V2.95788L7.69108 2.94559V2.9434V2.90817V2.90598L7.68778 2.89943V2.89643L7.68007 2.88004L7.67649 2.87321L7.66823 2.85682L7.66547 2.85081L7.65666 2.8347L7.65336 2.82733L7.64509 2.81149L7.64317 2.80739L7.63353 2.79018L7.62582 2.77653L7.617 2.76123L7.61315 2.75358L7.57019 2.72518L7.56523 2.71726L7.55807 2.70524L7.55091 2.6935L7.54403 2.6823L7.53852 2.67301L7.53053 2.66045L7.52447 2.65117L7.51649 2.63888L7.5052 2.62194L7.49859 2.61184L7.49032 2.59982L7.48344 2.58944L7.47655 2.57906L7.46939 2.56841L7.46113 2.55694L7.45452 2.54765L7.44599 2.53646L7.43883 2.52662L7.42423 2.50669L7.42038 2.5015L7.40826 2.48565L7.40027 2.47528L7.39146 2.46435L7.3843 2.45507L7.37631 2.44551L7.36805 2.43485L7.36062 2.42639L7.35153 2.41574L7.34051 2.40235L7.33611 2.39716L7.32261 2.38132L7.31408 2.37013L7.31022 2.36603L7.297 2.35073L7.29012 2.34336L7.2802 2.33216L7.27167 2.3226L7.2623 2.3125L7.25542 2.30485L7.24358 2.29229L7.23779 2.28655L7.2243 2.27262L7.21934 2.26716V2.26579L7.20805 2.25432L7.20021 2.25055L7.20392 2.25869L7.06065 2.18344L5.82174 1.58764L5.81238 1.58054Z" fill="#8FB7FC"/>
<path fill-rule="evenodd" clip-rule="evenodd" d="M4.79536 19.9705H6.60825L7.00206 19.3611L8.06396 17.7197H1.38328C1.0168 17.7187 0.665587 17.574 0.406392 17.317C0.147196 17.0601 0.00109038 16.7118 0 16.3484V15.884H23V16.3484C22.9988 16.7118 22.8527 17.06 22.5935 17.3168C22.3343 17.5737 21.9832 17.7185 21.6167 17.7194H14.936L15.9979 19.3609L16.392 19.9702H18.2046C18.2849 19.9705 18.3617 20.0023 18.4184 20.0586C18.4752 20.1148 18.5072 20.191 18.5076 20.2706V21.6996C18.5076 21.7792 18.4757 21.8557 18.4188 21.912C18.362 21.9683 18.285 22 18.2046 22H4.79536C4.71515 21.9996 4.63835 21.9678 4.58164 21.9115C4.52492 21.8553 4.49287 21.7791 4.49243 21.6996V20.2714C4.49294 20.1919 4.52502 20.1158 4.58172 20.0595C4.63842 20.0033 4.71518 19.971 4.79536 19.9705ZM0 15.2409V1.37188C0.00101741 1.00834 0.147082 0.659986 0.406278 0.402928C0.665474 0.14587 1.01673 0.00100902 1.38328 0H21.6167C21.9833 0.00100902 22.3345 0.14587 22.5937 0.402928C22.8529 0.659986 22.999 1.00834 23 1.37188V15.2409H0ZM16.2816 5.49215C16.3677 5.49215 16.4503 5.45822 16.5112 5.39783C16.5721 5.33745 16.6063 5.25554 16.6063 5.17014C16.6063 5.08474 16.5721 5.00283 16.5112 4.94245C16.4503 4.88206 16.3677 4.84813 16.2816 4.84813H12.267C12.1808 4.84813 12.0983 4.88206 12.0374 4.94245C11.9765 5.00283 11.9423 5.08474 11.9423 5.17014C11.9423 5.25554 11.9765 5.33745 12.0374 5.39783C12.0983 5.45822 12.1808 5.49215 12.267 5.49215H16.2816ZM12.267 4.21778H16.2816C16.325 4.21903 16.3682 4.21163 16.4087 4.19602C16.4492 4.18041 16.4861 4.1569 16.5173 4.12689C16.5484 4.09688 16.5732 4.06097 16.5901 4.02129C16.607 3.98162 16.6157 3.93898 16.6157 3.8959C16.6157 3.85283 16.607 3.81019 16.5901 3.77051C16.5732 3.73084 16.5484 3.69493 16.5173 3.66492C16.4861 3.63491 16.4492 3.6114 16.4087 3.59579C16.3682 3.58018 16.325 3.57278 16.2816 3.57403H12.267C12.1825 3.57647 12.1024 3.61145 12.0435 3.67155C11.9847 3.73165 11.9517 3.81213 11.9517 3.8959C11.9517 3.97968 11.9847 4.06016 12.0435 4.12026C12.1024 4.18035 12.1825 4.21534 12.267 4.21778ZM12.267 2.94395H14.2743C14.3604 2.94395 14.443 2.91002 14.5039 2.84963C14.5648 2.78925 14.599 2.70734 14.599 2.62194C14.599 2.53654 14.5648 2.45464 14.5039 2.39425C14.443 2.33386 14.3604 2.29993 14.2743 2.29993H12.267C12.1808 2.29993 12.0983 2.33386 12.0374 2.39425C11.9765 2.45464 11.9423 2.53654 11.9423 2.62194C11.9423 2.70734 11.9765 2.78925 12.0374 2.84963C12.0983 2.91002 12.1808 2.94395 12.267 2.94395ZM2.96292 14.0337H8.70452C8.79063 14.0337 8.87321 13.9997 8.9341 13.9394C8.99499 13.879 9.0292 13.7971 9.0292 13.7117C9.0292 13.6263 8.99499 13.5444 8.9341 13.484C8.87321 13.4236 8.79063 13.3897 8.70452 13.3897H2.96292C2.87681 13.3897 2.79422 13.4236 2.73333 13.484C2.67244 13.5444 2.63823 13.6263 2.63823 13.7117C2.63823 13.7971 2.67244 13.879 2.73333 13.9394C2.79422 13.9997 2.87681 14.0337 2.96292 14.0337ZM2.96292 12.5299H8.70452C8.78896 12.5274 8.86911 12.4925 8.92797 12.4324C8.98682 12.3723 9.01975 12.2918 9.01975 12.208C9.01975 12.1242 8.98682 12.0437 8.92797 11.9837C8.86911 11.9236 8.78896 11.8886 8.70452 11.8861H2.96292C2.9195 11.8849 2.87627 11.8923 2.83579 11.9079C2.79531 11.9235 2.7584 11.947 2.72724 11.977C2.69609 12.007 2.67132 12.0429 2.65441 12.0826C2.63749 12.1223 2.62878 12.1649 2.62878 12.208C2.62878 12.2511 2.63749 12.2937 2.65441 12.3334C2.67132 12.3731 2.69609 12.409 2.72724 12.439C2.7584 12.469 2.79531 12.4925 2.83579 12.5081C2.87627 12.5237 2.9195 12.5311 2.96292 12.5299ZM2.96292 11.0258H5.83303C5.87645 11.0271 5.91967 11.0197 5.96015 11.0041C6.00064 10.9884 6.03755 10.9649 6.0687 10.9349C6.09986 10.9049 6.12463 10.869 6.14154 10.8293C6.15845 10.7897 6.16717 10.747 6.16717 10.7039C6.16717 10.6609 6.15845 10.6182 6.14154 10.5785C6.12463 10.5389 6.09986 10.503 6.0687 10.473C6.03755 10.4429 6.00064 10.4194 5.96015 10.4038C5.91967 10.3882 5.87645 10.3808 5.83303 10.3821H2.96292C2.9195 10.3808 2.87627 10.3882 2.83579 10.4038C2.79531 10.4194 2.7584 10.4429 2.72724 10.473C2.69609 10.503 2.67132 10.5389 2.65441 10.5785C2.63749 10.6182 2.62878 10.6609 2.62878 10.7039C2.62878 10.747 2.63749 10.7897 2.65441 10.8293C2.67132 10.869 2.69609 10.9049 2.72724 10.9349C2.7584 10.9649 2.79531 10.9884 2.83579 11.0041C2.87627 11.0197 2.9195 11.0271 2.96292 11.0258ZM8.44951 9.81862V9.28659H13.024C13.0674 9.28784 13.1106 9.28045 13.1511 9.26483C13.1916 9.24922 13.2285 9.22572 13.2597 9.1957C13.2908 9.16569 13.3156 9.12978 13.3325 9.09011C13.3494 9.05043 13.3581 9.00779 13.3581 8.96472C13.3581 8.92164 13.3494 8.879 13.3325 8.83933C13.3156 8.79965 13.2908 8.76375 13.2597 8.73373C13.2285 8.70372 13.1916 8.68021 13.1511 8.6646C13.1106 8.64899 13.0674 8.64159 13.024 8.64285H8.12207C8.07943 8.64288 8.03722 8.65125 7.99784 8.66746C7.95846 8.68368 7.92269 8.70743 7.89256 8.73735C7.86244 8.76728 7.83855 8.8028 7.82227 8.84188C7.80599 8.88096 7.79762 8.92284 7.79766 8.96513V9.81862C7.79639 9.86168 7.80385 9.90455 7.81959 9.9447C7.83534 9.98485 7.85904 10.0215 7.8893 10.0524C7.91956 10.0833 7.95577 10.1078 7.99577 10.1246C8.03578 10.1414 8.07877 10.15 8.12221 10.15C8.16564 10.15 8.20863 10.1414 8.24864 10.1246C8.28864 10.1078 8.32485 10.0833 8.35511 10.0524C8.38537 10.0215 8.40908 9.98485 8.42482 9.9447C8.44056 9.90455 8.44802 9.86168 8.44675 9.81862H8.44951ZM18.9339 5.97803C18.8913 5.97803 18.8491 5.98635 18.8098 6.00252C18.7704 6.01869 18.7347 6.0424 18.7046 6.07228C18.6745 6.10216 18.6506 6.13763 18.6343 6.17666C18.6181 6.21569 18.6097 6.25752 18.6097 6.29976V13.8193C18.6097 13.9046 18.6438 13.9865 18.7045 14.0469C18.7653 14.1074 18.8478 14.1414 18.9339 14.1416H20.758C20.8008 14.1417 20.8431 14.1334 20.8826 14.1172C20.9221 14.1011 20.958 14.0774 20.9883 14.0474C21.0185 14.0175 21.0425 13.9819 21.0588 13.9428C21.0752 13.9036 21.0836 13.8616 21.0836 13.8193V6.29976C21.0836 6.2575 21.0752 6.21565 21.0589 6.1766C21.0427 6.13754 21.0188 6.10206 20.9886 6.07218C20.9585 6.0423 20.9227 6.0186 20.8833 6.00244C20.844 5.98629 20.8018 5.97799 20.7592 5.97803H18.9339ZM15.624 8.03516C15.5381 8.03537 15.4558 8.06937 15.3951 8.12968C15.3344 8.18999 15.3004 8.2717 15.3004 8.35689V13.8193C15.3004 13.9045 15.3344 13.9863 15.3951 14.0467C15.4557 14.1071 15.538 14.1412 15.624 14.1416H17.4484C17.5345 14.1414 17.6169 14.1074 17.6777 14.0471C17.7386 13.9867 17.7728 13.9049 17.7728 13.8195V8.35716C17.7729 8.31489 17.7645 8.27302 17.7482 8.23396C17.7319 8.19489 17.708 8.15939 17.6779 8.12949C17.6478 8.09958 17.612 8.07586 17.5726 8.05967C17.5333 8.04349 17.491 8.03516 17.4484 8.03516H15.624ZM12.3141 10.1985C12.2279 10.1985 12.1454 10.2325 12.0845 10.2928C12.0236 10.3532 11.9894 10.4351 11.9894 10.5205V13.8193C11.9893 13.8616 11.9977 13.9035 12.014 13.9426C12.0303 13.9817 12.0542 14.0172 12.0844 14.0471C12.1145 14.0771 12.1503 14.1008 12.1897 14.117C12.2291 14.1332 12.2714 14.1416 12.3141 14.1416H14.138C14.224 14.1415 14.3066 14.1075 14.3675 14.0472C14.4283 13.9868 14.4626 13.9049 14.4626 13.8195V10.5205C14.4626 10.4783 14.4542 10.4364 14.4379 10.3973C14.4216 10.3582 14.3977 10.3227 14.3675 10.2928C14.3374 10.2629 14.3016 10.2392 14.2622 10.223C14.2228 10.2069 14.1806 10.1985 14.138 10.1985H12.3141ZM5.53644 0.920684H5.52762C4.9358 0.922379 4.35771 1.09763 3.86608 1.42439C3.37446 1.75115 2.99126 2.21482 2.76471 2.75705C2.53816 3.29928 2.47837 3.89586 2.59288 4.47171C2.70739 5.04756 2.99107 5.57696 3.40823 5.99329C3.82539 6.40962 4.35739 6.69429 4.9373 6.81148C5.5172 6.92867 6.1191 6.87313 6.66726 6.65187C7.21542 6.4306 7.68534 6.05349 8.01791 5.56799C8.35047 5.08248 8.53082 4.51027 8.53625 3.92335V3.91953V3.89413V3.85862V3.85562V3.82121V3.81766V3.78379V3.78051C8.53625 3.76931 8.53626 3.75784 8.53488 3.74664V3.74118C8.53488 3.72944 8.53488 3.71769 8.53295 3.70622V3.70295L8.53047 3.6699V3.66689C8.53047 3.6599 8.52965 3.6529 8.52883 3.64584C8.5283 3.64133 8.52777 3.63679 8.52744 3.63221V3.62647C8.52744 3.61972 8.52649 3.61298 8.52554 3.60623C8.52487 3.60151 8.5242 3.59678 8.52386 3.59206V3.59097C8.52386 3.58285 8.5227 3.57502 8.52154 3.56717L8.52089 3.5627L8.52028 3.55819V3.55492C8.52028 3.54344 8.51891 3.53197 8.51615 3.5205V3.51449C8.51615 3.50657 8.5147 3.49835 8.51327 3.49027L8.51272 3.48712L8.51174 3.48117V3.47871L8.50651 3.44512V3.44294L8.50128 3.41016V3.40798V3.40661L8.50002 3.40005L8.49836 3.39076C8.49736 3.38505 8.49637 3.37937 8.49522 3.37384V3.3722L8.49446 3.36797C8.49278 3.35867 8.49108 3.34922 8.48916 3.33997V3.33833C8.48696 3.32686 8.48476 3.31566 8.48228 3.30419L8.47567 3.27196V3.27033C8.4743 3.264 8.47285 3.25775 8.47141 3.25154C8.47024 3.2465 8.46907 3.24148 8.46796 3.23646L8.4608 3.20423C8.45805 3.19331 8.45529 3.18238 8.45226 3.17118C8.44951 3.15999 8.44675 3.14933 8.44372 3.13868L8.43464 3.10645L8.42472 3.07341L8.41536 3.04254L8.4136 3.03718C8.41061 3.0281 8.40766 3.01913 8.40489 3.00977V3.00813C8.40363 3.00415 8.40228 3.00012 8.4009 2.99604C8.39898 2.99033 8.39702 2.98453 8.39526 2.97863V2.977C8.39168 2.96716 8.38809 2.95678 8.38479 2.94641V2.94504C8.38121 2.93466 8.37763 2.92428 8.3735 2.91418V2.91227C8.36964 2.90189 8.36579 2.89151 8.36193 2.88168L8.36126 2.87979L8.35962 2.8754L8.35651 2.86742C8.3544 2.86202 8.35227 2.85659 8.35037 2.85109L8.33825 2.82132L8.33579 2.81507L8.33192 2.80548C8.32978 2.80022 8.32765 2.79496 8.32558 2.78964L8.31319 2.76069L8.29942 2.73064C8.29628 2.72344 8.29286 2.71637 8.28946 2.70935L8.28538 2.70087C8.28097 2.69131 8.27629 2.68175 8.27161 2.6722L8.25646 2.64188V2.64024L8.2527 2.63297C8.24898 2.62574 8.24522 2.61844 8.24131 2.61129L8.22672 2.58398C8.22148 2.57442 8.21625 2.56486 8.21129 2.55503C8.20886 2.5508 8.20647 2.54646 8.2041 2.54214C8.2011 2.53669 8.19812 2.53125 8.19505 2.52608C8.19309 2.52284 8.19122 2.51963 8.18939 2.51648C8.18581 2.51032 8.18235 2.50436 8.17852 2.49876V2.49713C8.17534 2.49129 8.17207 2.48564 8.16882 2.48002C8.16643 2.4759 8.16405 2.47179 8.16172 2.46763C8.15649 2.45834 8.15098 2.44933 8.14548 2.44032L8.1284 2.41301C8.12555 2.40862 8.12281 2.40424 8.12011 2.39992C8.11709 2.39508 8.11411 2.39031 8.11105 2.38569V2.38405L8.10115 2.36846L8.0937 2.35674L8.07553 2.32943L8.0568 2.30212L8.05266 2.29632C8.04788 2.28961 8.04298 2.28273 8.03808 2.27617C8.03304 2.26914 8.02763 2.26192 8.02231 2.25482L8.01907 2.2505C8.01246 2.24203 8.00613 2.23302 7.99952 2.22319C7.99346 2.21499 7.98713 2.20653 7.98079 2.19861L7.96179 2.17375C7.95702 2.16807 7.95237 2.16225 7.94777 2.15649L7.94169 2.1489L7.92104 2.12405L7.90066 2.09946L7.88 2.07516L7.87438 2.06861C7.86934 2.0627 7.86421 2.05669 7.8588 2.05112C7.85308 2.0444 7.84736 2.03817 7.84152 2.03179L7.83621 2.026L7.81418 2.00223L7.79298 1.97984L7.78565 1.97224C7.78063 1.96702 7.77558 1.96176 7.7704 1.95662H7.76902C7.76172 1.94912 7.75429 1.94147 7.74671 1.93423C7.46855 1.65762 7.13802 1.43824 6.77412 1.28868C6.41023 1.13912 6.02012 1.06232 5.62621 1.06271L5.53644 0.920684Z" fill="#4384F4"/>
<path d="M7.19869 2.24722L7.18409 2.23275H7.18216L7.1717 2.22264L7.16261 2.21417L7.15352 2.20543L7.14223 2.19478L7.1337 2.18741L7.12296 2.17785L7.11277 2.16856L7.10313 2.1601L7.09266 2.15108L7.08302 2.14262L7.07311 2.13415L7.06099 2.12377L7.05246 2.11667L7.04254 2.10848L7.03208 2.10001L7.02024 2.09072L7.01087 2.08308L6.99903 2.07379L6.98912 2.06614L6.97948 2.0585L6.96708 2.04894L6.95607 2.03637L6.94285 2.02682L6.92275 2.01207L6.90485 1.99896L6.88998 1.98831L6.88419 1.98421L6.87097 1.9752L6.86106 1.96837L6.84977 1.96099L6.83903 1.95389L6.82553 1.94488L6.81727 1.93969L6.8024 1.93013L6.79414 1.92494L6.7812 1.91702L6.7633 1.90582L6.75063 1.8979L6.74044 1.89162L6.72722 1.88397L6.71786 1.87851L6.70381 1.87032L6.69583 1.86567L6.68095 1.85721L6.67435 1.85338H6.67214H6.66994H6.66801L6.66388 1.85147H6.66168H6.65975H6.65755L6.65342 1.84956L6.65149 1.84792H6.64956H6.64708L6.63882 1.84328H6.63717H6.63496H6.63304H6.63138H6.62918L6.61899 1.83809H6.61679H6.61459H6.61266L6.60577 1.83454L6.59145 1.82744H6.58925H6.58732H6.58512L6.56804 1.81897H6.56584H6.56364L6.54464 1.80996H6.54298L6.52261 1.80013L6.5193 1.79876H6.51737L6.49892 1.79084H6.48791H6.48598H6.4835L6.46698 1.78319L6.46202 1.78073L6.44274 1.77281L6.43558 1.74195L6.41493 1.73321H6.41245H6.41107L6.39372 1.72638H6.39179H6.38932H6.38601L6.37032 1.72065H6.36563L6.34581 1.71355H6.34305L6.32102 1.70617L6.29899 1.6988H6.29623H6.29403L6.27228 1.6917L6.24832 1.68405H6.2373L6.21252 1.66275H6.21004H6.20728L6.18746 1.65674H6.1847H6.18195L6.16212 1.65128H6.15937H6.15744L6.13623 1.64581H6.13238L6.11035 1.64035H6.10759L6.08584 1.63516H6.08308L6.06133 1.62997H6.0561L6.03599 1.6256H6.03379H6.03186L6.00928 1.62123H6.0068H6.00487L5.98202 1.61686L7.06065 2.18344L7.20021 2.25055L7.19869 2.24722Z" fill="#8FB7FC"/>
</svg>
