<svg width="20" height="20" viewBox="0 0 20 20" fill="none" xmlns="http://www.w3.org/2000/svg">
<path opacity="0.4" d="M7.5 2.5C7.5 3.19141 6.94141 3.75 6.25 3.75H3.75C3.05859 3.75 2.5 4.30859 2.5 5V15C2.5 15.6914 3.05859 16.25 3.75 16.25H6.25C6.94141 16.25 7.5 16.8086 7.5 17.5C7.5 18.1914 6.94141 18.75 6.25 18.75H3.75C1.67969 18.75 0 17.0703 0 15V5C0 2.92969 1.67969 1.25 3.75 1.25H6.25C6.94141 1.25 7.5 1.80859 7.5 2.5Z" fill="#E94134"/>
<path d="M19.6328 9.11719C20.1211 9.60547 20.1211 10.3984 19.6328 10.8867L14.6328 15.8867C14.1445 16.375 13.3516 16.375 12.8633 15.8867C12.375 15.3984 12.375 14.6055 12.8633 14.1172L15.7305 11.25H7.5C6.80859 11.25 6.25 10.6914 6.25 10C6.25 9.30859 6.80859 8.75 7.5 8.75H15.7305L12.8633 5.88281C12.375 5.39453 12.375 4.60156 12.8633 4.11328C13.3516 3.625 14.1445 3.625 14.6328 4.11328L19.6328 9.11328V9.11719Z" fill="#E94134"/>
</svg>
