<svg width="18" height="21" viewBox="0 0 18 21" fill="none" xmlns="http://www.w3.org/2000/svg">
<g clip-path="url(#clip0_2153_2514)">
<path opacity="0.4" d="M9.00021 0C8.28905 0 7.71449 0.586523 7.71449 1.3125V2.1C4.78146 2.70703 2.57164 5.35664 2.57164 8.53125V9.30234C2.57164 11.2301 1.87655 13.0922 0.622975 14.5359L0.325654 14.8764C-0.0118461 15.2619 -0.0922033 15.8156 0.112707 16.2873C0.317618 16.759 0.779672 17.0625 1.28592 17.0625H16.7145C17.2207 17.0625 17.6788 16.759 17.8877 16.2873C18.0966 15.8156 18.0123 15.2619 17.6748 14.8764L17.3774 14.5359C16.1239 13.0922 15.4288 11.2342 15.4288 9.30234V8.53125C15.4288 5.35664 13.219 2.70703 10.2859 2.1V1.3125C10.2859 0.586523 9.71137 0 9.00021 0Z" fill="#4384F4"/>
<path d="M11.5716 18.375C11.5716 19.0723 11.3024 19.7408 10.8202 20.233C10.3381 20.7252 9.68318 21 9.00014 21C8.3171 21 7.66219 20.7252 7.18005 20.233C6.69791 19.7408 6.42871 19.0723 6.42871 18.375H9.00014H11.5716Z" fill="#4384F4"/>
</g>
<defs>
<clipPath id="clip0_2153_2514">
<rect width="18" height="21" fill="white"/>
</clipPath>
</defs>
</svg>
