<svg width="19" height="23" viewBox="0 0 19 23" fill="none" xmlns="http://www.w3.org/2000/svg">
<path d="M15.525 1.15H10.8215C10.58 0.483 9.9475 0 9.2 0C8.4525 0 7.82 0.483 7.5785 1.15H2.875C1.288 1.15 0 2.438 0 4.025V20.125C0 21.712 1.288 23 2.875 23H15.525C17.1465 23 18.4 21.1485 18.4 19.55V4.025C18.4 2.438 17.112 1.15 15.525 1.15ZM5.175 18.4H4.025C3.7076 18.4 3.45 18.1424 3.45 17.825C3.45 17.5076 3.7076 17.25 4.025 17.25H5.175C5.4924 17.25 5.75 17.5076 5.75 17.825C5.75 18.1424 5.4924 18.4 5.175 18.4ZM5.175 14.95H4.025C3.7076 14.95 3.45 14.6924 3.45 14.375C3.45 14.0576 3.7076 13.8 4.025 13.8H5.175C5.4924 13.8 5.75 14.0576 5.75 14.375C5.75 14.6924 5.4924 14.95 5.175 14.95ZM5.175 11.5H4.025C3.7076 11.5 3.45 11.2424 3.45 10.925C3.45 10.6076 3.7076 10.35 4.025 10.35H5.175C5.4924 10.35 5.75 10.6076 5.75 10.925C5.75 11.2424 5.4924 11.5 5.175 11.5ZM5.75 2.3H7.5785C7.82 2.967 8.4525 3.45 9.2 3.45C9.9475 3.45 10.58 2.967 10.8215 2.3H12.65V5.75H5.75V2.3ZM14.375 18.4H8.05C7.7326 18.4 7.475 18.1424 7.475 17.825C7.475 17.5076 7.7326 17.25 8.05 17.25H14.375C14.6924 17.25 14.95 17.5076 14.95 17.825C14.95 18.1424 14.6924 18.4 14.375 18.4ZM14.375 14.95H8.05C7.7326 14.95 7.475 14.6924 7.475 14.375C7.475 14.0576 7.7326 13.8 8.05 13.8H14.375C14.6924 13.8 14.95 14.0576 14.95 14.375C14.95 14.6924 14.6924 14.95 14.375 14.95ZM14.375 11.5H8.05C7.7326 11.5 7.475 11.2424 7.475 10.925C7.475 10.6076 7.7326 10.35 8.05 10.35H14.375C14.6924 10.35 14.95 10.6076 14.95 10.925C14.95 11.2424 14.6924 11.5 14.375 11.5Z" fill="#4384F4"/>
<circle cx="9.19986" cy="1.84" r="1.84" fill="#8FB7FC"/>
</svg>
