<svg width="19" height="20" viewBox="0 0 19 20" fill="none" xmlns="http://www.w3.org/2000/svg">
<path d="M6.54184 15.1528H3.1918C1.95025 15.1528 1.32948 15.1528 1.19886 15.0551C1.05213 14.9453 1.01627 14.8805 1.00038 14.6964C0.986242 14.5325 1.36671 13.9014 2.12766 12.6394C2.91333 11.3363 3.58046 9.43903 3.58046 6.75283C3.58046 5.26762 4.20412 3.84324 5.31424 2.79303C6.42437 1.74283 7.93002 1.15283 9.49998 1.15283C11.0699 1.15283 12.5756 1.74283 13.6857 2.79303C14.7959 3.84324 15.4195 5.26762 15.4195 6.75283C15.4195 9.43903 16.0866 11.3363 16.8723 12.6394C17.6332 13.9014 18.0137 14.5325 17.9996 14.6964C17.9837 14.8805 17.9478 14.9453 17.8011 15.0551C17.6705 15.1528 17.0497 15.1528 15.8082 15.1528H12.4597M6.54184 15.1528L6.54023 16.1528C6.54023 17.8097 7.8654 19.1528 9.49998 19.1528C11.1347 19.1528 12.4597 17.8097 12.4597 16.1528V15.1528M6.54184 15.1528H12.4597" stroke="white" stroke-width="1.5" stroke-linecap="round" stroke-linejoin="round"/>
</svg>
