<svg width="20" height="20" viewBox="0 0 20 20" fill="none" xmlns="http://www.w3.org/2000/svg">
<path d="M14 10C14 8.89583 13.6094 7.95312 12.8281 7.17187C12.0469 6.39062 11.1042 6 10 6C8.89583 6 7.95312 6.39062 7.17188 7.17187C6.39062 7.95312 6 8.89583 6 10C6 11.1042 6.39062 12.0469 7.17188 12.8281C7.95312 13.6094 8.89583 14 10 14C11.1042 14 12.0469 13.6094 12.8281 12.8281C13.6094 12.0469 14 11.1042 14 10ZM20 8.57812V11.4688C20 11.5729 19.9635 11.6745 19.8906 11.7734C19.8177 11.8724 19.7344 11.9271 19.6406 11.9375L17.2188 12.3125C17.1042 12.6771 16.9375 13.0729 16.7188 13.5C17.0729 14 17.5417 14.599 18.125 15.2969C18.1979 15.4115 18.2344 15.5156 18.2344 15.6094C18.2344 15.7344 18.1979 15.8333 18.125 15.9062C17.8854 16.2187 17.4557 16.6849 16.8359 17.3047C16.2161 17.9245 15.8073 18.2344 15.6094 18.2344C15.4948 18.2344 15.3854 18.1979 15.2812 18.125L13.4844 16.7188C13.099 16.9167 12.6979 17.0781 12.2812 17.2031C12.1667 18.3281 12.0469 19.1354 11.9219 19.625C11.849 19.875 11.6927 20 11.4531 20H8.54688C8.43229 20 8.32812 19.9609 8.23438 19.8828C8.14062 19.8047 8.08854 19.7135 8.07812 19.6094L7.71875 17.2187C7.36458 17.1146 6.97396 16.9531 6.54688 16.7344L4.70312 18.125C4.63021 18.1979 4.52604 18.2344 4.39062 18.2344C4.27604 18.2344 4.16667 18.1927 4.0625 18.1094C2.5625 16.724 1.8125 15.8906 1.8125 15.6094C1.8125 15.5156 1.84896 15.4167 1.92187 15.3125C2.02604 15.1667 2.23958 14.8906 2.5625 14.4844C2.88542 14.0781 3.13021 13.7604 3.29688 13.5312C3.05729 13.0729 2.875 12.6458 2.75 12.25L0.375 11.875C0.270833 11.8646 0.182292 11.8151 0.109375 11.7266C0.0364583 11.638 0 11.5365 0 11.4219V8.53125C0 8.42708 0.0364583 8.32552 0.109375 8.22656C0.182292 8.1276 0.265625 8.07292 0.359375 8.0625L2.78125 7.6875C2.89583 7.32292 3.0625 6.92708 3.28125 6.5C2.92708 6 2.45833 5.40104 1.875 4.70313C1.80208 4.58854 1.76562 4.48438 1.76562 4.39062C1.76562 4.26562 1.80208 4.16146 1.875 4.07812C2.10417 3.76562 2.53125 3.30208 3.15625 2.6875C3.78125 2.07292 4.19271 1.76563 4.39062 1.76563C4.50521 1.76563 4.61458 1.80208 4.71875 1.875L6.51562 3.28125C6.86979 3.09375 7.27083 2.92708 7.71875 2.78125C7.83333 1.65625 7.95312 0.854167 8.07812 0.375C8.15104 0.125 8.30729 0 8.54688 0H11.4531C11.5677 0 11.6719 0.0390625 11.7656 0.117187C11.8594 0.195312 11.9115 0.286458 11.9219 0.390625L12.2812 2.78125C12.6354 2.88542 13.026 3.04688 13.4531 3.26562L15.2969 1.875C15.3802 1.80208 15.4844 1.76563 15.6094 1.76563C15.724 1.76563 15.8333 1.80729 15.9375 1.89062C17.4375 3.27604 18.1875 4.10938 18.1875 4.39062C18.1875 4.47396 18.151 4.57292 18.0781 4.6875C17.9531 4.85417 17.7344 5.13542 17.4219 5.53125C17.1094 5.92708 16.875 6.23958 16.7188 6.46875C16.9583 6.96875 17.1354 7.39583 17.25 7.75L19.625 8.10937C19.7292 8.13021 19.8177 8.1849 19.8906 8.27344C19.9635 8.36198 20 8.46354 20 8.57812Z" fill="#4384F4"/>
</svg>
