<svg width="22" height="20" viewBox="0 0 22 20" fill="none" xmlns="http://www.w3.org/2000/svg">
<path fill-rule="evenodd" clip-rule="evenodd" d="M2.6743 12.4967V8.29421C2.6743 8.19289 2.63405 8.09571 2.5624 8.02407C2.49076 7.95242 2.39358 7.91217 2.29226 7.91217C1.99616 7.89928 1.70052 7.94644 1.42313 8.05082C1.14574 8.15519 0.892342 8.31461 0.678185 8.51949C0.464027 8.72437 0.293541 8.97046 0.176991 9.24296C0.0604401 9.51545 0.000235171 9.80872 0 10.1051V10.6858C0 11.2674 0.23104 11.8252 0.642293 12.2364C1.05355 12.6477 1.61133 12.8787 2.19293 12.8787C2.25064 12.8943 2.3112 12.8961 2.36974 12.884C2.42828 12.8719 2.48316 12.8463 2.52998 12.8091C2.57681 12.772 2.61425 12.7243 2.63932 12.6701C2.66438 12.6158 2.67637 12.5564 2.6743 12.4967ZM19.0284 7.91646C19.0851 7.90257 19.1442 7.90111 19.2015 7.91217C19.7831 7.91217 20.3409 8.14321 20.7521 8.55446C21.1634 8.96571 21.3944 9.52349 21.3944 10.1051V10.6858C21.3942 10.9822 21.334 11.2754 21.2174 11.5479C21.1009 11.8204 20.9304 12.0665 20.7162 12.2714C20.5021 12.4763 20.2487 12.6357 19.9713 12.7401C19.6939 12.8444 19.3982 12.8916 19.1021 12.8787C19.0008 12.8787 18.9036 12.8385 18.832 12.7668C18.7603 12.6952 18.7201 12.598 18.7201 12.4967V8.29421C18.7223 8.23589 18.7372 8.17874 18.7636 8.12668C18.79 8.07462 18.8273 8.02888 18.873 7.9926C18.9187 7.95631 18.9718 7.93034 19.0284 7.91646ZM4.9354 2.67516C6.1701 1.24617 7.8855 0.318982 9.75737 0.0688279C14.2044 -0.557722 18.4259 3.18248 18.3381 7.66002V12.4967C18.3381 12.598 18.2978 12.6952 18.2262 12.7668C18.1545 12.8385 18.0573 12.8787 17.956 12.8787C17.8547 12.8787 17.7575 12.8385 17.6859 12.7668C17.6142 12.6952 17.574 12.598 17.574 12.4967V7.66002C17.6542 3.62565 13.8529 0.26749 9.84906 0.832914C8.16322 1.05974 6.61889 1.89636 5.50805 3.1846C4.3972 4.47284 3.79683 6.12342 3.82043 7.8243V13.6352C3.82527 14.2956 3.96177 14.9484 4.22195 15.5554C4.48213 16.1624 4.86075 16.7114 5.33568 17.1703C5.8106 17.6292 6.37228 17.9888 6.98785 18.2281C7.60342 18.4673 8.26052 18.5813 8.9207 18.5635C8.99739 18.3662 9.13169 18.1966 9.30613 18.0767C9.48056 17.9567 9.68705 17.8921 9.89873 17.8911H10.3648C10.6445 17.8911 10.9127 18.0022 11.1104 18.2C11.3082 18.3977 11.4193 18.6659 11.4193 18.9456C11.4193 19.2252 11.3082 19.4934 11.1104 19.6912C10.9127 19.8889 10.6445 20 10.3648 20H9.89873C9.68681 20.0001 9.47985 19.9359 9.30521 19.8158C9.13058 19.6957 8.9965 19.5255 8.9207 19.3276C7.53147 19.3611 6.1774 18.8886 5.11055 17.9982C4.04369 17.1077 3.33674 15.86 3.12129 14.4871C3.03416 14.2152 3.04739 11.4053 3.05631 9.50982C3.0603 8.66244 3.06342 7.9978 3.05634 7.8243C3.03223 5.93593 3.7007 4.10415 4.9354 2.67516Z" fill="#4384F4"/>
<path fill-rule="evenodd" clip-rule="evenodd" d="M10.6666 14.7851H5.76121C5.68565 14.7848 5.61188 14.7621 5.54923 14.7198C5.48658 14.6776 5.43787 14.6177 5.40924 14.5478C5.38062 14.4779 5.37337 14.401 5.38842 14.327C5.40346 14.253 5.44013 14.185 5.49378 14.1318L6.87677 12.7679C4.82138 9.8071 7.06397 5.57024 10.6972 5.61991C16.7488 5.87206 16.7488 14.5368 10.6666 14.7889V14.7851ZM8.83135 9.86674C8.92091 9.77718 9.04237 9.72687 9.16903 9.72687C9.29568 9.72687 9.41715 9.77718 9.50671 9.86674C9.59627 9.9563 9.64658 10.0778 9.64658 10.2044C9.64658 10.3311 9.59627 10.4525 9.50671 10.5421C9.41715 10.6317 9.29568 10.682 9.16903 10.682C9.04237 10.682 8.92091 10.6317 8.83135 10.5421C8.74179 10.4525 8.69147 10.3311 8.69147 10.2044C8.69147 10.0778 8.74179 9.9563 8.83135 9.86674ZM11.0349 9.86674C11.1244 9.9563 11.1748 10.0778 11.1748 10.2044C11.1748 10.3311 11.1244 10.4525 11.0349 10.5421C10.9453 10.6317 10.8239 10.682 10.6972 10.682C10.5705 10.682 10.4491 10.6317 10.3595 10.5421C10.27 10.4525 10.2196 10.3311 10.2196 10.2044C10.2196 10.0778 10.27 9.9563 10.3595 9.86674C10.4491 9.77718 10.5705 9.72687 10.6972 9.72687C10.8239 9.72687 10.9453 9.77718 11.0349 9.86674ZM11.8877 9.86674C11.9772 9.77718 12.0987 9.72687 12.2254 9.72687C12.352 9.72687 12.4735 9.77718 12.5631 9.86674C12.6526 9.9563 12.7029 10.0778 12.7029 10.2044C12.7029 10.3311 12.6526 10.4525 12.5631 10.5421C12.4735 10.6317 12.352 10.682 12.2254 10.682C12.0987 10.682 11.9772 10.6317 11.8877 10.5421C11.7981 10.4525 11.7478 10.3311 11.7478 10.2044C11.7478 10.0778 11.7981 9.9563 11.8877 9.86674Z" fill="#8FB7FC"/>
</svg>
