<svg width="30" height="35" viewBox="0 0 30 35" fill="none" xmlns="http://www.w3.org/2000/svg">
<path d="M1.54517 0C0.78798 0 0.172363 0.600226 0.172363 1.33848V9.36938C0.172363 10.1076 0.78798 10.7079 1.54517 10.7079H7.03638C7.79356 10.7079 8.40918 10.1076 8.40918 9.36938V3.34621H5.66357C5.28391 3.34621 4.97717 3.04714 4.97717 2.67697V0H1.54517ZM5.66357 0V2.67697H8.40918L5.66357 0ZM2.57477 5.35393H6.00677C6.19554 5.35393 6.34998 5.50451 6.34998 5.68855C6.34998 5.87259 6.19554 6.02317 6.00677 6.02317H2.57477C2.38601 6.02317 2.23157 5.87259 2.23157 5.68855C2.23157 5.50451 2.38601 5.35393 2.57477 5.35393ZM2.57477 6.69241H6.00677C6.19554 6.69241 6.34998 6.84299 6.34998 7.02703C6.34998 7.21108 6.19554 7.36165 6.00677 7.36165H2.57477C2.38601 7.36165 2.23157 7.21108 2.23157 7.02703C2.23157 6.84299 2.38601 6.69241 2.57477 6.69241ZM2.57477 8.0309H6.00677C6.19554 8.0309 6.34998 8.18147 6.34998 8.36552C6.34998 8.54956 6.19554 8.70014 6.00677 8.70014H2.57477C2.38601 8.70014 2.23157 8.54956 2.23157 8.36552C2.23157 8.18147 2.38601 8.0309 2.57477 8.0309Z" fill="#4384F4"/>
<path fill-rule="evenodd" clip-rule="evenodd" d="M4.00537 13.3514V10.502H4.57567V13.3514C4.57567 13.4823 4.66472 13.5963 4.79165 13.628L6.98655 14.1768L6.02037 12.5665C5.93935 12.4314 5.98313 12.2563 6.11817 12.1752C6.25321 12.0942 6.42837 12.138 6.50939 12.273L7.82976 14.4737C7.91078 14.6087 7.86699 14.7838 7.73195 14.8649L5.53135 16.1852C5.39631 16.2663 5.22115 16.2225 5.14013 16.0874C5.0591 15.9524 5.10289 15.7772 5.23793 15.6962L6.84823 14.73L4.65334 14.1813C4.27252 14.0861 4.00537 13.7439 4.00537 13.3514Z" fill="#4384F4"/>
<path d="M12.2532 0C11.496 0 10.8804 0.600226 10.8804 1.33848V9.36938C10.8804 10.1076 11.496 10.7079 12.2532 10.7079H17.7444C18.5016 10.7079 19.1172 10.1076 19.1172 9.36938V3.34621H16.3716C15.9919 3.34621 15.6852 3.04714 15.6852 2.67697V0H12.2532ZM16.3716 0V2.67697H19.1172L16.3716 0ZM13.2828 5.35393H16.7148C16.9035 5.35393 17.058 5.50451 17.058 5.68855C17.058 5.87259 16.9035 6.02317 16.7148 6.02317H13.2828C13.094 6.02317 12.9396 5.87259 12.9396 5.68855C12.9396 5.50451 13.094 5.35393 13.2828 5.35393ZM13.2828 6.69241H16.7148C16.9035 6.69241 17.058 6.84299 17.058 7.02703C17.058 7.21108 16.9035 7.36165 16.7148 7.36165H13.2828C13.094 7.36165 12.9396 7.21108 12.9396 7.02703C12.9396 6.84299 13.094 6.69241 13.2828 6.69241ZM13.2828 8.0309H16.7148C16.9035 8.0309 17.058 8.18147 17.058 8.36552C17.058 8.54956 16.9035 8.70014 16.7148 8.70014H13.2828C13.094 8.70014 12.9396 8.54956 12.9396 8.36552C12.9396 8.18147 13.094 8.0309 13.2828 8.0309Z" fill="#8FB7FC"/>
<path fill-rule="evenodd" clip-rule="evenodd" d="M14.7136 14.138L14.7136 10.708L15.2839 10.708L15.2839 14.138L16.6118 12.8101C16.7231 12.6988 16.9037 12.6988 17.015 12.8101C17.1264 12.9215 17.1264 13.102 17.015 13.2134L15.2004 15.028C15.089 15.1394 14.9085 15.1394 14.7971 15.028L12.9824 13.2134C12.8711 13.102 12.8711 12.9215 12.9824 12.8101C13.0938 12.6988 13.2743 12.6988 13.3857 12.8101L14.7136 14.138Z" fill="#8FB7FC"/>
<path d="M22.9607 0C22.2035 0 21.5879 0.600226 21.5879 1.33848V9.36938C21.5879 10.1076 22.2035 10.7079 22.9607 10.7079H28.4519C29.2091 10.7079 29.8247 10.1076 29.8247 9.36938V3.34621H27.0791C26.6994 3.34621 26.3927 3.04714 26.3927 2.67697V0H22.9607ZM27.0791 0V2.67697H29.8247L27.0791 0ZM23.9903 5.35393H27.4223C27.6111 5.35393 27.7655 5.50451 27.7655 5.68855C27.7655 5.87259 27.6111 6.02317 27.4223 6.02317H23.9903C23.8015 6.02317 23.6471 5.87259 23.6471 5.68855C23.6471 5.50451 23.8015 5.35393 23.9903 5.35393ZM23.9903 6.69241H27.4223C27.6111 6.69241 27.7655 6.84299 27.7655 7.02703C27.7655 7.21108 27.6111 7.36165 27.4223 7.36165H23.9903C23.8015 7.36165 23.6471 7.21108 23.6471 7.02703C23.6471 6.84299 23.8015 6.69241 23.9903 6.69241ZM23.9903 8.0309H27.4223C27.6111 8.0309 27.7655 8.18147 27.7655 8.36552C27.7655 8.54956 27.6111 8.70014 27.4223 8.70014H23.9903C23.8015 8.70014 23.6471 8.54956 23.6471 8.36552C23.6471 8.18147 23.8015 8.0309 23.9903 8.0309Z" fill="#4384F4"/>
<path fill-rule="evenodd" clip-rule="evenodd" d="M25.9917 13.3514V10.502H25.4214V13.3514C25.4214 13.4823 25.3324 13.5963 25.2054 13.628L23.0105 14.1768L23.9767 12.5665C24.0577 12.4314 24.0139 12.2563 23.8789 12.1752C23.7439 12.0942 23.5687 12.138 23.4877 12.273L22.1673 14.4737C22.0863 14.6087 22.1301 14.7838 22.2651 14.8649L24.4657 16.1852C24.6008 16.2663 24.7759 16.2225 24.8569 16.0874C24.938 15.9524 24.8942 15.7772 24.7591 15.6962L23.1488 14.73L25.3437 14.1813C25.7245 14.0861 25.9917 13.7439 25.9917 13.3514Z" fill="#4384F4"/>
<path fill-rule="evenodd" clip-rule="evenodd" d="M6.5673 17.8875C5.97522 17.8875 5.44044 18.2274 5.18833 18.7622C4.93239 19.2932 5.01261 19.9273 5.38314 20.3818L12.3735 28.9231V31.9446C12.3735 32.3304 12.5531 32.6933 12.8625 32.9225L15.3072 34.756C15.6777 35.0349 16.1705 35.0769 16.5869 34.8706C17.0032 34.6644 17.263 34.2404 17.263 33.7782V28.9231L24.2495 20.3857C24.6239 19.9273 24.7003 19.297 24.4482 18.7622C24.1961 18.2274 23.6613 17.8875 23.0692 17.8875H6.5673ZM9.83321 18.9213C9.55707 18.9213 9.33321 19.1452 9.33321 19.4213C9.33321 19.6974 9.55707 19.9213 9.83321 19.9213H20.8082C21.2259 19.9213 21.4595 20.4032 21.2006 20.7311L16.727 26.3977C16.5559 26.6144 16.5929 26.9289 16.8096 27.1C17.0264 27.2711 17.3408 27.2341 17.5119 27.0174L21.9855 21.3508C22.7621 20.3671 22.0615 18.9213 20.8082 18.9213H9.83321Z" fill="#4384F4"/>
<path fill-rule="evenodd" clip-rule="evenodd" d="M25.5675 21.6787C25.8004 21.8753 25.8299 22.2235 25.6333 22.4565L20.3318 28.7197C20.1353 28.9527 19.7871 28.9821 19.5541 28.7856C19.3212 28.589 19.2917 28.2408 19.4883 28.0078L24.7897 21.7446C24.9863 21.5116 25.3345 21.4821 25.5675 21.6787Z" fill="#4384F4"/>
<path fill-rule="evenodd" clip-rule="evenodd" d="M10.2074 29.3586C10.5065 29.3586 10.749 29.6011 10.749 29.9003L10.749 32.0667C10.749 32.3658 10.5065 32.6083 10.2074 32.6083C9.90828 32.6083 9.66579 32.3658 9.66579 32.0667L9.66579 29.9003C9.66579 29.6011 9.90828 29.3586 10.2074 29.3586Z" fill="#4384F4"/>
</svg>
