<svg width="26" height="26" viewBox="0 0 26 26" fill="none" xmlns="http://www.w3.org/2000/svg">
<path d="M22.2626 9.28969C22.1543 9.15428 21.9376 9.1272 21.8022 9.26262L21.2605 9.75011C21.1251 9.85845 21.1251 10.048 21.2334 10.1834C21.8563 10.9689 22.2084 11.9439 22.2084 13.0001C22.2084 14.0564 21.8293 15.0585 21.2334 15.8168C21.1251 15.9522 21.1522 16.1418 21.2605 16.2501L21.8022 16.7376C21.9376 16.8459 22.1543 16.8459 22.2626 16.7105C23.0751 15.7084 23.5626 14.4084 23.5626 13.0001C23.5626 11.5918 23.0751 10.3189 22.2626 9.28969Z" fill="#4384F4"/>
<path d="M23.9416 7.74585C23.8332 7.61044 23.6166 7.61044 23.5082 7.71878L22.9666 8.20627C22.8311 8.31461 22.8311 8.5042 22.9395 8.63962C23.9145 9.83128 24.5103 11.3479 24.5103 13C24.5103 14.6521 23.9145 16.1688 22.9395 17.3604C22.8311 17.4959 22.8311 17.6854 22.9666 17.7938L23.5082 18.2813C23.6436 18.3896 23.8332 18.3896 23.9416 18.2542C25.1332 16.8188 25.8645 15.0042 25.8645 13C25.8645 10.9959 25.1332 9.15419 23.9416 7.74585Z" fill="#4384F4"/>
<path d="M4.73958 9.74997L4.19792 9.26248C4.0625 9.15414 3.84583 9.15414 3.7375 9.28955C2.925 10.2916 2.4375 11.5916 2.4375 13C2.4375 14.4083 2.925 15.6812 3.7375 16.7104C3.84583 16.8458 4.0625 16.8729 4.19792 16.7375L4.73958 16.25C4.875 16.1416 4.87499 15.9521 4.76666 15.8166C4.14374 15.0312 3.79167 14.0562 3.79167 13C3.79167 11.9437 4.17083 10.9416 4.76666 10.1833C4.90208 10.0479 4.875 9.85831 4.73958 9.74997Z" fill="#4384F4"/>
<path d="M1.51676 13C1.51676 11.3479 2.11261 9.83128 3.08761 8.63962C3.19594 8.5042 3.19593 8.31461 3.06052 8.20627L2.51885 7.71878C2.38343 7.61044 2.19386 7.61044 2.08552 7.74585C0.893857 9.18127 0.162598 10.9959 0.162598 13C0.162598 15.0042 0.893857 16.8459 2.08552 18.2542C2.19386 18.3896 2.41052 18.3896 2.51885 18.2813L3.06052 17.7938C3.19593 17.6854 3.19594 17.4959 3.08761 17.3604C2.08553 16.1688 1.51676 14.6521 1.51676 13Z" fill="#4384F4"/>
<path opacity="0.5" d="M18.0256 12.7645V11.0868C18.0256 8.30992 16.4872 6.22727 14.1538 5.67768V5.0124C14.1538 4.46281 13.7436 4 13.2564 4H12.7436C12.2308 4 11.8462 4.46281 11.8462 5.0124V5.67768C9.51282 6.22727 7.97437 8.33885 7.97437 11.0868V12.7645C7.97437 13.6033 7.71796 14.4132 7.28206 15.1364C7.10257 15.4256 7 15.7438 7 16.1198V16.2645C7 17.219 7.69231 18 8.53846 18H17.4615C18.3077 18 19 17.219 19 16.2645V16.1198C19 15.7438 18.8974 15.4256 18.7179 15.1364C18.282 14.4422 18.0256 13.6322 18.0256 12.7645Z" fill="#4384F4"/>
<path opacity="0.5" d="M13.0002 21.0168C13.9481 21.0168 14.7335 20.2314 14.7335 19.2834H11.2397C11.2668 20.2584 12.0522 21.0168 13.0002 21.0168Z" fill="#4384F4"/>
</svg>
