<svg width="16" height="16" viewBox="0 0 16 16" fill="none" xmlns="http://www.w3.org/2000/svg">
<path d="M10.0002 15.1666H6.00016C2.38016 15.1666 0.833496 13.6199 0.833496 9.99992V5.99992C0.833496 2.37992 2.38016 0.833252 6.00016 0.833252H10.0002C13.6202 0.833252 15.1668 2.37992 15.1668 5.99992V9.99992C15.1668 13.6199 13.6202 15.1666 10.0002 15.1666ZM6.00016 1.83325C2.92683 1.83325 1.8335 2.92659 1.8335 5.99992V9.99992C1.8335 13.0733 2.92683 14.1666 6.00016 14.1666H10.0002C13.0735 14.1666 14.1668 13.0733 14.1668 9.99992V5.99992C14.1668 2.92659 13.0735 1.83325 10.0002 1.83325H6.00016Z" fill="#292D32"/>
<path d="M9.17333 11.8334H6.81999C6.08666 11.8334 5.50666 11.4734 5.17999 10.8201L4.58666 9.62675C4.44666 9.34008 4.15999 9.16675 3.83999 9.16675H1.32666C1.05333 9.16675 0.82666 8.94008 0.82666 8.66675C0.82666 8.39341 1.05999 8.16675 1.33333 8.16675H3.83999C4.53999 8.16675 5.16666 8.55341 5.47999 9.18008L6.07333 10.3734C6.22666 10.6801 6.47333 10.8334 6.81999 10.8334H9.17333C9.49333 10.8334 9.77999 10.6601 9.91999 10.3734L10.5133 9.18008C10.8267 8.55341 11.4533 8.16675 12.1533 8.16675H14.6467C14.92 8.16675 15.1467 8.39341 15.1467 8.66675C15.1467 8.94008 14.92 9.16675 14.6467 9.16675H12.1533C11.8333 9.16675 11.5467 9.34008 11.4067 9.62675L10.8133 10.8201C10.5 11.4467 9.87333 11.8334 9.17333 11.8334Z" fill="#292D32"/>
<path d="M9.11339 5.16675H6.89339C6.61339 5.16675 6.38672 4.94008 6.38672 4.66675C6.38672 4.39341 6.61339 4.16675 6.88672 4.16675H9.10672C9.38005 4.16675 9.60672 4.39341 9.60672 4.66675C9.60672 4.94008 9.38672 5.16675 9.11339 5.16675Z" fill="#292D32"/>
<path d="M9.66683 7.16675H6.3335C6.06016 7.16675 5.8335 6.94008 5.8335 6.66675C5.8335 6.39341 6.06016 6.16675 6.3335 6.16675H9.66683C9.94016 6.16675 10.1668 6.39341 10.1668 6.66675C10.1668 6.94008 9.94016 7.16675 9.66683 7.16675Z" fill="#292D32"/>
</svg>
