<svg width="17" height="20" viewBox="0 0 17 20" fill="none" xmlns="http://www.w3.org/2000/svg">
<path d="M14.0172 10.5555C14.0078 8.95703 14.732 7.75234 16.1945 6.86406C15.3766 5.69219 14.1391 5.04766 12.5078 4.92344C10.9633 4.80156 9.27344 5.82344 8.65469 5.82344C8.00078 5.82344 6.50547 4.96563 5.32891 4.96563C2.90078 5.00313 0.320312 6.90156 0.320312 10.7641C0.320312 11.9055 0.528906 13.0844 0.946094 14.2984C1.50391 15.8969 3.51484 19.8133 5.6125 19.75C6.70937 19.7242 7.48516 18.9719 8.9125 18.9719C10.2977 18.9719 11.0148 19.75 12.2383 19.75C14.3547 19.7195 16.1734 16.1594 16.7031 14.5563C13.8648 13.218 14.0172 10.6375 14.0172 10.5555ZM13.7687 16.8133C13.4336 17.2797 13.0961 17.6477 12.7867 17.8844C12.5406 18.0719 12.3508 18.1516 12.2242 18.1563C12.0133 18.1539 11.8094 18.1023 11.4109 17.95C11.3828 17.9383 11.3523 17.9266 11.3125 17.9125L11.2094 17.8727C10.8016 17.7156 10.5578 17.6313 10.2461 17.5492C9.81016 17.4367 9.37656 17.3758 8.9125 17.3758C8.43906 17.3758 7.99375 17.4344 7.55078 17.5445C7.225 17.6266 6.95078 17.718 6.55 17.868C6.53359 17.875 6.36016 17.9406 6.31094 17.9594C6.22891 17.9898 6.16562 18.0133 6.10703 18.0344C5.86328 18.1188 5.70859 18.1539 5.57031 18.1563C5.55391 18.1563 5.53984 18.1539 5.52813 18.1516C5.50234 18.1469 5.46953 18.1375 5.43203 18.1211C5.32656 18.0789 5.2 18.0016 5.05703 17.8914C4.72891 17.6359 4.36797 17.2352 4 16.7219C3.35547 15.8172 2.74609 14.6172 2.45312 13.7758C2.09219 12.7258 1.91406 11.7203 1.91406 10.7617C1.91406 9.35078 2.33125 8.27734 3.04844 7.54844C3.66484 6.925 4.49453 6.57578 5.34063 6.55703C5.47891 6.55938 5.68047 6.59219 5.93594 6.6625C6.1375 6.71641 6.35781 6.78906 6.65547 6.89453C6.74453 6.92734 7.05156 7.0375 7.08906 7.05156C7.26953 7.11719 7.40547 7.16406 7.53906 7.20625C7.96562 7.34219 8.29609 7.41719 8.65469 7.41719C9.01797 7.41719 9.32969 7.33984 9.77266 7.1875C9.93906 7.13125 10.5437 6.90625 10.6516 6.86875C11.2516 6.65547 11.6945 6.54063 12.0766 6.5125C12.1891 6.50313 12.2898 6.50313 12.3859 6.51016C12.918 6.55234 13.3727 6.65781 13.7594 6.83359C12.8781 7.85078 12.4234 9.09531 12.4258 10.5461C12.4187 10.8906 12.4469 11.2891 12.5453 11.7602C12.6953 12.475 12.9812 13.1828 13.4336 13.8461C13.7781 14.35 14.2047 14.8047 14.7156 15.2008C14.4461 15.7563 14.1156 16.3305 13.7687 16.8133ZM11.5539 3.40703C12.7422 1.99609 12.6344 0.711719 12.5992 0.25C11.5492 0.310938 10.3352 0.964844 9.64375 1.76875C8.88203 2.63125 8.43437 3.69766 8.53047 4.9C9.66484 4.98672 10.7008 4.40313 11.5539 3.40703Z" fill="#151515" fill-opacity="0.9"/>
</svg>
