<svg width="16" height="14" viewBox="0 0 16 14" fill="none" xmlns="http://www.w3.org/2000/svg">
<path d="M15 1.75L1 1.75C0.585787 1.75 0.25 1.41421 0.25 1C0.25 0.585786 0.585787 0.25 1 0.25H15C15.4142 0.25 15.75 0.585788 15.75 1C15.75 1.41421 15.4142 1.75 15 1.75Z" fill="#4384F4"/>
<path d="M7 5.75L1 5.75C0.585787 5.75 0.25 5.41421 0.25 5C0.25 4.58579 0.585787 4.25 1 4.25L7 4.25C7.41421 4.25 7.75 4.58579 7.75 5C7.75 5.41422 7.41421 5.75 7 5.75Z" fill="#4384F4"/>
<path d="M15 8.25C15.4142 8.25 15.75 8.58579 15.75 9C15.75 9.41421 15.4142 9.75 15 9.75L1 9.75C0.585787 9.75 0.25 9.41421 0.25 9C0.25 8.58579 0.585787 8.25 1 8.25L15 8.25Z" fill="#4384F4"/>
<path d="M7 13.75L1 13.75C0.585786 13.75 0.25 13.4142 0.25 13C0.25 12.5858 0.585787 12.25 1 12.25L7 12.25C7.41421 12.25 7.75 12.5858 7.75 13C7.75 13.4142 7.41421 13.75 7 13.75Z" fill="#4384F4"/>
</svg>
