<svg width="16" height="16" viewBox="0 0 16 16" fill="none" xmlns="http://www.w3.org/2000/svg">
<path d="M14.6668 6.16675H1.3335C1.06016 6.16675 0.833496 5.94008 0.833496 5.66675C0.833496 5.39341 1.06016 5.16675 1.3335 5.16675H14.6668C14.9402 5.16675 15.1668 5.39341 15.1668 5.66675C15.1668 5.94008 14.9402 6.16675 14.6668 6.16675Z" fill="#252525"/>
<path d="M5.33333 11.5H4C3.72667 11.5 3.5 11.2733 3.5 11C3.5 10.7267 3.72667 10.5 4 10.5H5.33333C5.60667 10.5 5.83333 10.7267 5.83333 11C5.83333 11.2733 5.60667 11.5 5.33333 11.5Z" fill="#252525"/>
<path d="M9.66667 11.5H7C6.72667 11.5 6.5 11.2733 6.5 11C6.5 10.7267 6.72667 10.5 7 10.5H9.66667C9.94 10.5 10.1667 10.7267 10.1667 11C10.1667 11.2733 9.94 11.5 9.66667 11.5Z" fill="#252525"/>
<path d="M11.7068 14.1666H4.2935C1.64016 14.1666 0.833496 13.3666 0.833496 10.7399V5.25992C0.833496 2.63325 1.64016 1.83325 4.2935 1.83325H11.7002C14.3535 1.83325 15.1602 2.63325 15.1602 5.25992V10.7333C15.1668 13.3666 14.3602 14.1666 11.7068 14.1666ZM4.2935 2.83325C2.20016 2.83325 1.8335 3.19325 1.8335 5.25992V10.7333C1.8335 12.7999 2.20016 13.1599 4.2935 13.1599H11.7002C13.7935 13.1599 14.1602 12.7999 14.1602 10.7333V5.25992C14.1602 3.19325 13.7935 2.83325 11.7002 2.83325H4.2935Z" fill="#252525"/>
</svg>
