<svg width="32" height="32" viewBox="0 0 32 32" fill="none" xmlns="http://www.w3.org/2000/svg">
<path d="M16 0C7.16342 0 0 7.16342 0 16C0 24.8366 7.16342 32 16 32C24.8366 32 32 24.8366 32 16C32 7.16342 24.8366 0 16 0Z" fill="#4384F4"/>
<path d="M15.4156 25.3938V23.5215C12.8642 23.2778 10.7523 21.6713 10.6665 19.1009V19.0899L12.5318 19.0788V19.1009C12.7248 20.4747 13.5503 21.5716 15.4156 21.7821V16.4531L15.169 16.3866C12.4997 15.7218 11.0632 14.4921 11.0632 12.3206V12.2984C11.0632 9.92749 12.8749 8.30995 15.4156 8.06621V6.19385H16.702V8.06621C19.1784 8.29887 21.0973 9.96073 21.1831 12.3981V12.4092L19.3178 12.4203V12.3981C19.1784 10.9135 18.1493 9.99396 16.702 9.80562V14.8909L17.0343 14.9685C19.7895 15.6554 21.3332 16.8297 21.3332 19.1453V19.1674C21.3332 21.8264 19.232 23.3221 16.702 23.5326V25.3938H15.4156ZM12.9285 12.1876C12.9285 13.2623 13.5717 14.1043 15.4156 14.5696V9.80562C13.7861 10.0383 12.9285 11.1019 12.9285 12.1655V12.1876ZM16.7663 16.7854L16.702 16.7743V21.8042C18.696 21.638 19.4678 20.5966 19.4678 19.3225V19.3004C19.4678 18.0928 18.8889 17.3172 16.7663 16.7854Z" fill="white"/>
</svg>
