<svg width="33" height="32" viewBox="0 0 33 32" fill="none" xmlns="http://www.w3.org/2000/svg">
<path d="M15.7582 10.8707H26.8975C27.7945 10.8707 28.5249 10.1403 28.5249 9.24335C28.5249 8.34641 27.7945 7.61597 26.8975 7.61597H15.7582C14.8613 7.61597 14.1309 8.34641 14.1309 9.24335C14.1309 10.1457 14.8613 10.8707 15.7582 10.8707Z" fill="#4384F4"/>
<path d="M2.54593 24.0188C2.75539 24.2283 3.07765 24.2444 3.271 24.0564L10.1243 17.1709C10.3123 16.9829 10.2962 16.6553 10.0867 16.4458L9.00714 15.3716C8.79767 15.1622 8.47542 15.1461 8.28206 15.334L1.42878 22.2249C1.24079 22.4129 1.25691 22.7405 1.46637 22.95L2.54593 24.0188Z" fill="#4384F4"/>
<path d="M5.83281 28.8684H0.537091C0.241691 28.8684 0 29.1047 0 29.4055V30.9255C0 31.2209 0.241691 31.4626 0.537091 31.4626H8.15842C7.17017 30.8234 6.35916 29.9265 5.83281 28.8684Z" fill="#4384F4"/>
<path d="M16.2202 6.54185H17.6112L15.667 2.28809C14.8237 2.40088 14.3081 3.32467 14.7217 4.10346L16.2202 6.54185Z" fill="#4384F4"/>
<path d="M26.4355 6.54185L27.9286 4.10346C28.3422 3.32467 27.8319 2.40088 26.9887 2.28809L25.0444 6.54185H26.4355Z" fill="#4384F4"/>
<path d="M18.7925 6.54714H23.8627L26.097 1.66498C26.3816 0.848604 25.7801 0 24.9154 0H17.7398C16.8751 0 16.2736 0.853975 16.5582 1.66498L18.7925 6.54714Z" fill="#4384F4"/>
<path d="M27.3002 11.9128C27.1659 11.9343 27.0317 11.9451 26.892 11.9451H15.7581C15.6185 11.9451 15.4842 11.9343 15.3553 11.9128C12.9921 13.739 11.1875 16.5103 10.3335 19.3999C10.7954 19.2978 11.2734 19.2388 11.7675 19.2388C15.4359 19.2388 18.4167 22.225 18.4167 25.888C18.4167 28.031 17.3962 29.9323 15.8172 31.1515C17.4553 31.7208 19.3298 32.0001 21.3278 32.0001C27.6977 32.0001 32.8699 29.1588 32.8699 23.0091C32.8699 18.9649 30.6355 14.4963 27.3002 11.9128ZM21.3278 20.6513C22.6329 20.6513 23.691 21.7094 23.691 23.0145C23.691 24.1317 22.9068 25.0662 21.8648 25.3079V26.0974C21.8648 26.3928 21.6232 26.6345 21.3278 26.6345C21.0324 26.6345 20.7907 26.3928 20.7907 26.0974V25.3079C19.7487 25.0608 18.9646 24.1317 18.9646 23.0145C18.9646 22.7191 19.2062 22.4774 19.5016 22.4774C19.797 22.4774 20.0387 22.7191 20.0387 23.0145C20.0387 23.7235 20.6188 24.3035 21.3278 24.3035C22.0367 24.3035 22.6168 23.7235 22.6168 23.0145C22.6168 22.3056 22.0367 21.7255 21.3278 21.7255C20.0226 21.7255 18.9646 20.6674 18.9646 19.3623C18.9646 18.2451 19.7487 17.3106 20.7907 17.0689V16.2794C20.7907 15.984 21.0324 15.7423 21.3278 15.7423C21.6232 15.7423 21.8648 15.984 21.8648 16.2794V17.0689C22.9068 17.316 23.691 18.2451 23.691 19.3623C23.691 19.6577 23.4493 19.8994 23.1539 19.8994C22.8585 19.8994 22.6168 19.6577 22.6168 19.3623C22.6168 18.6533 22.0367 18.0733 21.3278 18.0733C20.6188 18.0733 20.0387 18.6533 20.0387 19.3623C20.0387 20.0713 20.6134 20.6513 21.3278 20.6513Z" fill="#4384F4"/>
<path d="M11.7679 20.3184C8.69035 20.3184 6.19287 22.8158 6.19287 25.8934C6.19287 28.9709 8.69035 31.4684 11.7679 31.4684C14.8454 31.4684 17.3429 28.9709 17.3429 25.8934C17.3429 22.8105 14.8508 20.3184 11.7679 20.3184ZM11.7679 25.3563C12.7776 25.3563 13.594 26.178 13.594 27.1824C13.594 28.0041 13.0462 28.6862 12.305 28.9172V29.363C12.305 29.6584 12.0633 29.9001 11.7679 29.9001C11.4725 29.9001 11.2308 29.6584 11.2308 29.363V28.9172C10.4842 28.6862 9.94177 27.9988 9.94177 27.1824C9.94177 26.887 10.1835 26.6453 10.4789 26.6453C10.7743 26.6453 11.016 26.887 11.016 27.1824C11.016 27.5959 11.3543 27.9343 11.7679 27.9343C12.1814 27.9343 12.5198 27.5959 12.5198 27.1824C12.5198 26.7688 12.1814 26.4305 11.7679 26.4305C10.7581 26.4305 9.94177 25.6087 9.94177 24.6043C9.94177 23.7826 10.4896 23.1005 11.2308 22.8695V22.4238C11.2308 22.1284 11.4725 21.8867 11.7679 21.8867C12.0633 21.8867 12.305 22.1284 12.305 22.4238V22.8695C13.0515 23.1005 13.594 23.788 13.594 24.6043C13.594 24.8997 13.3523 25.1414 13.0569 25.1414C12.7615 25.1414 12.5198 24.8997 12.5198 24.6043C12.5198 24.1908 12.1814 23.8524 11.7679 23.8524C11.3543 23.8524 11.016 24.1908 11.016 24.6043C11.016 25.0179 11.3543 25.3563 11.7679 25.3563Z" fill="#8FB7FC"/>
<path d="M0.537091 27.8803H5.42462C5.2259 27.2519 5.11848 26.5805 5.11848 25.8877C5.11848 25.6836 5.12922 25.4849 5.15071 25.2861H0.537091C0.241691 25.2861 0 25.5278 0 25.8232V27.3432C0 27.644 0.241691 27.8803 0.537091 27.8803Z" fill="#4384F4"/>
</svg>
