<svg width="11" height="12" viewBox="0 0 11 12" fill="none" xmlns="http://www.w3.org/2000/svg">
<path d="M10.6769 9.83273C11.1066 10.2873 11.1066 11.0236 10.6769 11.4782C10.4637 11.7055 10.1819 11.8182 9.9 11.8182C9.61812 11.8182 9.33694 11.7045 9.12244 11.4773L5.5 7.64727L1.87791 11.4764C1.66306 11.7055 1.38153 11.8182 1.1 11.8182C0.818469 11.8182 0.537281 11.7055 0.322266 11.4764C-0.107422 11.0218 -0.107422 10.2855 0.322266 9.83091L3.94539 5.99818L0.322266 2.16727C-0.107422 1.71273 -0.107422 0.976363 0.322266 0.521817C0.751953 0.0672718 1.44805 0.0672718 1.87773 0.521817L5.5 4.35636L9.12312 0.523636C9.55281 0.0690901 10.2489 0.0690901 10.6786 0.523636C11.1083 0.978181 11.1083 1.71454 10.6786 2.16909L7.05547 6.00182L10.6769 9.83273Z" fill="#828282"/>
</svg>
