<svg width="37" height="30" viewBox="0 0 37 30" fill="none" xmlns="http://www.w3.org/2000/svg">
<path opacity="0.4" d="M27.75 1.875C29.3446 1.875 30.8739 2.51702 32.0015 3.65982C33.1291 4.80262 33.7625 6.35259 33.7625 7.96875C33.7625 9.58491 33.1291 11.1349 32.0015 12.2777C30.8739 13.4205 29.3446 14.0625 27.75 14.0625C26.1554 14.0625 24.6261 13.4205 23.4985 12.2777C22.371 11.1349 21.7375 9.58491 21.7375 7.96875C21.7375 6.35259 22.371 4.80262 23.4985 3.65982C24.6261 2.51702 26.1554 1.875 27.75 1.875ZM25.9 28.125C23.6858 28.125 21.6971 27.1406 20.3442 25.5762C20.35 25.4883 20.35 25.4004 20.35 25.3125V24.375C20.35 22.3301 19.7025 20.4434 18.6099 18.9023C18.9452 17.7305 20.0089 16.875 21.275 16.875H34.225C35.7571 16.875 37 18.1348 37 19.6875V20.625C37 24.7676 33.6874 28.125 29.6 28.125H25.9Z" fill="#4384F4"/>
<path d="M9.25 14.0625C10.8446 14.0625 12.3739 13.4205 13.5015 12.2777C14.629 11.1349 15.2625 9.58491 15.2625 7.96875C15.2625 6.35259 14.629 4.80262 13.5015 3.65982C12.3739 2.51702 10.8446 1.875 9.25 1.875C7.65539 1.875 6.12608 2.51702 4.99852 3.65982C3.87096 4.80262 3.2375 6.35259 3.2375 7.96875C3.2375 9.58491 3.87096 11.1349 4.99852 12.2777C6.12608 13.4205 7.65539 14.0625 9.25 14.0625ZM7.4 16.875C3.31266 16.875 0 20.2324 0 24.375V25.3125C0 26.8652 1.24297 28.125 2.775 28.125H15.725C17.257 28.125 18.5 26.8652 18.5 25.3125V24.375C18.5 20.2324 15.1873 16.875 11.1 16.875H7.4Z" fill="#4384F4"/>
</svg>
