<svg width="35" height="33" viewBox="0 0 35 33" fill="none" xmlns="http://www.w3.org/2000/svg">
<path d="M25.473 13.0188H23.7257V20.2459H25.473V13.0188Z" fill="#8FB7FC"/>
<path d="M20.5491 16.2638H18.8014V20.2459H20.5491V16.2638Z" fill="#8FB7FC"/>
<path d="M30.3973 9.93265H28.6496V20.2459H30.3973V9.93265Z" fill="#8FB7FC"/>
<path d="M7.47499 2.4298C6.85463 2.56822 6.28372 2.87309 5.82361 3.31162C5.36351 3.75016 5.03162 4.3058 4.86361 4.91881C4.69559 5.53182 4.69781 6.17903 4.87002 6.79087C5.04224 7.40271 5.37793 7.95606 5.84103 8.39143C6.30412 8.82681 6.87711 9.12775 7.49841 9.26191C8.11971 9.39608 8.76582 9.35839 9.36731 9.1529C9.96879 8.94741 10.5029 8.58189 10.9122 8.09563C11.3216 7.60937 11.5907 7.02075 11.6906 6.39303H7.95841C7.83027 6.39303 7.70737 6.34215 7.61673 6.25158C7.52608 6.16101 7.4751 6.03816 7.47499 5.91002V2.4298Z" fill="#8FB7FC"/>
<path d="M8.64667 2.37081H8.64421L8.6098 2.36712H8.60611H8.60243L8.5676 2.36425H8.56473H8.56105L8.53319 2.36221H8.52582H8.52008L8.49099 2.36016H8.47911H8.44798H8.44265V5.43274H11.7098C11.7098 5.42523 11.7087 5.41788 11.7075 5.41048L11.7065 5.40338L11.7057 5.39751V5.39505L11.7 5.35777V5.3549V5.35204V5.3463L11.6951 5.31721L11.6902 5.28567V5.28321V5.27584L11.6857 5.24757V5.24429V5.24101L11.6812 5.21398L11.6787 5.2013C11.6772 5.19349 11.6756 5.18562 11.6738 5.17792L11.6676 5.14638V5.14228V5.13819L11.6607 5.10664V5.10295L11.6537 5.07141V5.06895L11.6467 5.0415V5.0374V5.03372V5.02962L11.639 4.99849V4.9948L11.6316 4.96735V4.96366V4.96079V4.95834L11.625 4.93662V4.91532V4.91286L11.6172 4.88705V4.88377V4.88132V4.87845V4.87599L11.6095 4.84895V4.84649V4.84117V4.83871L11.6033 4.81741V4.81495V4.81003V4.80717V4.80471V4.80143L11.5976 4.7834V4.78054V4.77521L11.5898 4.75063L11.5787 4.71827V4.71458L11.5685 4.68508L11.566 4.67935V4.66132L11.5611 4.6478V4.64575V4.64166V4.6392L11.5542 4.61994V4.61748V4.61298V4.61093L11.4952 4.57119V4.56668L11.4886 4.54825V4.54456L11.4788 4.5208V4.51834L11.4669 4.48925V4.4868L11.4648 4.4827L11.4558 4.46345V4.46099L11.4497 4.44665V4.44337V4.44009V4.43682L11.4415 4.41838V4.4151V4.36226V4.35898L11.4366 4.34914V4.34464L11.4251 4.32006L11.4198 4.30982L11.4075 4.28523L11.4034 4.27622L11.3903 4.25205L11.3854 4.24099L11.3731 4.21723L11.3702 4.21108L11.3559 4.18527L11.3444 4.16479L11.3313 4.14185L11.3256 4.13038L11.2616 4.08777L11.2543 4.07589L11.2436 4.05786L11.233 4.04025L11.2227 4.02345L11.2145 4.00952L11.2027 3.99068L11.1936 3.97675L11.1818 3.95831L11.165 3.93291L11.1551 3.91775L11.1428 3.89973L11.1326 3.88416L11.1224 3.86859L11.1117 3.85261L11.0994 3.83541L11.0896 3.82148L11.0769 3.80468L11.0662 3.78993L11.0445 3.76003L11.0388 3.75224L11.0208 3.72848L11.0089 3.71291L10.9958 3.69653L10.9851 3.6826L10.9732 3.66826L10.9609 3.65228L10.9499 3.63958L10.9364 3.6236L10.92 3.60353L10.9134 3.59575L10.8933 3.57199L10.8806 3.55519L10.8749 3.54904L10.8552 3.5261L10.845 3.51504L10.8303 3.49824L10.8176 3.4839L10.8036 3.46875L10.7934 3.45728L10.7758 3.43843L10.7672 3.42983L10.7471 3.40893L10.7397 3.40074V3.39869L10.7229 3.38148L10.7112 3.37583L10.7168 3.38804L10.5036 3.27516L8.6606 2.38146L8.64667 2.37081Z" fill="#8FB7FC"/>
<path fill-rule="evenodd" clip-rule="evenodd" d="M7.13373 29.9557H9.83064L10.4165 29.0417L11.9962 26.5795H2.05781C1.51262 26.5781 0.990148 26.361 0.604561 25.9755C0.218974 25.5901 0.00162208 25.0677 0 24.5225V23.8261H34.2155V24.5225C34.2138 25.0676 33.9964 25.5899 33.6108 25.9753C33.2252 26.3606 32.7028 26.5777 32.1577 26.5791H22.2193L23.799 29.0413L24.3853 29.9553H27.0818C27.2011 29.9558 27.3154 30.0035 27.3998 30.0879C27.4842 30.1723 27.5319 30.2866 27.5324 30.4059V32.5494C27.5324 32.6689 27.485 32.7835 27.4004 32.868C27.3159 32.9525 27.2013 33 27.0818 33H7.13373C7.01441 32.9994 6.90016 32.9517 6.81579 32.8673C6.73141 32.7829 6.68373 32.6687 6.68308 32.5494V30.4071C6.68383 30.2879 6.73155 30.1737 6.8159 30.0893C6.90025 30.005 7.01444 29.9564 7.13373 29.9557ZM0 22.8613V2.05781C0.00151353 1.51251 0.218804 0.989979 0.604392 0.604392C0.989979 0.218804 1.51251 0.00151353 2.05781 0H32.1577C32.703 0.00151353 33.2255 0.218804 33.6111 0.604392C33.9967 0.989979 34.214 1.51251 34.2155 2.05781V22.8613H0ZM24.221 8.23822C24.3491 8.23822 24.472 8.18733 24.5625 8.09675C24.6531 8.00617 24.704 7.88331 24.704 7.75521C24.704 7.62711 24.6531 7.50425 24.5625 7.41367C24.472 7.32309 24.3491 7.2722 24.221 7.2722H18.2487C18.1206 7.2722 17.9978 7.32309 17.9072 7.41367C17.8166 7.50425 17.7657 7.62711 17.7657 7.75521C17.7657 7.88331 17.8166 8.00617 17.9072 8.09675C17.9978 8.18733 18.1206 8.23822 18.2487 8.23822H24.221ZM18.2487 6.32666H24.221C24.2856 6.32854 24.3499 6.31745 24.4101 6.29403C24.4703 6.27061 24.5252 6.23535 24.5716 6.19033C24.6179 6.14531 24.6548 6.09145 24.68 6.03194C24.7051 5.97243 24.7181 5.90847 24.7181 5.84386C24.7181 5.77924 24.7051 5.71529 24.68 5.65577C24.6548 5.59626 24.6179 5.5424 24.5716 5.49738C24.5252 5.45236 24.4703 5.4171 24.4101 5.39368C24.3499 5.37027 24.2856 5.35917 24.221 5.36105H18.2487C18.1231 5.36471 18.0039 5.41718 17.9163 5.50733C17.8287 5.59747 17.7798 5.71819 17.7798 5.84386C17.7798 5.96952 17.8287 6.09024 17.9163 6.18039C18.0039 6.27053 18.1231 6.323 18.2487 6.32666ZM18.2487 4.41592H21.2349C21.363 4.41592 21.4858 4.36503 21.5764 4.27445C21.667 4.18387 21.7179 4.06101 21.7179 3.93291C21.7179 3.80481 21.667 3.68195 21.5764 3.59137C21.4858 3.50079 21.363 3.4499 21.2349 3.4499H18.2487C18.1206 3.4499 17.9978 3.50079 17.9072 3.59137C17.8166 3.68195 17.7657 3.80481 17.7657 3.93291C17.7657 4.06101 17.8166 4.18387 17.9072 4.27445C17.9978 4.36503 18.1206 4.41592 18.2487 4.41592ZM4.40773 21.0505H12.9491C13.0772 21.0505 13.2001 20.9996 13.2907 20.909C13.3812 20.8184 13.4321 20.6956 13.4321 20.5675C13.4321 20.4394 13.3812 20.3165 13.2907 20.2259C13.2001 20.1354 13.0772 20.0845 12.9491 20.0845H4.40773C4.27963 20.0845 4.15677 20.1354 4.06619 20.2259C3.97561 20.3165 3.92472 20.4394 3.92472 20.5675C3.92472 20.6956 3.97561 20.8184 4.06619 20.909C4.15677 20.9996 4.27963 21.0505 4.40773 21.0505ZM4.40773 18.7948H12.9491C13.0747 18.7912 13.194 18.7387 13.2815 18.6485C13.3691 18.5584 13.4181 18.4377 13.4181 18.312C13.4181 18.1863 13.3691 18.0656 13.2815 17.9755C13.194 17.8853 13.0747 17.8329 12.9491 17.8292H4.40773C4.34314 17.8273 4.27883 17.8384 4.21861 17.8618C4.15839 17.8852 4.10348 17.9205 4.05713 17.9655C4.01078 18.0105 3.97394 18.0644 3.94878 18.1239C3.92362 18.1834 3.91065 18.2474 3.91065 18.312C3.91065 18.3766 3.92362 18.4406 3.94878 18.5001C3.97394 18.5596 4.01078 18.6135 4.05713 18.6585C4.10348 18.7035 4.15839 18.7388 4.21861 18.7622C4.27883 18.7856 4.34314 18.7967 4.40773 18.7948ZM4.40773 16.5387H8.6774C8.74198 16.5406 8.80629 16.5295 8.86651 16.5061C8.92673 16.4827 8.98164 16.4474 9.02799 16.4024C9.07434 16.3574 9.11119 16.3035 9.13635 16.244C9.16151 16.1845 9.17447 16.1205 9.17447 16.0559C9.17447 15.9913 9.16151 15.9273 9.13635 15.8678C9.11119 15.8083 9.07434 15.7544 9.02799 15.7094C8.98164 15.6644 8.92673 15.6292 8.86651 15.6057C8.80629 15.5823 8.74198 15.5712 8.6774 15.5731H4.40773C4.34314 15.5712 4.27883 15.5823 4.21861 15.6057C4.15839 15.6292 4.10348 15.6644 4.05713 15.7094C4.01078 15.7544 3.97394 15.8083 3.94878 15.8678C3.92362 15.9273 3.91065 15.9913 3.91065 16.0559C3.91065 16.1205 3.92362 16.1845 3.94878 16.244C3.97394 16.3035 4.01078 16.3574 4.05713 16.4024C4.10348 16.4474 4.15839 16.4827 4.21861 16.5061C4.27883 16.5295 4.34314 16.5406 4.40773 16.5387ZM12.5697 14.7279V13.9299H19.3749C19.4395 13.9318 19.5038 13.9207 19.564 13.8973C19.6243 13.8738 19.6792 13.8386 19.7255 13.7936C19.7719 13.7485 19.8087 13.6947 19.8339 13.6352C19.859 13.5756 19.872 13.5117 19.872 13.4471C19.872 13.3825 19.859 13.3185 19.8339 13.259C19.8087 13.1995 19.7719 13.1456 19.7255 13.1006C19.6792 13.0556 19.6243 13.0203 19.564 12.9969C19.5038 12.9735 19.4395 12.9624 19.3749 12.9643H12.0826C12.0192 12.9643 11.9564 12.9769 11.8978 13.0012C11.8393 13.0255 11.786 13.0611 11.7412 13.106C11.6964 13.1509 11.6609 13.2042 11.6367 13.2628C11.6124 13.3214 11.6 13.3843 11.6 13.4477V14.7279C11.5982 14.7925 11.6093 14.8568 11.6327 14.917C11.6561 14.9773 11.6914 15.0322 11.7364 15.0785C11.7814 15.1249 11.8352 15.1617 11.8948 15.1869C11.9543 15.212 12.0182 15.225 12.0828 15.225C12.1475 15.225 12.2114 15.212 12.2709 15.1869C12.3304 15.1617 12.3843 15.1249 12.4293 15.0785C12.4743 15.0322 12.5096 14.9773 12.533 14.917C12.5564 14.8568 12.5675 14.7925 12.5657 14.7279H12.5697ZM28.1666 8.96704C28.1033 8.96704 28.0405 8.97953 27.982 9.00378C27.9235 9.02804 27.8703 9.0636 27.8255 9.10841C27.7807 9.15323 27.7452 9.20644 27.721 9.26499C27.6968 9.32354 27.6844 9.38628 27.6844 9.44964V20.7289C27.6843 20.8569 27.735 20.9798 27.8255 21.0704C27.9159 21.1611 28.0386 21.2121 28.1666 21.2123H30.8803C30.9439 21.2125 31.0069 21.2001 31.0656 21.1759C31.1244 21.1516 31.1778 21.1161 31.2228 21.0711C31.2678 21.0262 31.3035 20.9729 31.3278 20.9142C31.3521 20.8554 31.3646 20.7925 31.3646 20.7289V9.44964C31.3646 9.38625 31.3522 9.32347 31.3279 9.26489C31.3037 9.20632 31.2682 9.15309 31.2233 9.10827C31.1785 9.06344 31.1253 9.0279 31.0667 9.00366C31.0081 8.97943 30.9454 8.96699 30.882 8.96704H28.1666ZM23.2427 12.0527C23.1149 12.0531 22.9925 12.104 22.9022 12.1945C22.812 12.285 22.7613 12.4076 22.7613 12.5353V20.7289C22.7613 20.8568 22.812 20.9794 22.9022 21.07C22.9924 21.1606 23.1148 21.2118 23.2427 21.2123H25.9568C26.0848 21.2121 26.2075 21.1611 26.298 21.0706C26.3884 20.98 26.4393 20.8573 26.4394 20.7293V12.5357C26.4395 12.4723 26.427 12.4095 26.4028 12.3509C26.3786 12.2923 26.343 12.2391 26.2982 12.1942C26.2534 12.1494 26.2002 12.1138 26.1416 12.0895C26.083 12.0652 26.0202 12.0527 25.9568 12.0527H23.2427ZM18.3188 15.2978C18.1907 15.2978 18.0678 15.3487 17.9772 15.4393C17.8866 15.5299 17.8358 15.6527 17.8358 15.7808V20.7289C17.8357 20.7924 17.8482 20.8552 17.8724 20.9139C17.8967 20.9725 17.9322 21.0258 17.9771 21.0707C18.0219 21.1156 18.0752 21.1512 18.1338 21.1755C18.1925 21.1998 18.2553 21.2123 18.3188 21.2123H21.0321C21.1601 21.2122 21.2829 21.1613 21.3735 21.0707C21.464 20.9802 21.515 20.8574 21.5151 20.7293V15.7808C21.5151 15.7174 21.5026 15.6546 21.4783 15.596C21.454 15.5374 21.4185 15.4841 21.3736 15.4393C21.3288 15.3944 21.2755 15.3588 21.2169 15.3346C21.1583 15.3103 21.0955 15.2978 21.0321 15.2978H18.3188ZM8.23617 1.38103H8.22306C7.34266 1.38357 6.48267 1.64645 5.75131 2.13659C5.01995 2.62673 4.44989 3.32223 4.11287 4.13558C3.77584 4.94893 3.68691 5.84379 3.85725 6.70756C4.02759 7.57134 4.44961 8.36543 5.07019 8.98993C5.69077 9.61444 6.4822 10.0414 7.34488 10.2172C8.20757 10.393 9.10297 10.3097 9.91843 9.9778C10.7339 9.6459 11.433 9.08024 11.9277 8.35198C12.4224 7.62372 12.6907 6.7654 12.6988 5.88503V5.87929V5.84119V5.78794V5.78343V5.73181V5.72648V5.67568V5.67077C12.6988 5.65397 12.6988 5.63676 12.6968 5.61997V5.61177C12.6968 5.59416 12.6968 5.57654 12.6939 5.55933V5.55442L12.6902 5.50485V5.50034C12.6902 5.48985 12.689 5.47935 12.6877 5.46876C12.687 5.46199 12.6862 5.45518 12.6857 5.44831V5.43971C12.6857 5.42959 12.6843 5.41947 12.6829 5.40934C12.6819 5.40226 12.6809 5.39517 12.6804 5.38809V5.38645C12.6804 5.37428 12.6786 5.36253 12.6769 5.35075L12.6759 5.34405L12.675 5.33729V5.33237C12.675 5.31517 12.673 5.29796 12.6689 5.28075V5.27174C12.6689 5.25985 12.6667 5.24753 12.6646 5.2354L12.6638 5.23067L12.6623 5.22176V5.21807L12.6546 5.16768V5.1644L12.6468 5.11524V5.11197V5.10992L12.6449 5.10008L12.6424 5.08614C12.6409 5.07757 12.6395 5.06905 12.6378 5.06076V5.0583L12.6366 5.05195C12.6341 5.038 12.6316 5.02383 12.6287 5.00996V5.0075C12.6255 4.99029 12.6222 4.97349 12.6185 4.95629L12.6087 4.90795V4.90549C12.6066 4.89599 12.6045 4.88663 12.6023 4.87731C12.6006 4.86975 12.5989 4.86222 12.5972 4.85469L12.5865 4.80635C12.5824 4.78996 12.5784 4.77357 12.5738 4.75677C12.5697 4.73998 12.5657 4.724 12.5611 4.70802L12.5476 4.65968L12.5329 4.61011L12.5189 4.56382L12.5163 4.55577C12.5119 4.54216 12.5075 4.52869 12.5034 4.51466V4.5122C12.5015 4.50622 12.4995 4.50018 12.4974 4.49407C12.4946 4.4855 12.4917 4.4768 12.489 4.46795V4.46549C12.4837 4.45075 12.4784 4.43518 12.4735 4.41961V4.41756C12.4681 4.40199 12.4628 4.38643 12.4567 4.37127V4.3684C12.4509 4.35283 12.4452 4.33726 12.4395 4.32252L12.4385 4.31969L12.436 4.31311L12.4314 4.30112C12.4283 4.29303 12.4251 4.28489 12.4223 4.27663L12.4042 4.23198L12.4006 4.22261L12.3948 4.20822C12.3916 4.20033 12.3885 4.19244 12.3854 4.18445L12.367 4.14103L12.3465 4.09596C12.3418 4.08516 12.3367 4.07456 12.3317 4.06402L12.3256 4.05131C12.319 4.03697 12.3121 4.02263 12.3051 4.00829L12.2826 3.96282V3.96036L12.277 3.94945C12.2714 3.93861 12.2659 3.92766 12.26 3.91693L12.2383 3.87597C12.2305 3.86163 12.2228 3.84729 12.2154 3.83254C12.2118 3.8262 12.2082 3.81969 12.2047 3.81321C12.2002 3.80503 12.1958 3.79688 12.1912 3.78911C12.1883 3.78426 12.1855 3.77945 12.1828 3.77472C12.1775 3.76548 12.1723 3.75655 12.1666 3.74815V3.74569C12.1619 3.73694 12.157 3.72847 12.1522 3.72003C12.1486 3.71384 12.1451 3.70768 12.1416 3.70144C12.1339 3.68751 12.1257 3.67399 12.1175 3.66048L12.0921 3.61951C12.0878 3.61294 12.0837 3.60637 12.0797 3.59988C12.0752 3.59262 12.0708 3.58547 12.0663 3.57854V3.57608L12.0515 3.55269L12.0404 3.53511L12.0134 3.49415L11.9855 3.45318L11.9794 3.44447C11.9723 3.43442 11.965 3.42409 11.9577 3.41426C11.9502 3.40371 11.9422 3.39288 11.9342 3.38223L11.9294 3.37575C11.9196 3.36305 11.9102 3.34953 11.9003 3.33478C11.8913 3.32249 11.8819 3.30979 11.8725 3.29791L11.8442 3.26063C11.8371 3.2521 11.8302 3.24338 11.8233 3.23473L11.8143 3.22335L11.7836 3.18607L11.7533 3.1492L11.7225 3.11274L11.7142 3.10292C11.7067 3.09405 11.699 3.08504 11.691 3.07668C11.6825 3.0666 11.674 3.05725 11.6653 3.04769L11.6574 3.03899L11.6246 3.00335L11.5931 2.96976L11.5822 2.95836C11.5747 2.95054 11.5672 2.94264 11.5595 2.93494H11.5574C11.5466 2.92368 11.5355 2.91221 11.5242 2.90134C11.1104 2.48643 10.6187 2.15736 10.0774 1.93302C9.53605 1.70868 8.95572 1.59348 8.36973 1.59406L8.23617 1.38103Z" fill="#4384F4"/>
<path d="M10.709 3.37083L10.6873 3.34912H10.6844L10.6688 3.33396L10.6553 3.32126L10.6418 3.30815L10.625 3.29218L10.6123 3.28111L10.5963 3.26677L10.5812 3.25285L10.5668 3.24015L10.5513 3.22663L10.5369 3.21393L10.5222 3.20123L10.5042 3.18566L10.4915 3.17501L10.4767 3.16272L10.4611 3.15002L10.4435 3.13609L10.4296 3.12462L10.412 3.11069L10.3972 3.09922L10.3829 3.08775L10.3645 3.07341L10.3481 3.05456L10.3284 3.04022L10.2985 3.0181L10.2719 2.99844L10.2497 2.98246L10.2411 2.97631L10.2215 2.96279L10.2067 2.95255L10.1899 2.94149L10.174 2.93084L10.1539 2.91732L10.1416 2.90954L10.1195 2.8952L10.1072 2.88741L10.0879 2.87553L10.0613 2.85874L10.0424 2.84685L10.0273 2.83743L10.0076 2.82596L9.99369 2.81777L9.9728 2.80548L9.96092 2.79851L9.9388 2.78581L9.92896 2.78008H9.92569H9.92241H9.91954L9.91339 2.77721H9.91012H9.90725H9.90397L9.89783 2.77434L9.89496 2.77188H9.89209H9.88841L9.87611 2.76492H9.87366H9.87038H9.86751H9.86505H9.86178L9.84662 2.75713H9.84334H9.84006H9.8372L9.82695 2.75181L9.80565 2.74116H9.80237H9.7995H9.79623L9.77083 2.72846H9.76755H9.76427L9.736 2.71494H9.73355L9.70323 2.70019L9.69831 2.69814H9.69545L9.668 2.68626H9.65161H9.64874H9.64506L9.62048 2.67479L9.6131 2.6711L9.58442 2.65922L9.57377 2.61293L9.54305 2.59982H9.53936H9.53731L9.5115 2.58958H9.50863H9.50495H9.50003L9.47668 2.58097H9.46972L9.44022 2.57032H9.43612L9.40335 2.55926L9.37057 2.5482H9.36647H9.3632L9.33083 2.53755L9.29519 2.52608H9.2788L9.24193 2.49412H9.23825H9.23415L9.20465 2.48511H9.20055H9.19646L9.16696 2.47691H9.16286H9.16L9.12845 2.46872H9.12272L9.08994 2.46053H9.08585L9.05348 2.45274H9.04938L9.01702 2.44496H9.00924L8.97933 2.43841H8.97605H8.97318L8.93959 2.43185H8.9359H8.93304L8.89903 2.4253L10.5036 3.27516L10.7112 3.37583L10.709 3.37083Z" fill="#8FB7FC"/>
</svg>
