<svg width="101" height="27" viewBox="0 0 101 27" fill="none" xmlns="http://www.w3.org/2000/svg">
<path d="M90.5351 5.01606C89.0484 5.00614 87.5797 5.37551 86.2441 6.09527C84.9085 6.81503 83.7421 7.86566 82.8362 9.16495C81.9302 10.4642 81.3094 11.977 81.0221 13.5847C80.7349 15.1925 80.7891 16.8517 81.1805 18.4326C81.5718 20.0134 82.2898 21.473 83.2781 22.6972C84.2664 23.9213 85.4984 24.8768 86.8775 25.4888C88.2566 26.1009 89.7455 26.3529 91.2277 26.2252C92.7099 26.0975 94.1452 25.5935 95.4213 24.7526V26.1411H100.138V16.1861C100.138 15.9995 100.15 15.813 100.15 15.6239C100.147 12.8134 99.1332 10.1188 97.331 8.13047C95.5288 6.14215 93.085 5.02223 90.5351 5.01606ZM90.5351 21.0172C89.567 21.0188 88.6202 20.7038 87.8146 20.1121C87.009 19.5204 86.3807 18.6786 86.0092 17.6932C85.6378 16.7079 85.5399 15.6232 85.7279 14.5765C85.9159 13.5298 86.3814 12.5681 87.0654 11.813C87.7495 11.058 88.6214 10.5436 89.5708 10.3348C90.5202 10.1261 91.5044 10.2324 92.3989 10.6404C93.2935 11.0484 94.0581 11.7397 94.5961 12.6268C95.1341 13.5139 95.4213 14.5569 95.4213 15.6239C95.42 17.0526 94.9051 18.4224 93.9892 19.4333C93.0733 20.4442 91.8312 21.0138 90.5351 21.0172Z" fill="#EA5B2C"/>
<path d="M76.8851 5.36133V26.261H72.3044C72.3044 26.261 71.933 25.4839 71.3384 24.4477C70.1633 22.3987 68.1232 19.3497 66.3488 19.3497C64.5743 19.3497 62.5319 22.3987 61.3591 24.4477C60.7645 25.4839 60.3932 26.261 60.3932 26.261H55.8125V5.36133H60.4026V17.7592L61.0654 16.9613L61.5119 16.4251L61.5307 16.4018C62.161 15.6997 62.9114 15.1424 63.7384 14.762C64.5654 14.3816 65.4526 14.1858 66.3488 14.1858C67.2449 14.1858 68.1321 14.3816 68.9592 14.762C69.7862 15.1424 70.5365 15.6997 71.1668 16.4018C71.1782 16.4136 71.1884 16.4266 71.1974 16.4406L71.6157 16.9587L72.3044 17.7955V5.36133H76.8851Z" fill="#EA5B2C"/>
<path d="M51.7865 15.6851C51.7868 14.9706 51.7207 14.258 51.5891 13.5584C51.1536 11.149 49.9739 8.98058 48.2507 7.42234C46.5275 5.8641 44.3675 5.01245 42.1386 5.01245C39.9097 5.01245 37.7497 5.8641 36.0266 7.42234C34.3034 8.98058 33.1236 11.149 32.6882 13.5584C32.5612 14.2586 32.4975 14.971 32.4978 15.6851C32.4972 18.4611 33.4827 21.1271 35.2433 23.1122C37.0039 25.0972 39.3997 26.2436 41.9177 26.3059H46.6182V21.853H42.5899C42.0272 21.8606 41.4659 21.791 40.9188 21.6457C39.135 21.151 37.6708 19.8894 36.9774 18.0683H51.5374C51.703 17.2871 51.7866 16.4874 51.7865 15.6851ZM36.8811 13.5584C37.2764 12.3713 37.9928 11.3466 38.9334 10.6228C39.8741 9.8989 40.9937 9.51074 42.141 9.51074C43.2882 9.51074 44.4078 9.8989 45.3485 10.6228C46.2892 11.3466 47.0056 12.3713 47.4009 13.5584H36.8811Z" fill="#EA5B2C"/>
<path d="M28.0456 0H23.2463V25.9795H28.0456V0Z" fill="#EA5B2C"/>
<path d="M16.8985 15.7164V10.4268H0V26.143H16.8985V20.8533H4.79926V15.7164H16.8985Z" fill="#EA5B2C"/>
<path d="M16.8985 0H0V5.28968H16.8985V0Z" fill="#A5804F"/>
</svg>
