<svg width="16" height="17" viewBox="0 0 16 17" fill="none" xmlns="http://www.w3.org/2000/svg">
<path d="M8.5 16.1699H7.5C7.46066 16.1585 7.42056 16.1499 7.38 16.1441C6.5275 16.0808 5.70125 15.8983 4.92167 15.5512C2.28667 14.3783 0.67875 12.3816 0.1225 9.54826C0.0654168 9.25659 0.0391667 8.96284 0 8.66992V7.66992C0.00916667 7.62451 0.0195839 7.5795 0.0266673 7.53409C0.0904173 7.12867 0.127918 6.71742 0.220001 6.31867C0.935835 3.22076 3.49333 0.822005 6.63667 0.289505C6.92292 0.241172 7.21167 0.209505 7.49958 0.169922H8.49958C8.54125 0.178672 8.57958 0.189088 8.62 0.195755C9.12 0.282005 9.63917 0.314088 10.12 0.462421C13.2811 1.43409 15.1994 3.54367 15.875 6.79117C15.935 7.08034 15.9583 7.37701 16 7.66992V8.66992C15.9888 8.70959 15.9801 8.74996 15.9742 8.79076C15.8338 10.5437 15.1913 12.0903 14.0375 13.4158C12.7971 14.8391 11.2396 15.7191 9.37792 16.0503C9.0875 16.1003 8.79167 16.1283 8.5 16.1699ZM8 1.41992C6.21159 1.41992 4.49628 2.12965 3.23071 3.39327C1.96514 4.65689 1.25276 6.3711 1.25 8.15951C1.24167 11.8866 4.26667 14.9199 7.9975 14.9199C11.7217 14.9199 14.7408 11.9087 14.75 8.17992C14.7592 4.45117 11.7346 1.42201 8.00208 1.41992H8Z" fill="#252525"/>
<path d="M8.0021 1.41992C11.7346 1.42201 14.7588 4.45159 14.7521 8.17992C14.7454 11.9083 11.7217 14.922 7.99752 14.9199C4.26668 14.9199 1.24168 11.8866 1.25002 8.15951C1.25278 6.37074 1.96544 4.65621 3.23146 3.39253C4.49748 2.12885 6.21333 1.41937 8.0021 1.41992ZM7.37502 9.50867C7.37502 10.1753 7.37502 10.842 7.37502 11.5087C7.37502 11.8678 7.64502 12.1387 7.99043 12.1416C8.07437 12.1441 8.15793 12.1294 8.23598 12.0984C8.31403 12.0674 8.38494 12.0209 8.44436 11.9615C8.50377 11.9022 8.55044 11.8313 8.58151 11.7533C8.61258 11.6753 8.62738 11.5918 8.62502 11.5078C8.62793 10.1703 8.6296 8.83284 8.62002 7.49534C8.61184 7.35628 8.56509 7.22224 8.48502 7.10826C8.3371 6.88992 8.0521 6.81659 7.8021 6.89992C7.67713 6.94104 7.56843 7.02077 7.49168 7.12763C7.41492 7.23448 7.37407 7.36294 7.37502 7.4945C7.37502 8.16576 7.37502 8.83659 7.37502 9.50867ZM8.00002 4.41992C7.88936 4.41965 7.77973 4.44124 7.67744 4.48346C7.57515 4.52568 7.48221 4.5877 7.40396 4.66595C7.32571 4.7442 7.26369 4.83714 7.22147 4.93943C7.17925 5.04172 7.15766 5.15134 7.15793 5.26201C7.1581 5.37275 7.18007 5.48238 7.22261 5.58464C7.26514 5.68689 7.3274 5.77977 7.40582 5.85797C7.48425 5.93616 7.57731 5.99814 7.67969 6.04037C7.78207 6.0826 7.89177 6.10425 8.00252 6.10409C8.11327 6.10393 8.2229 6.08195 8.32515 6.03942C8.42741 5.99688 8.52028 5.93463 8.59848 5.8562C8.67667 5.77777 8.73865 5.68471 8.78088 5.58233C8.82311 5.47995 8.84477 5.37025 8.8446 5.25951C8.84466 5.14881 8.82281 5.0392 8.78033 4.93699C8.73784 4.83477 8.67555 4.74197 8.59705 4.66393C8.51855 4.58589 8.42538 4.52416 8.32291 4.48228C8.22045 4.4404 8.11071 4.41921 8.00002 4.41992Z" fill="white"/>
<path d="M7.37502 9.50905C7.37502 8.83739 7.37502 8.16614 7.37502 7.49489C7.37399 7.36371 7.41452 7.23557 7.49079 7.12883C7.56706 7.0221 7.67516 6.94225 7.7996 6.90072C8.0496 6.81739 8.3346 6.89031 8.48252 7.10906C8.56259 7.22304 8.60934 7.35708 8.61752 7.49614C8.6271 8.83364 8.62544 10.1711 8.62252 11.5086C8.62464 11.5922 8.60973 11.6754 8.57872 11.753C8.5477 11.8307 8.50122 11.9012 8.4421 11.9603C8.38298 12.0194 8.31245 12.0659 8.23481 12.0969C8.15716 12.1279 8.07402 12.1428 7.99044 12.1407C7.64502 12.1378 7.37669 11.867 7.37502 11.5078C7.37502 10.8411 7.37502 10.1749 7.37502 9.50905Z" fill="#252525"/>
<path d="M7.99979 4.41994C8.11048 4.41922 8.22022 4.44042 8.32269 4.4823C8.42515 4.52417 8.51832 4.58591 8.59682 4.66395C8.67533 4.74199 8.73762 4.83479 8.7801 4.937C8.82259 5.03922 8.84443 5.14883 8.84437 5.25952C8.84512 5.42642 8.79632 5.58979 8.70416 5.72894C8.612 5.86809 8.48062 5.97677 8.32666 6.04121C8.1727 6.10565 8.00308 6.12296 7.83928 6.09095C7.67548 6.05893 7.52486 5.97903 7.40649 5.86137C7.28813 5.7437 7.20734 5.59356 7.17435 5.42995C7.14136 5.26634 7.15767 5.09662 7.22119 4.94228C7.28472 4.78794 7.39261 4.65592 7.53121 4.56294C7.66981 4.46995 7.83289 4.42019 7.99979 4.41994Z" fill="#252525"/>
</svg>
