<svg width="88" height="28" viewBox="0 0 88 28" fill="none" xmlns="http://www.w3.org/2000/svg">
<g clip-path="url(#clip0_2153_1283)">
<path opacity="0.983" fill-rule="evenodd" clip-rule="evenodd" d="M37.1962 7.34106C38.1739 7.43047 39.1517 7.44385 40.1296 7.38118C40.1769 7.45279 40.2041 7.53302 40.211 7.62187C39.8499 12.579 39.7956 17.5399 40.0481 22.5044C40.0462 22.9362 40.0191 23.3641 39.9666 23.7881C39.0789 23.8939 38.1962 23.8939 37.3184 23.7881C37.4057 18.7981 37.3378 13.8105 37.1147 8.82531C37.1164 8.32435 37.1435 7.8296 37.1962 7.34106Z" fill="#E94134"/>
<path opacity="0.993" fill-rule="evenodd" clip-rule="evenodd" d="M42.6557 7.34099C45.4278 7.30802 48.1982 7.34814 50.9668 7.46133C52.4855 7.63985 53.6942 8.32179 54.5927 9.50718C55.6551 11.7548 55.1798 13.6134 53.1668 15.0831C55.1516 16.2793 55.8713 18.0043 55.3261 20.2579C54.5636 22.7601 52.8525 23.9635 50.1927 23.8682C47.6803 23.784 45.1679 23.7706 42.6557 23.8281C42.6022 23.3396 42.575 22.8448 42.5742 22.3439C42.6446 20.4454 42.699 18.5466 42.7372 16.6476C43.6878 16.6476 44.6384 16.6476 45.589 16.6476C45.5625 18.1914 45.5896 19.7292 45.6705 21.2608C47.4762 21.5736 49.2688 21.5201 51.0483 21.1003C51.8701 20.7002 52.3183 20.045 52.3927 19.1347C52.5834 17.9259 52.1081 17.1102 50.9668 16.6877C49.2366 16.3585 47.4984 16.3184 45.752 16.5673C45.752 15.6848 45.752 14.8023 45.752 13.9198C47.2486 14.147 48.7424 14.1336 50.2335 13.8797C52.0847 13.3492 52.5599 12.2393 51.6594 10.5502C51.0468 9.93849 50.2999 9.60417 49.4187 9.54729C48.192 9.47236 46.9697 9.49915 45.752 9.62752C45.6889 9.82047 45.6482 10.021 45.6298 10.2292C45.589 11.4056 45.5754 12.5824 45.589 13.7593C44.6384 13.7593 43.6878 13.7593 42.7372 13.7593C42.6084 11.6155 42.5812 9.47613 42.6557 7.34099Z" fill="#4384F4"/>
<path opacity="0.99" fill-rule="evenodd" clip-rule="evenodd" d="M69.7076 8.70483C70.4187 8.75706 71.1249 8.85069 71.8261 8.98564C72.0304 8.9931 72.207 9.05993 72.3558 9.18621C72.3819 10.258 72.3412 11.3278 72.2335 12.3954C71.3372 12.3954 70.441 12.3954 69.5447 12.3954C69.531 11.2451 69.5447 10.0951 69.5854 8.94552C69.6272 8.86313 69.6679 8.7829 69.7076 8.70483Z" fill="#4385F5"/>
<path opacity="0.958" fill-rule="evenodd" clip-rule="evenodd" d="M33.0408 12.235C32.901 12.2247 32.7651 12.1979 32.6334 12.1548C32.4658 10.6613 32.3028 9.16368 32.1445 7.66195C31.7697 7.68602 31.4031 7.65928 31.0445 7.58172C28.3637 9.44456 25.7019 11.3433 23.0593 13.278C23.0049 14.107 23.0049 14.9361 23.0593 15.7651C23.2971 15.9702 23.5551 16.0505 23.8334 16.0058C23.8376 16.1986 23.8105 16.3858 23.7519 16.5674C23.5268 16.4499 23.296 16.343 23.0593 16.2465C23.043 16.5877 23.0023 16.922 22.9371 17.2493C22.3946 17.2895 21.8513 17.3028 21.3074 17.2895C21.5271 18.5849 21.7987 19.8686 22.1223 21.1405C22.3682 21.1537 22.6126 21.1403 22.8556 21.1003C23.1976 20.6701 23.5778 20.2823 23.9963 19.937C24.1129 20.0397 24.1673 20.1735 24.1593 20.3382C23.8748 20.5781 23.6033 20.8321 23.3445 21.1003C23.4191 21.1304 23.4871 21.1705 23.5482 21.2207C23.8422 21.0695 24.1274 20.909 24.4037 20.7393C24.5473 20.8004 24.6288 20.9075 24.6482 21.0602C24.3403 21.2521 24.0144 21.426 23.6704 21.5817C24.0905 21.5926 24.4979 21.5257 24.8926 21.3811C25.0627 21.4682 25.1713 21.6019 25.2185 21.7823C24.6442 21.8632 24.0738 21.9702 23.5074 22.1032C23.4823 22.2977 23.5096 22.4849 23.5889 22.6648C24.2512 22.9259 24.8759 23.2468 25.463 23.6276C25.3815 23.7078 25.3 23.788 25.2185 23.8683C24.6942 23.5976 24.151 23.357 23.5889 23.1462C23.5102 23.2983 23.4831 23.4588 23.5074 23.6276C22.6038 23.6781 21.7211 23.6246 20.8593 23.4671C20.1682 24.0745 19.462 24.6628 18.7408 25.2321C18.725 25.6534 18.6843 26.0679 18.6186 26.4757C18.1365 26.5404 17.6611 26.5271 17.1926 26.4356C17.152 25.9549 17.1384 25.4736 17.1519 24.9915C17.5873 25.0048 18.0219 24.9914 18.4556 24.9513C19.3114 24.29 20.1126 23.6348 20.8593 22.9857C20.9242 22.6444 20.9105 22.3101 20.8186 21.9829C19.9691 21.7531 19.1272 21.4991 18.2926 21.2207C18.2204 21.2869 18.1933 21.3671 18.2111 21.4614C17.7215 21.4747 17.2326 21.4613 16.7445 21.4213C16.6359 20.9399 16.6359 20.4585 16.7445 19.9771C17.2356 19.9105 17.7245 19.9239 18.2111 20.0172C18.2908 20.2683 18.2908 20.5357 18.2111 20.8195C19.092 21.0372 19.9611 21.3047 20.8186 21.6218C20.8973 21.4697 20.9244 21.3093 20.9 21.1405C21.1445 21.1405 21.3889 21.1405 21.6334 21.1405C21.3619 19.8841 21.0903 18.6272 20.8186 17.3697C19.9507 17.3029 19.0815 17.2628 18.2111 17.2493C18.1359 17.0856 18.1088 16.9117 18.1297 16.7278C18.0178 16.7153 17.9091 16.7287 17.8037 16.768C16.4609 17.3996 15.1029 17.9745 13.7297 18.4929C12.2679 19.0545 10.8556 19.6429 9.49263 20.2579C9.43542 20.7948 9.38116 21.3296 9.32966 21.8625C9.97149 22.7655 10.6233 23.6613 11.2852 24.5502C11.6917 24.5902 12.0991 24.6036 12.5074 24.5903C12.5074 25.0984 12.5074 25.6066 12.5074 26.1147C11.9975 26.1395 11.4951 26.1127 11 26.0344C10.9349 25.6664 10.9485 25.3054 11.0408 24.9513C10.3374 23.9272 9.60409 22.9244 8.84077 21.9428C8.43337 21.8358 8.02596 21.8358 7.61855 21.9428C7.04295 23.0494 6.44541 24.1459 5.82596 25.2321C5.98085 25.7226 6.03518 26.2308 5.98892 26.7565C5.47287 26.7565 4.95682 26.7565 4.44077 26.7565C4.42723 26.2744 4.44081 25.793 4.48151 25.3124C4.80744 25.2589 5.13337 25.2054 5.45929 25.1519C6.02456 24.082 6.58136 23.0122 7.12966 21.9428C6.75907 21.914 6.65043 21.7403 6.80374 21.4213C5.17032 22.1282 3.51352 22.8235 1.83337 23.5072C1.85792 23.7806 1.83076 24.0614 1.75188 24.3496C1.29015 24.3496 0.82843 24.3496 0.366699 24.3496C0.366699 23.8147 0.366699 23.2799 0.366699 22.745C0.829221 22.7317 1.29095 22.7451 1.75188 22.7852C1.80992 22.8995 1.82351 23.0198 1.79263 23.1462C3.44117 22.3644 5.11154 21.6289 6.80374 20.9399C6.6951 20.6725 6.6951 20.405 6.80374 20.1376C5.25459 19.2523 3.65213 18.3697 1.99633 17.49C1.56845 17.4255 1.14745 17.4389 0.733366 17.5301C0.374209 16.9913 0.360629 16.4431 0.692625 15.8854C1.13156 15.8225 1.56612 15.8359 1.99633 15.9256C2.05275 15.9677 2.09349 16.0212 2.11855 16.086C2.14819 16.4364 2.16177 16.7707 2.15929 17.0889C3.61462 17.872 5.05413 18.6743 6.47781 19.4958C6.70779 19.4341 6.95224 19.3806 7.21114 19.3353C6.06002 17.2156 4.91928 15.0895 3.78892 12.9571C3.46632 12.8907 3.14039 12.8506 2.81114 12.8367C2.7704 12.7966 2.72966 12.7565 2.68892 12.7164C2.62328 12.2684 2.63686 11.8271 2.72966 11.3926C3.01275 11.3685 3.28435 11.3016 3.54448 11.192C3.77522 11.2787 4.00608 11.3589 4.23707 11.4327C4.30124 11.8916 4.28766 12.3462 4.19633 12.7966C5.33431 14.9612 6.47505 17.1274 7.61855 19.2952C7.68577 19.3663 7.76725 19.393 7.863 19.3754C7.77274 17.3163 7.67767 15.257 7.57781 13.1978C7.41485 13.3047 7.25188 13.3047 7.08892 13.1978C7.04822 12.6903 7.03464 12.1822 7.04818 11.6734C7.45559 11.6734 7.863 11.6734 8.2704 11.6734C8.2704 11.2188 8.2704 10.7642 8.2704 10.3095C8.54573 10.2952 8.8037 10.2952 9.04448 10.3095C9.86434 9.25795 10.6656 8.18817 11.4482 7.10034C11.3145 6.85498 11.2466 6.58754 11.2445 6.29805C8.08584 7.01388 4.92164 7.73594 1.75188 8.46424C1.85936 8.62727 1.85936 8.78772 1.75188 8.94562C1.29909 9.01766 0.837369 9.04438 0.366699 9.02584C0.366699 8.51775 0.366699 8.00961 0.366699 7.50149C0.829221 7.48816 1.29095 7.50154 1.75188 7.5416C1.8236 7.6504 1.85076 7.77075 1.83337 7.90264C4.96346 7.32903 8.08691 6.64708 11.2037 5.85679C11.3089 5.6891 11.2546 5.58212 11.0408 5.53587C9.81488 5.13023 8.57905 4.74246 7.33337 4.37255C6.81824 4.52247 6.28861 4.57596 5.74448 4.53301C5.74448 4.02489 5.74448 3.51677 5.74448 3.00865C6.23337 3.00865 6.72225 3.00865 7.21114 3.00865C7.2316 3.2893 7.2316 3.57011 7.21114 3.85106C7.35677 3.95686 7.51973 4.02371 7.70003 4.05163C8.85821 4.42277 10.0262 4.79718 11.2037 5.17484C11.2619 4.97209 11.3162 4.77151 11.3667 4.57312C11.637 4.53314 11.9086 4.51977 12.1815 4.53301C12.0805 3.7328 11.999 2.93051 11.9371 2.12613C11.7198 2.12613 11.5025 2.12613 11.2852 2.12613C11.2717 1.64402 11.2853 1.16264 11.326 0.682006C11.7988 0.576404 12.2741 0.576404 12.7519 0.682006C12.833 1.16043 12.8602 1.6418 12.8334 2.12613C12.6413 2.11303 12.4512 2.1264 12.263 2.16625C12.3829 2.98316 12.5323 3.79883 12.7111 4.61324C13.098 4.52219 13.4918 4.50882 13.8926 4.57312C14.0394 4.68439 14.0937 4.80473 14.0556 4.93415C15.9629 3.99591 17.9728 3.08664 20.0852 2.20636C20.1392 1.88818 20.1663 1.56726 20.1667 1.24361C20.6835 1.23028 21.1995 1.24365 21.7148 1.28372C21.7202 1.70876 21.7067 2.15002 21.6741 2.60751C21.64 2.70154 21.5857 2.78177 21.5111 2.84819C21.09 2.77391 20.6826 2.77391 20.2889 2.84819C20.2039 2.75813 20.1496 2.65116 20.126 2.52728C18.3192 3.3916 16.513 4.24738 14.7074 5.09461C14.556 5.1824 14.393 5.24926 14.2186 5.29519C17.2737 4.93117 20.3293 4.54339 23.3852 4.13186C23.5203 4.11781 23.6289 4.06433 23.7111 3.9714C23.7839 4.01805 23.8654 4.0448 23.9556 4.05163C24.3697 3.94218 24.7906 3.88869 25.2185 3.89117C25.196 3.6547 25.2231 3.42738 25.3 3.20923C25.7867 3.20088 26.2756 3.21425 26.7667 3.24934C26.7667 3.75746 26.7667 4.26558 26.7667 4.7737C26.2507 4.7737 25.7346 4.7737 25.2185 4.7737C25.2318 4.58461 25.2183 4.39741 25.1778 4.21209C24.3592 4.36096 23.5444 4.52142 22.7334 4.69347C22.7062 4.66673 22.679 4.63998 22.6519 4.61324C19.7236 5.03443 16.831 5.46232 13.9741 5.8969C14.0642 6.24005 14.0778 6.5877 14.0148 6.93989C13.9537 6.99009 13.8858 7.03021 13.8111 7.06023C15.3476 8.93406 16.8687 10.8194 18.3741 12.7164C18.9965 12.7964 19.6211 12.8232 20.2482 12.7966C20.3764 11.3879 20.5121 9.98386 20.6556 8.58458C20.5024 8.6255 20.353 8.6121 20.2074 8.54447C20.1667 8.03702 20.1532 7.52894 20.1667 7.02011C20.6766 6.99527 21.179 7.02201 21.6741 7.10034C21.7072 7.58459 21.7208 8.05258 21.7148 8.50435C21.4933 8.62831 21.2896 8.64171 21.1037 8.54447C20.9307 9.98009 20.8085 11.3975 20.7371 12.7966C21.5604 12.8326 22.3753 12.7925 23.1815 12.6763C25.7601 10.8236 28.3132 9.00506 30.8408 7.22069C30.919 6.92143 30.9461 6.61389 30.9223 6.29805C30.2267 6.11684 29.5341 5.92964 28.8445 5.73645C28.814 5.80995 28.7733 5.87682 28.7223 5.93702C28.2605 5.99051 27.7988 5.99051 27.3371 5.93702C27.2285 5.45564 27.2285 4.97427 27.3371 4.49289C27.7988 4.4394 28.2605 4.4394 28.7223 4.49289C28.7766 4.76032 28.8309 5.02776 28.8852 5.29519C29.5558 5.50704 30.2348 5.68087 30.9223 5.81668C30.9004 5.60652 30.9275 5.40595 31.0037 5.21496C31.221 5.18822 31.4383 5.16147 31.6556 5.13473C31.6068 5.00456 31.5524 4.88421 31.4926 4.7737C31.15 3.80376 30.8513 2.78753 30.5963 1.72499C30.3248 1.72499 30.0531 1.72499 29.7815 1.72499C29.7815 1.24361 29.7815 0.762235 29.7815 0.28086C30.2975 0.28086 30.8136 0.28086 31.3297 0.28086C31.3297 0.762235 31.3297 1.24361 31.3297 1.72499C31.2092 1.70397 31.1006 1.73071 31.0037 1.80521C31.3619 2.90106 31.6879 3.98415 31.9815 5.0545C32.203 5.19632 32.4338 5.20969 32.6741 5.09461C33.1963 3.96611 33.7531 2.85627 34.3445 1.7651C34.2672 1.72637 34.1857 1.71299 34.1 1.72499C34.1 1.24361 34.1 0.762235 34.1 0.28086C34.6189 0.25441 35.135 0.281154 35.6482 0.361089C35.6515 0.775165 35.6379 1.20305 35.6074 1.64476C35.3086 1.69825 35.0099 1.75173 34.7111 1.80521C34.1815 2.90168 33.6519 3.99814 33.1223 5.09461C33.3004 5.15244 33.4769 5.20593 33.6519 5.25507C33.7158 5.51664 33.7022 5.7707 33.6111 6.01725C35.0504 5.88132 36.5171 5.76098 38.0111 5.65622C37.988 5.39334 38.0151 5.13928 38.0926 4.89404C38.5263 4.85397 38.9609 4.84061 39.3963 4.85393C39.3963 5.36204 39.3963 5.87016 39.3963 6.37828C38.9346 6.37828 38.4729 6.37828 38.0111 6.37828C38.0111 6.27131 38.0111 6.16433 38.0111 6.05736C36.5749 6.22553 35.1353 6.37262 33.6926 6.49862C33.696 6.84352 33.6824 7.20455 33.6519 7.58172C33.4833 7.643 33.3067 7.68311 33.1223 7.70206C33.6463 8.70284 34.1624 9.70571 34.6704 10.7107C35.0137 10.7664 35.3531 10.8198 35.6889 10.8711C35.6533 11.3285 35.6397 11.7831 35.6482 12.235C35.1593 12.342 34.6704 12.342 34.1815 12.235C34.1198 11.8137 34.0925 11.3858 34.1 10.9513C34.1389 10.8729 34.1932 10.8061 34.263 10.7508C33.6648 9.78626 33.1352 8.78339 32.6741 7.74218C32.6803 8.48486 32.7482 9.22032 32.8778 9.94848C32.8507 9.9752 32.8235 10.002 32.7963 10.0287C32.974 10.7663 33.0554 11.5017 33.0408 12.235ZM11.9371 7.02011C12.3996 7.00679 12.8613 7.02016 13.3223 7.06023C14.8537 9.0179 16.4154 10.9567 18.0074 12.8768C18.1246 13.5366 18.1653 14.2052 18.1297 14.8826C16.281 14.8782 14.4342 14.8247 12.5889 14.7221C12.6084 14.5643 12.5813 14.4172 12.5074 14.2809C12.0457 14.2273 11.584 14.2273 11.1223 14.2809C11.0136 14.789 11.0136 15.2971 11.1223 15.8052C11.584 15.8587 12.0457 15.8587 12.5074 15.8052C12.5712 15.5854 12.6119 15.358 12.6297 15.1233C14.4562 15.2485 16.2895 15.3287 18.1297 15.364C18.1297 15.6582 18.1297 15.9523 18.1297 16.2465C17.9179 16.2504 17.7413 16.3306 17.6 16.4872C17.5729 16.4604 17.5457 16.4336 17.5186 16.4069C14.8472 17.5829 12.1447 18.7061 9.41114 19.7766C9.43958 19.5724 9.37171 19.4119 9.20744 19.2952C8.90351 19.3722 8.5912 19.3989 8.2704 19.3754C8.19984 17.4946 8.11834 15.6359 8.02596 13.7995C8.03954 13.5989 8.05312 13.3983 8.0667 13.1978C8.22966 13.3047 8.39262 13.3047 8.55559 13.1978C8.59625 12.7439 8.60985 12.2892 8.59633 11.8339C8.9766 11.8339 9.3568 11.8339 9.73707 11.8339C9.76111 11.2942 9.73397 10.7594 9.65559 10.2293C10.4519 9.17884 11.2124 8.10915 11.9371 7.02011Z" fill="#38AA55"/>
<path fill-rule="evenodd" clip-rule="evenodd" d="M35.0776 11.1919C35.1507 11.28 35.2186 11.28 35.2813 11.1919C35.3213 11.2956 35.3349 11.4027 35.3221 11.5128C35.2406 11.5128 35.1591 11.5128 35.0776 11.5128C35.0776 11.4059 35.0776 11.2988 35.0776 11.1919Z" fill="#D1EBD6"/>
<path fill-rule="evenodd" clip-rule="evenodd" d="M9.16676 10.6304C9.22559 10.6639 9.26633 10.7173 9.28898 10.7908C9.31612 10.7373 9.34333 10.6839 9.37046 10.6304C9.42481 10.7373 9.42481 10.8443 9.37046 10.9513C9.31612 10.8443 9.26185 10.8443 9.2075 10.9513C9.16757 10.8476 9.15397 10.7405 9.16676 10.6304Z" fill="#ECF6EF"/>
<path opacity="0.01" fill-rule="evenodd" clip-rule="evenodd" d="M1.75195 8.94556C1.86059 8.99907 1.86059 8.99907 1.75195 8.94556V8.94556Z" fill="#00FF00"/>
<path fill-rule="evenodd" clip-rule="evenodd" d="M1.1814 7.82227C1.25803 8.03287 1.3531 8.03287 1.46658 7.82227C1.52527 7.95163 1.51169 8.07194 1.42584 8.1833C1.34851 8.2328 1.2806 8.21948 1.22214 8.14318C1.18221 8.03945 1.16863 7.93245 1.1814 7.82227Z" fill="#ABDAB5"/>
<path fill-rule="evenodd" clip-rule="evenodd" d="M20.4927 7.90259C20.5742 7.90259 20.6556 7.90259 20.7371 7.90259C20.7371 8.03633 20.7371 8.16999 20.7371 8.30373C20.6556 8.30373 20.5742 8.30373 20.4927 8.30373C20.4927 8.16999 20.4927 8.03633 20.4927 7.90259Z" fill="#C1E3C8"/>
<path fill-rule="evenodd" clip-rule="evenodd" d="M21.063 7.34085C21.2134 7.31857 21.3221 7.37205 21.3889 7.50131C21.3419 7.66577 21.2333 7.746 21.063 7.742C21.063 7.60828 21.063 7.47457 21.063 7.34085Z" fill="#CAE7CF"/>
<path fill-rule="evenodd" clip-rule="evenodd" d="M20.4927 7.42129C20.4976 7.37772 20.5247 7.35098 20.5742 7.34106C20.6348 7.46065 20.689 7.58099 20.7371 7.7021C20.6556 7.75558 20.5742 7.75558 20.4927 7.7021C20.5979 7.59846 20.5979 7.50487 20.4927 7.42129Z" fill="#F4FAF5"/>
<path fill-rule="evenodd" clip-rule="evenodd" d="M31.7369 6.619C32.1303 6.60979 32.2389 6.78362 32.0628 7.14049C31.9315 7.19828 31.8093 7.1849 31.6962 7.10038C31.6562 6.93627 31.6698 6.77582 31.7369 6.619Z" fill="#DCEFDF"/>
<path fill-rule="evenodd" clip-rule="evenodd" d="M32.7148 6.6189C32.8299 6.77904 32.9385 6.95287 33.0407 7.14039C32.9049 7.19388 32.7691 7.19388 32.6333 7.14039C32.8506 7.00667 32.8506 6.87296 32.6333 6.73924C32.6786 6.70854 32.7057 6.66843 32.7148 6.6189Z" fill="#F5FBF6"/>
<path fill-rule="evenodd" clip-rule="evenodd" d="M11.9369 5.97712C12.405 5.923 12.5408 6.1102 12.3443 6.53872C11.8815 6.6217 11.7457 6.4345 11.9369 5.97712Z" fill="#DAEEDD"/>
<path fill-rule="evenodd" clip-rule="evenodd" d="M32.6336 5.73639C32.9715 5.73263 33.0938 5.89309 33.0002 6.21777C32.8644 6.43172 32.7286 6.43172 32.5928 6.21777C32.5376 6.04948 32.5512 5.88902 32.6336 5.73639Z" fill="#CEE9D3"/>
<path fill-rule="evenodd" clip-rule="evenodd" d="M13.0776 5.97705C13.1591 5.97705 13.2405 5.97705 13.322 5.97705C13.3002 6.1872 13.3273 6.38778 13.4035 6.57877C13.2677 6.63226 13.1319 6.63226 12.9961 6.57877C13.2134 6.41831 13.2134 6.25785 12.9961 6.09739C13.0414 6.0667 13.0685 6.02658 13.0776 5.97705Z" fill="#E1F2E5"/>
<path fill-rule="evenodd" clip-rule="evenodd" d="M31.8187 5.73633C31.96 5.88247 32.0415 6.06967 32.0632 6.29793C31.9273 6.4049 31.7916 6.4049 31.6558 6.29793C31.8659 6.14247 31.8659 5.99539 31.6558 5.85667C31.7304 5.83434 31.7847 5.79422 31.8187 5.73633Z" fill="#D3ECD9"/>
<path fill-rule="evenodd" clip-rule="evenodd" d="M27.6629 5.33521C27.7217 5.3687 27.7624 5.42219 27.7851 5.49566C27.8122 5.44217 27.8394 5.38869 27.8666 5.33521C27.9209 5.44217 27.9209 5.54915 27.8666 5.65612C27.8122 5.54915 27.7579 5.54915 27.7036 5.65612C27.6637 5.55237 27.6501 5.44539 27.6629 5.33521Z" fill="#E1F2E5"/>
<path opacity="0.01" fill-rule="evenodd" clip-rule="evenodd" d="M14.7075 5.09448C14.8161 5.14797 14.8161 5.14797 14.7075 5.09448V5.09448Z" fill="#00FF00"/>
<path fill-rule="evenodd" clip-rule="evenodd" d="M13.0777 4.93401C13.3412 4.91288 13.4499 5.03322 13.4036 5.29504C13.4136 5.63678 13.2643 5.73038 12.9555 5.57584C12.8848 5.33348 12.9256 5.11953 13.0777 4.93401Z" fill="#E7F4E9"/>
<path fill-rule="evenodd" clip-rule="evenodd" d="M13.2406 5.25513C13.352 5.38291 13.3249 5.48989 13.1591 5.57604C13.132 5.5493 13.1048 5.52256 13.0776 5.49581C13.1341 5.41416 13.1884 5.33393 13.2406 5.25513Z" fill="#4FB268"/>
<path fill-rule="evenodd" clip-rule="evenodd" d="M28.2335 4.77368C28.5151 4.85682 28.5423 4.99053 28.315 5.17483C28.1354 5.07197 28.1082 4.93826 28.2335 4.77368Z" fill="#BAE0C1"/>
<path fill-rule="evenodd" clip-rule="evenodd" d="M12.1 4.93408C12.1374 5.17394 12.2189 5.40125 12.3444 5.61603C12.2086 5.66952 12.0728 5.66952 11.937 5.61603C12.0933 5.47401 12.134 5.30018 12.0592 5.09454C12.0059 5.19046 11.9652 5.19046 11.937 5.09454C11.9976 5.03984 12.0518 4.98635 12.1 4.93408Z" fill="#FAFDFB"/>
<path opacity="0.01" fill-rule="evenodd" clip-rule="evenodd" d="M31.4921 4.77368C31.4382 4.82717 31.4382 4.82717 31.4921 4.77368V4.77368Z" fill="#00FF00"/>
<path opacity="0.01" fill-rule="evenodd" clip-rule="evenodd" d="M7.7002 3.97144C7.80883 4.02492 7.80883 4.02492 7.7002 3.97144V3.97144Z" fill="#00FF00"/>
<path fill-rule="evenodd" clip-rule="evenodd" d="M6.07031 3.89111C6.16046 3.94321 6.24194 3.96995 6.31476 3.97134C6.11176 4.05484 6.11176 4.1217 6.31476 4.17192C6.23751 4.21065 6.15603 4.22402 6.07031 4.21203C6.07031 4.10506 6.07031 3.99808 6.07031 3.89111Z" fill="#DDF0E2"/>
<path fill-rule="evenodd" clip-rule="evenodd" d="M26.1963 3.57031C26.2778 3.57031 26.3593 3.57031 26.4407 3.57031C26.4407 3.70403 26.4407 3.83774 26.4407 3.97146C26.3593 3.97146 26.2778 3.97146 26.1963 3.97146C26.1963 3.83774 26.1963 3.70403 26.1963 3.57031Z" fill="#C8E7CF"/>
<path fill-rule="evenodd" clip-rule="evenodd" d="M6.72201 3.32959C7.03986 3.5034 7.0127 3.63712 6.64053 3.73074C6.62961 3.58701 6.65677 3.45329 6.72201 3.32959Z" fill="#ACDBB6"/>
<path fill-rule="evenodd" clip-rule="evenodd" d="M25.626 3.65054C25.6309 3.60697 25.658 3.58023 25.7075 3.57031C25.7681 3.68989 25.8223 3.81024 25.8704 3.93134C25.7889 3.98483 25.7075 3.98483 25.626 3.93134C25.7312 3.82771 25.7312 3.73412 25.626 3.65054Z" fill="#F0F8F2"/>
<path fill-rule="evenodd" clip-rule="evenodd" d="M21.1444 1.48413C21.3549 1.52812 21.4364 1.66184 21.3888 1.88528C21.2802 1.88528 21.1715 1.88528 21.0629 1.88528C21.052 1.74155 21.0791 1.60783 21.1444 1.48413Z" fill="#B1DDBA"/>
<path fill-rule="evenodd" clip-rule="evenodd" d="M11.6925 1.48413C11.9741 1.56726 12.0013 1.70098 11.7739 1.88528C11.5944 1.78242 11.5671 1.64871 11.6925 1.48413Z" fill="#B9E0BF"/>
<path fill-rule="evenodd" clip-rule="evenodd" d="M34.5887 1.00293C34.739 1.0594 34.7797 1.16637 34.7109 1.32385C34.6566 1.21688 34.6023 1.21688 34.548 1.32385C34.5008 1.20924 34.5144 1.10227 34.5887 1.00293Z" fill="#DEF0E1"/>
<path fill-rule="evenodd" clip-rule="evenodd" d="M30.7593 1.16324C30.7642 1.11966 30.7913 1.09292 30.8408 1.08301C30.9014 1.20259 30.9556 1.32293 31.0037 1.44404C30.9222 1.49753 30.8408 1.49753 30.7593 1.44404C30.8645 1.34041 30.8645 1.24681 30.7593 1.16324Z" fill="#EDF7EF"/>
<path fill-rule="evenodd" clip-rule="evenodd" d="M30.1072 1.08301C30.166 1.1165 30.2068 1.16999 30.2294 1.24347C30.2545 1.17863 30.2952 1.12515 30.3516 1.08301C30.4532 1.20387 30.4532 1.32421 30.3516 1.44404C30.2743 1.49356 30.2064 1.48019 30.1479 1.40392C30.108 1.30017 30.0944 1.19319 30.1072 1.08301Z" fill="#C9E7CF"/>
<path fill-rule="evenodd" clip-rule="evenodd" d="M12.2628 0.922607C12.3443 0.922607 12.4257 0.922607 12.5072 0.922607C12.5385 1.09629 12.4842 1.23001 12.3443 1.32375C12.1647 1.2209 12.1375 1.08719 12.2628 0.922607Z" fill="#B3DEBC"/>
<path fill-rule="evenodd" clip-rule="evenodd" d="M11.6924 1.00284C11.6973 0.959264 11.7244 0.932524 11.7739 0.922607C11.8345 1.04219 11.8888 1.16253 11.9368 1.28364C11.8553 1.33713 11.7739 1.33713 11.6924 1.28364C11.7976 1.18001 11.7976 1.08641 11.6924 1.00284Z" fill="#DEF1E3"/>
<path fill-rule="evenodd" clip-rule="evenodd" d="M34.5888 0.521484C34.6486 0.632003 34.703 0.752346 34.7518 0.882516C34.6703 0.936005 34.5888 0.936005 34.5073 0.882516C34.5409 0.757045 34.568 0.636702 34.5888 0.521484Z" fill="#D3ECDA"/>
<path fill-rule="evenodd" clip-rule="evenodd" d="M3.62573 11.6733C3.69882 11.7614 3.76672 11.7614 3.82944 11.6733C3.88376 11.7803 3.88376 11.8873 3.82944 11.9943C3.77511 11.7803 3.7208 11.7803 3.66647 11.9943C3.62655 11.8905 3.61297 11.7835 3.62573 11.6733Z" fill="#ECF7EF"/>
<path opacity="0.991" fill-rule="evenodd" clip-rule="evenodd" d="M32.6331 12.1546C32.7649 12.1978 32.9007 12.2245 33.0405 12.2349C33.5843 12.3197 34.1276 12.4133 34.6701 12.5157C34.7867 12.553 34.8817 12.6199 34.9553 12.7162C34.979 15.9791 34.9519 19.2418 34.8738 22.5042C34.6885 25.0128 33.344 26.4703 30.8405 26.8767C29.2276 27.0492 27.6522 26.8887 26.1146 26.3953C25.68 26.2345 25.2862 26.0072 24.9331 25.7134C25.0614 25.11 25.1565 24.495 25.2183 23.8681C25.2998 23.7879 25.3813 23.7076 25.4627 23.6274C26.9175 24.5204 28.4929 24.8548 30.1887 24.6303C31.7613 24.1405 32.3453 23.1108 31.9405 21.5414C30.7782 22.8233 29.325 23.2912 27.5813 22.9455C26.6895 22.7462 25.9018 22.3584 25.2183 21.7821C25.171 21.6017 25.0624 21.468 24.8924 21.381C24.8099 21.2709 24.7284 21.164 24.6479 21.0601C24.6285 20.9073 24.547 20.8003 24.4035 20.7392C24.3538 20.584 24.2723 20.4502 24.159 20.338C24.167 20.1733 24.1127 20.0396 23.9961 19.9369C23.6698 18.8299 23.5883 17.7067 23.7516 16.5672C23.8102 16.3856 23.8373 16.1984 23.8331 16.0056C24.8258 13.0833 26.8628 11.8932 29.9442 12.4354C30.7796 12.7731 31.4722 13.2946 32.022 13.9999C32.0491 13.3848 32.0763 12.7697 32.1035 12.1546C32.2762 12.066 32.4528 12.066 32.6331 12.1546ZM28.6405 14.5615C30.3755 14.4119 31.4755 15.1607 31.9405 16.8079C32.2646 18.257 31.8708 19.4739 30.759 20.4583C30.0875 20.8788 29.3541 21.0126 28.559 20.8595C27.177 20.2936 26.4708 19.2641 26.4405 17.7707C26.4508 16.1941 27.1841 15.1244 28.6405 14.5615Z" fill="#E94234"/>
<path opacity="0.984" fill-rule="evenodd" clip-rule="evenodd" d="M81.5224 12.0745C84.5641 11.8531 86.5604 13.1635 87.5113 16.0058C87.6343 16.6968 87.6612 17.3921 87.5927 18.0917C87.3972 18.4715 87.0843 18.6988 86.6557 18.7737C84.3327 19.0334 82.0104 19.2608 79.689 19.4556C79.6483 18.7608 79.6348 18.0655 79.6483 17.3697C81.3199 17.384 82.9768 17.2369 84.6187 16.9284C84.7067 16.8743 84.7613 16.7941 84.7816 16.6877C84.419 15.0388 83.3867 14.29 81.6853 14.4413C80.6826 14.7331 79.99 15.3616 79.6076 16.3267C79.5614 16.5407 79.5206 16.7546 79.4853 16.9685C78.6162 16.9685 77.7471 16.9685 76.8779 16.9685C77.393 14.3758 78.9411 12.7445 81.5224 12.0745Z" fill="#4385F4"/>
<path fill-rule="evenodd" clip-rule="evenodd" d="M3.13679 12.1548C3.41842 12.2379 3.44558 12.3716 3.21828 12.5559C3.03867 12.4531 3.01151 12.3193 3.13679 12.1548Z" fill="#B5DEBD"/>
<path fill-rule="evenodd" clip-rule="evenodd" d="M69.7075 12.7163C70.5495 12.7163 71.3915 12.7163 72.2334 12.7163C72.2334 13.4384 72.2334 14.1604 72.2334 14.8825C71.3915 14.8825 70.5495 14.8825 69.7075 14.8825C69.7075 14.1604 69.7075 13.4384 69.7075 12.7163Z" fill="#4686F5"/>
<path opacity="0.99" fill-rule="evenodd" clip-rule="evenodd" d="M56.752 12.7966C57.6494 12.7967 58.5457 12.8234 59.4409 12.8769C59.4055 14.405 59.4462 15.9293 59.5631 17.4499C60.274 18.851 61.1839 20.108 62.2928 21.2207C63.2569 20.0721 64.0582 18.8153 64.6965 17.4499C64.7813 16.8652 64.822 16.2768 64.8187 15.6849C64.7992 14.799 64.7585 13.9165 64.6965 13.0373C64.7372 12.9972 64.7779 12.9571 64.8187 12.917C65.6608 12.8139 66.5028 12.8005 67.3446 12.8769C67.4733 13.266 67.5411 13.6671 67.5483 14.0803C67.6181 15.4465 67.5909 16.8104 67.4668 18.172C65.5575 21.2642 63.5068 24.2594 61.315 27.1577C60.8356 27.5093 60.2924 27.6698 59.6854 27.639C59.6717 26.7561 59.6854 25.8736 59.7261 24.9915C60.0385 24.5906 60.3101 24.1627 60.5409 23.7078C60.5953 23.5473 60.5953 23.3869 60.5409 23.2264C59.5402 21.8399 58.5081 20.476 57.4446 19.1347C56.9723 18.5788 56.7279 17.9369 56.7113 17.2092C56.6455 15.7349 56.6591 14.264 56.752 12.7966Z" fill="#4384F5"/>
<path opacity="0.977" fill-rule="evenodd" clip-rule="evenodd" d="M69.4629 15.1233C69.0397 15.0078 68.6051 14.9276 68.1592 14.8826C67.999 14.4133 67.9582 13.932 68.0369 13.4385C68.0502 13.2639 68.1181 13.1168 68.2406 12.9972C68.6382 12.9301 69.032 12.8633 69.4221 12.7966C69.4629 13.5717 69.4764 14.3473 69.4629 15.1233Z" fill="#4384F5"/>
<path opacity="0.996" fill-rule="evenodd" clip-rule="evenodd" d="M72.6406 12.7165C73.6188 12.7031 74.5966 12.7165 75.574 12.7566C75.6235 12.8553 75.6506 12.9623 75.6554 13.0775C75.6097 13.7598 75.5554 14.4418 75.4925 15.1233C75.348 15.1704 75.1987 15.1971 75.0443 15.2036C74.2439 15.135 73.4426 15.0816 72.6406 15.0431C72.6406 14.2675 72.6406 13.492 72.6406 12.7165Z" fill="#4284F4"/>
<path fill-rule="evenodd" clip-rule="evenodd" d="M70.3593 12.8767C70.4733 13.0916 70.582 13.3189 70.6852 13.5587C70.5222 13.6122 70.3593 13.6122 70.1963 13.5587C70.3526 13.4167 70.3933 13.2428 70.3185 13.0372C70.2652 13.1331 70.2245 13.1331 70.1963 13.0372C70.2568 12.9825 70.3111 12.9289 70.3593 12.8767Z" fill="#ECF2FD"/>
<path fill-rule="evenodd" clip-rule="evenodd" d="M71.4999 12.9571C71.5848 12.8535 71.6798 12.8535 71.7851 12.9571C71.8477 13.1656 71.8341 13.3662 71.7443 13.5588C71.613 13.6166 71.4908 13.6032 71.3777 13.5187C71.3233 13.3582 71.3233 13.1978 71.3777 13.0373C71.5109 13.1986 71.5788 13.3591 71.5814 13.5187C71.6808 13.4876 71.7351 13.4208 71.7443 13.3181C71.6691 13.2258 71.6691 13.1456 71.7443 13.0774C71.6837 12.9941 71.6022 12.9539 71.4999 12.9571Z" fill="#F1F5FE"/>
<path fill-rule="evenodd" clip-rule="evenodd" d="M19.5965 13.6792C19.678 13.6792 19.7595 13.6792 19.8409 13.6792C19.8409 14.0001 19.8409 14.321 19.8409 14.642C19.9614 14.6209 20.07 14.6476 20.1669 14.7222C19.8953 14.8291 19.6236 14.8291 19.3521 14.7222C19.4489 14.6476 19.5575 14.6209 19.678 14.642C19.7038 14.3955 19.6767 14.1548 19.5965 13.9199C19.5061 14.0073 19.4247 14.0073 19.3521 13.9199C19.4205 13.8208 19.502 13.7406 19.5965 13.6792Z" fill="#F8FCF9"/>
<path fill-rule="evenodd" clip-rule="evenodd" d="M21.2258 13.6791C21.8789 13.623 22.1097 13.9171 21.9184 14.5616C21.6468 14.9895 21.3752 14.9895 21.1036 14.5616C21.0418 14.2522 21.0826 13.9581 21.2258 13.6791Z" fill="#F2F9F4"/>
<path fill-rule="evenodd" clip-rule="evenodd" d="M21.389 13.8395C21.5196 13.8244 21.6283 13.8645 21.7149 13.9599C21.358 14.3605 21.2493 14.3204 21.389 13.8395Z" fill="#37A955"/>
<path fill-rule="evenodd" clip-rule="evenodd" d="M42.8184 14.0803C43.7418 14.0803 44.6653 14.0803 45.5887 14.0803C45.5887 14.8024 45.5887 15.5244 45.5887 16.2465C44.6653 16.2465 43.7418 16.2465 42.8184 16.2465C42.8184 15.5244 42.8184 14.8024 42.8184 14.0803Z" fill="#4686F5"/>
<path fill-rule="evenodd" clip-rule="evenodd" d="M70.3593 14.0802C70.472 13.9759 70.5943 13.9759 70.7259 14.0802C70.8316 14.3751 70.7501 14.5891 70.4815 14.7221C70.4186 14.7104 70.3642 14.6837 70.3185 14.6418C70.2537 14.4381 70.2673 14.251 70.3593 14.0802Z" fill="#E4EDFD"/>
<path fill-rule="evenodd" clip-rule="evenodd" d="M70.3592 14.0801C70.5831 14.0723 70.6373 14.1525 70.5221 14.3208C70.396 14.2951 70.3416 14.2148 70.3592 14.0801Z" fill="#4F8BF5"/>
<path fill-rule="evenodd" clip-rule="evenodd" d="M21.6333 14.2407C21.7496 14.4248 21.7089 14.5853 21.511 14.7221C21.2794 14.5258 21.3201 14.3653 21.6333 14.2407Z" fill="#40AC5B"/>
<path fill-rule="evenodd" clip-rule="evenodd" d="M43.4706 14.3208C43.606 14.5143 43.6875 14.7417 43.715 15.0027C43.5792 15.0563 43.4434 15.0563 43.3076 15.0027C43.5249 14.8156 43.5249 14.6283 43.3076 14.4411C43.3823 14.4188 43.4365 14.3787 43.4706 14.3208Z" fill="#EDF3FE"/>
<path fill-rule="evenodd" clip-rule="evenodd" d="M44.6112 14.4011C44.8154 14.4117 44.8698 14.4919 44.7741 14.6418C44.5144 14.7491 44.4601 14.6688 44.6112 14.4011Z" fill="#508CF5"/>
<path fill-rule="evenodd" clip-rule="evenodd" d="M44.6113 14.4012C44.8613 14.2843 44.9699 14.378 44.9373 14.682C44.9699 14.9861 44.8613 15.0797 44.6113 14.9628C44.8402 14.9261 44.8946 14.8191 44.7743 14.6419C44.87 14.492 44.8156 14.4118 44.6113 14.4012Z" fill="#F6F9FE"/>
<path fill-rule="evenodd" clip-rule="evenodd" d="M70.5223 14.3208C70.5937 14.3103 70.6481 14.337 70.6853 14.4011C70.6068 14.6083 70.4981 14.6484 70.3594 14.5214C70.4312 14.4646 70.4854 14.3977 70.5223 14.3208Z" fill="#558EF5"/>
<path fill-rule="evenodd" clip-rule="evenodd" d="M44.6112 14.4011C44.4602 14.6688 44.5145 14.7491 44.7742 14.6418C44.6846 14.7305 44.6302 14.8374 44.6112 14.9627C44.4933 14.9119 44.4391 14.8182 44.4483 14.6819C44.4391 14.5456 44.4933 14.452 44.6112 14.4011Z" fill="#ECF2FE"/>
<path fill-rule="evenodd" clip-rule="evenodd" d="M71.5815 14.0802C71.5864 14.0367 71.6135 14.0099 71.663 14C71.7101 14.2302 71.7915 14.4441 71.9074 14.6418C71.7716 14.7488 71.6358 14.7488 71.5 14.6418C71.6711 14.4628 71.6982 14.2757 71.5815 14.0802Z" fill="#C5D8FC"/>
<path fill-rule="evenodd" clip-rule="evenodd" d="M44.7743 14.6418C44.8946 14.8191 44.8402 14.926 44.6113 14.9628C44.6303 14.8374 44.6847 14.7305 44.7743 14.6418Z" fill="#4586F5"/>
<path opacity="0.993" fill-rule="evenodd" clip-rule="evenodd" d="M69.4629 15.1232C70.4139 15.1098 71.3645 15.1232 72.3147 15.1633C72.1242 17.0969 72.1106 19.0357 72.274 20.9799C72.4998 21.5394 72.9208 21.8068 73.537 21.7822C74.294 21.6437 75.0546 21.5368 75.8184 21.4613C75.8202 22.1055 75.7795 22.7474 75.6962 23.3868C75.5676 23.5104 75.4181 23.6041 75.2481 23.6676C74.0736 23.9923 72.8785 24.0993 71.6629 23.9885C70.5344 23.8666 69.8418 23.2649 69.5851 22.1834C69.5368 20.3645 69.5503 18.546 69.6259 16.7278C69.6122 16.2464 69.5987 15.765 69.5851 15.2836C69.5267 15.24 69.4859 15.1865 69.4629 15.1232Z" fill="#4384F4"/>
<path fill-rule="evenodd" clip-rule="evenodd" d="M44.7743 15.364C44.8117 15.6039 44.8932 15.8312 45.0187 16.046C44.8829 16.0995 44.7472 16.0995 44.6113 16.046C44.8286 15.8588 44.8286 15.6715 44.6113 15.4844C44.686 15.4621 44.7402 15.4219 44.7743 15.364Z" fill="#FAFCFE"/>
<path fill-rule="evenodd" clip-rule="evenodd" d="M19.4333 15.5243C20.0864 15.4682 20.3172 15.7623 20.1259 16.4069C19.8543 16.8347 19.5827 16.8347 19.3111 16.4069C19.2387 16.0938 19.2795 15.7996 19.4333 15.5243Z" fill="#F2F9F3"/>
<path fill-rule="evenodd" clip-rule="evenodd" d="M21.389 15.5244C21.4705 15.5244 21.5519 15.5244 21.6334 15.5244C21.6334 15.8453 21.6334 16.1662 21.6334 16.4872C21.7538 16.4661 21.8625 16.4929 21.9593 16.5674C21.6878 16.6743 21.4161 16.6743 21.1445 16.5674C21.2414 16.4929 21.35 16.4661 21.4705 16.4872C21.4963 16.2407 21.4692 16 21.389 15.7651C21.2986 15.8526 21.2171 15.8526 21.1445 15.7651C21.213 15.666 21.2945 15.5858 21.389 15.5244Z" fill="#FAFCFA"/>
<path fill-rule="evenodd" clip-rule="evenodd" d="M43.7148 15.6848C43.6969 15.5905 43.724 15.5103 43.7962 15.4441C43.8897 15.6258 43.9033 15.813 43.837 16.0057C43.7239 16.0903 43.6017 16.1036 43.4703 16.0458C43.3814 15.8802 43.3678 15.7064 43.4296 15.5243C43.4567 15.6046 43.4839 15.6848 43.511 15.765C43.5657 15.7047 43.6336 15.6779 43.7148 15.6848Z" fill="#EDF2FE"/>
<path fill-rule="evenodd" clip-rule="evenodd" d="M19.5965 15.6847C19.7271 15.6696 19.8358 15.7098 19.9224 15.8051C19.5655 16.2057 19.4569 16.1656 19.5965 15.6847Z" fill="#3AAA57"/>
<path fill-rule="evenodd" clip-rule="evenodd" d="M43.7147 15.6848C43.8261 15.8126 43.799 15.9196 43.6332 16.0057C43.6061 15.979 43.5789 15.9522 43.5518 15.9255C43.6082 15.8438 43.6625 15.7636 43.7147 15.6848Z" fill="#4385F5"/>
<path fill-rule="evenodd" clip-rule="evenodd" d="M19.8408 16.0859C19.9571 16.2701 19.9164 16.4305 19.7186 16.5673C19.4869 16.371 19.5276 16.2105 19.8408 16.0859Z" fill="#3EAB5A"/>
<path fill-rule="evenodd" clip-rule="evenodd" d="M0.93695 16.2465C0.941839 16.2029 0.968997 16.1762 1.01843 16.1663C1.26231 16.4824 1.20798 16.6028 0.855469 16.5273C1.01803 16.4532 1.04519 16.3596 0.93695 16.2465Z" fill="#E3F3E6"/>
<path fill-rule="evenodd" clip-rule="evenodd" d="M1.5074 16.1663C1.71793 16.2102 1.79941 16.344 1.75184 16.5674C1.43973 16.5677 1.35825 16.4341 1.5074 16.1663Z" fill="#B2DDBA"/>
<path fill-rule="evenodd" clip-rule="evenodd" d="M76.8779 17.2092C77.7199 17.2092 78.5619 17.2092 79.4039 17.2092C79.4039 17.9313 79.4039 18.6534 79.4039 19.3754C78.5619 19.3754 77.7199 19.3754 76.8779 19.3754C76.8779 18.6534 76.8779 17.9313 76.8779 17.2092Z" fill="#4586F5"/>
<path fill-rule="evenodd" clip-rule="evenodd" d="M77.5297 17.3696C77.6437 17.5845 77.7524 17.8118 77.8556 18.0516C77.6862 18.1164 77.5232 18.103 77.3667 18.0115C77.5781 17.8301 77.5781 17.6562 77.3667 17.49C77.4413 17.4677 77.4956 17.4276 77.5297 17.3696Z" fill="#E7EEFD"/>
<path fill-rule="evenodd" clip-rule="evenodd" d="M78.915 17.4498C78.8571 17.5725 78.7756 17.6795 78.6706 17.7707C78.5455 17.5437 78.627 17.4367 78.915 17.4498Z" fill="#588FF6"/>
<path fill-rule="evenodd" clip-rule="evenodd" d="M78.9149 17.45C79.0068 17.6207 79.0205 17.8079 78.9556 18.0116C78.8503 18.1151 78.7553 18.1151 78.6704 18.0116C78.8803 17.9937 78.9483 17.8868 78.8741 17.6906C78.8194 17.751 78.7516 17.7778 78.6704 17.7709C78.7754 17.6796 78.8569 17.5727 78.9149 17.45Z" fill="#F0F5FE"/>
<path fill-rule="evenodd" clip-rule="evenodd" d="M78.9148 17.4499C78.6267 17.4368 78.5452 17.5437 78.6703 17.7708C78.6703 17.851 78.6703 17.9312 78.6703 18.0115C78.62 18.0026 78.5793 17.9758 78.5481 17.9312C78.4937 17.7708 78.4937 17.6103 78.5481 17.4499C78.6798 17.3455 78.802 17.3455 78.9148 17.4499Z" fill="#F0F5FE"/>
<path fill-rule="evenodd" clip-rule="evenodd" d="M78.6704 18.0113C78.6704 17.9311 78.6704 17.8509 78.6704 17.7707C78.7516 17.7776 78.8194 17.7508 78.8741 17.6904C78.9483 17.8866 78.8803 17.9935 78.6704 18.0113Z" fill="#4F8BF5"/>
<path fill-rule="evenodd" clip-rule="evenodd" d="M78.7518 18.4126C78.8659 18.6275 78.9746 18.8547 79.0778 19.0945C78.9148 19.1481 78.7518 19.1481 78.5889 19.0945C78.6661 19.0558 78.7476 19.0425 78.8333 19.0544C78.8673 18.8475 78.8129 18.6737 78.6703 18.5329C78.7157 18.5022 78.7428 18.4621 78.7518 18.4126Z" fill="#F3F7FE"/>
<path opacity="0.01" fill-rule="evenodd" clip-rule="evenodd" d="M13.7295 18.4929C13.8381 18.5464 13.8381 18.5464 13.7295 18.4929V18.4929Z" fill="#00FF00"/>
<path fill-rule="evenodd" clip-rule="evenodd" d="M77.774 18.4927C77.8738 18.545 77.9282 18.6387 77.937 18.7735C77.9692 19.0895 77.8334 19.1965 77.5296 19.0944C77.4398 18.9018 77.4262 18.7012 77.4888 18.4927C77.5941 18.3891 77.6891 18.3891 77.774 18.4927Z" fill="#EDF2FE"/>
<path fill-rule="evenodd" clip-rule="evenodd" d="M77.7739 18.4929C77.7549 18.6182 77.7006 18.7252 77.611 18.8138C77.4907 18.6366 77.545 18.5297 77.7739 18.4929Z" fill="#4486F5"/>
<path fill-rule="evenodd" clip-rule="evenodd" d="M77.611 18.8139C77.6922 18.8208 77.7601 18.794 77.8147 18.7336C77.8901 18.945 77.8222 19.0386 77.611 19.0144C77.5216 18.9527 77.5216 18.8858 77.611 18.8139Z" fill="#538DF5"/>
<path opacity="0.987" fill-rule="evenodd" clip-rule="evenodd" d="M76.8779 19.6159C77.7759 19.5893 78.6722 19.616 79.5668 19.6962C80.1812 21.0299 81.2404 21.752 82.7446 21.8623C83.6629 21.8102 84.5315 21.5829 85.352 21.1804C85.7676 20.8892 86.188 20.6084 86.615 20.338C87.0093 20.8462 87.3214 21.4078 87.552 22.0228C86.8953 22.9631 85.999 23.5915 84.8631 23.9082C82.9679 24.4002 81.1482 24.2131 79.4039 23.3466C78.0425 22.4443 77.2006 21.2008 76.8779 19.6159Z" fill="#4385F5"/>
<path fill-rule="evenodd" clip-rule="evenodd" d="M7.53699 19.7766C7.6783 19.9518 7.75978 20.1657 7.78143 20.4184C7.64563 20.5254 7.50983 20.5254 7.37402 20.4184C7.51895 20.2826 7.55969 20.1222 7.49625 19.9371C7.44293 20.033 7.40219 20.033 7.37402 19.9371C7.43454 19.8824 7.48886 19.8288 7.53699 19.7766Z" fill="#E0F2E4"/>
<path fill-rule="evenodd" clip-rule="evenodd" d="M8.51501 19.7766C8.72279 19.8074 8.83141 19.9278 8.84094 20.1376C8.67798 20.619 8.51501 20.619 8.35205 20.1376C8.3536 19.9906 8.40787 19.8702 8.51501 19.7766Z" fill="#DDF0E0"/>
<path fill-rule="evenodd" clip-rule="evenodd" d="M17.6409 20.3381C17.714 20.4262 17.7818 20.4262 17.8446 20.3381C17.8989 20.4451 17.8989 20.5521 17.8446 20.6591C17.7902 20.4451 17.736 20.4451 17.6816 20.6591C17.6417 20.5553 17.6281 20.4483 17.6409 20.3381Z" fill="#EAF6ED"/>
<path fill-rule="evenodd" clip-rule="evenodd" d="M8.51459 20.7393C8.62915 20.9268 8.73776 21.1274 8.84051 21.341C8.70468 21.3945 8.56894 21.3945 8.43311 21.341C8.58491 21.2272 8.62565 21.0802 8.55533 20.8997C8.50204 20.9957 8.4613 20.9957 8.43311 20.8997C8.46268 20.8449 8.48982 20.7914 8.51459 20.7393Z" fill="#F5FAF6"/>
<path fill-rule="evenodd" clip-rule="evenodd" d="M7.45537 20.7392C7.58932 20.722 7.71154 20.7488 7.82203 20.8194C7.88381 21.0014 7.87022 21.1753 7.78129 21.3409C7.64991 21.3986 7.52769 21.3853 7.41463 21.3008C7.35732 21.1059 7.3709 20.9187 7.45537 20.7392Z" fill="#C6E5CB"/>
<path fill-rule="evenodd" clip-rule="evenodd" d="M17.7221 20.8196C17.7819 20.9301 17.8363 21.0505 17.8851 21.1806C17.8036 21.2341 17.7221 21.2341 17.6406 21.1806C17.6742 21.0551 17.7013 20.9348 17.7221 20.8196Z" fill="#E5F4E9"/>
<path fill-rule="evenodd" clip-rule="evenodd" d="M17.1519 20.8196C17.4335 20.9027 17.4608 21.0364 17.2334 21.2207C17.0538 21.1179 17.0266 20.9841 17.1519 20.8196Z" fill="#B7DFC0"/>
<path fill-rule="evenodd" clip-rule="evenodd" d="M21.5517 21.5415C21.6332 21.5415 21.7147 21.5415 21.7962 21.5415C21.7644 21.7795 21.8188 21.9934 21.9592 22.1833C21.7962 22.2903 21.6332 22.2903 21.4703 22.1833C21.601 22.0486 21.6553 21.8882 21.6332 21.702C21.3542 21.7126 21.327 21.6592 21.5517 21.5415Z" fill="#D6EEDC"/>
<path fill-rule="evenodd" clip-rule="evenodd" d="M22.6112 21.5415C22.9952 21.539 23.1174 21.7261 22.9779 22.1031C22.6728 22.3454 22.4962 22.2652 22.4482 21.8624C22.4688 21.7362 22.523 21.6293 22.6112 21.5415Z" fill="#C4E5C9"/>
<path fill-rule="evenodd" clip-rule="evenodd" d="M21.4703 22.5846C21.9239 22.5247 22.0733 22.712 21.9185 23.1462C21.713 23.373 21.55 23.3462 21.4296 23.066C21.3896 22.9019 21.4032 22.7415 21.4703 22.5846Z" fill="#C7E6CB"/>
<path fill-rule="evenodd" clip-rule="evenodd" d="M1.26316 23.0659C1.49605 23.149 1.53679 23.2827 1.38538 23.4671C1.33106 23.2531 1.27674 23.2531 1.22242 23.4671C1.1703 23.3255 1.18387 23.1917 1.26316 23.0659Z" fill="#BFE3C7"/>
<path fill-rule="evenodd" clip-rule="evenodd" d="M22.6113 22.5845C22.6927 22.5845 22.7742 22.5845 22.8557 22.5845C22.8239 22.8224 22.8783 23.0363 23.0187 23.2263C22.8557 23.3333 22.6927 23.3333 22.5298 23.2263C22.7411 23.0449 22.7411 22.8711 22.5298 22.7048C22.5751 22.6741 22.6022 22.634 22.6113 22.5845Z" fill="#C3E5CB"/>
<path fill-rule="evenodd" clip-rule="evenodd" d="M11.3667 24.9914C11.3716 24.9478 11.3987 24.9211 11.4482 24.9111C11.5088 25.0308 11.5631 25.1511 11.6111 25.2722C11.5297 25.3257 11.4482 25.3257 11.3667 25.2722C11.4719 25.1685 11.4719 25.075 11.3667 24.9914Z" fill="#FEFFFE"/>
<path fill-rule="evenodd" clip-rule="evenodd" d="M12.0186 24.9111C12.1001 24.9111 12.1816 24.9111 12.263 24.9111C12.263 25.0449 12.263 25.1785 12.263 25.3123C11.9547 25.3103 11.8732 25.1765 12.0186 24.9111Z" fill="#CCE8D1"/>
<path fill-rule="evenodd" clip-rule="evenodd" d="M56.5889 25.1519C57.5395 25.1519 58.4901 25.1519 59.4407 25.1519C59.4407 25.9809 59.4407 26.81 59.4407 27.639C58.4901 27.639 57.5395 27.639 56.5889 27.639C56.5889 26.81 56.5889 25.9809 56.5889 25.1519Z" fill="#4787F5"/>
<path fill-rule="evenodd" clip-rule="evenodd" d="M12.0186 25.6332C12.0234 25.5896 12.0506 25.5629 12.1 25.553C12.1607 25.6726 12.2149 25.7929 12.263 25.914C12.1815 25.9675 12.1 25.9675 12.0186 25.914C12.1237 25.8104 12.1237 25.7168 12.0186 25.6332Z" fill="#F7FBF8"/>
<path fill-rule="evenodd" clip-rule="evenodd" d="M57.3222 25.6332C57.3271 25.5896 57.3542 25.5629 57.4037 25.553C57.4428 25.8039 57.5243 26.0311 57.6481 26.2349C57.5123 26.2884 57.3766 26.2884 57.2407 26.2349C57.3351 26.154 57.3894 26.047 57.4037 25.914C57.4025 25.8029 57.3753 25.7093 57.3222 25.6332Z" fill="#F7FAFE"/>
<path fill-rule="evenodd" clip-rule="evenodd" d="M58.5447 25.9541C58.4546 26.0985 58.5089 26.1921 58.7076 26.2349C58.4447 26.297 58.3361 26.19 58.3817 25.914C58.3494 25.5979 58.4853 25.491 58.7891 25.593C58.878 25.7586 58.8916 25.9325 58.8299 26.1145C58.8027 26.0343 58.7755 25.9541 58.7484 25.8738C58.6937 25.9342 58.6258 25.961 58.5447 25.9541Z" fill="#E8EFFD"/>
<path fill-rule="evenodd" clip-rule="evenodd" d="M18.1297 25.3123C18.3651 25.3523 18.4195 25.4726 18.2927 25.6733C18.2154 25.712 18.134 25.7254 18.0482 25.7134C18.0373 25.5696 18.0645 25.436 18.1297 25.3123Z" fill="#B3DEBD"/>
<path fill-rule="evenodd" clip-rule="evenodd" d="M58.5442 25.9542C58.4328 25.8264 58.46 25.7195 58.6257 25.6333C58.6528 25.66 58.6801 25.6868 58.7072 25.7135C58.6507 25.7952 58.5965 25.8754 58.5442 25.9542Z" fill="#4C89F5"/>
<path fill-rule="evenodd" clip-rule="evenodd" d="M11.3667 25.553C11.4255 25.5865 11.4663 25.6399 11.4889 25.7134C11.5434 25.5106 11.6113 25.5106 11.6926 25.7134C11.6456 25.8779 11.537 25.9581 11.3667 25.9541C11.3667 25.8204 11.3667 25.6867 11.3667 25.553Z" fill="#D4ECDA"/>
<path fill-rule="evenodd" clip-rule="evenodd" d="M17.5592 25.874C17.8408 25.9571 17.868 26.0909 17.6406 26.2752C17.4611 26.1723 17.4338 26.0386 17.5592 25.874Z" fill="#B8E0BF"/>
<path fill-rule="evenodd" clip-rule="evenodd" d="M58.5444 26.5959C58.6584 26.8108 58.7671 27.0381 58.8703 27.2779C58.7345 27.3314 58.5987 27.3314 58.4629 27.2779C58.6802 27.0907 58.6802 26.9035 58.4629 26.7163C58.5082 26.6856 58.5353 26.6454 58.5444 26.5959Z" fill="#F7FAFE"/>
<path fill-rule="evenodd" clip-rule="evenodd" d="M57.5665 26.6763C57.3376 26.713 57.2833 26.82 57.4035 26.9972C57.3639 27.0753 57.3231 27.1555 57.2813 27.2379C57.117 27.0271 57.1306 26.8266 57.3221 26.6362C57.4238 26.5768 57.5053 26.5902 57.5665 26.6763Z" fill="#F1F5FE"/>
<path fill-rule="evenodd" clip-rule="evenodd" d="M57.5669 26.6763C57.5479 26.8016 57.4936 26.9085 57.4039 26.9972C57.2837 26.82 57.338 26.713 57.5669 26.6763Z" fill="#4C8AF5"/>
<path fill-rule="evenodd" clip-rule="evenodd" d="M57.5668 26.6763C57.7249 26.7975 57.7657 26.958 57.689 27.1576C57.6357 27.2536 57.595 27.2536 57.5668 27.1576C57.6893 26.9165 57.635 26.863 57.4038 26.9972C57.4934 26.9085 57.5478 26.8016 57.5668 26.6763Z" fill="#F0F5FE"/>
</g>
<defs>
<clipPath id="clip0_2153_1283">
<rect width="88" height="28" fill="white"/>
</clipPath>
</defs>
</svg>
