<svg width="337" height="109" viewBox="0 0 337 109" fill="none" xmlns="http://www.w3.org/2000/svg">
<path opacity="0.983" fill-rule="evenodd" clip-rule="evenodd" d="M142.445 28.5774C146.189 28.9254 149.933 28.9775 153.678 28.7336C153.859 29.0123 153.964 29.3247 153.99 29.6705C152.607 48.9679 152.399 68.2799 153.366 87.606C153.359 89.287 153.255 90.9529 153.054 92.6032C149.654 93.0151 146.274 93.0151 142.913 92.6032C143.247 73.1781 142.987 53.762 142.133 34.3553C142.139 32.4052 142.243 30.4792 142.445 28.5774Z" fill="#E94134"/>
<path opacity="0.993" fill-rule="evenodd" clip-rule="evenodd" d="M163.352 28.5774C173.967 28.449 184.577 28.6052 195.179 29.0458C200.995 29.7408 205.624 32.3955 209.065 37.01C213.133 45.7597 211.313 52.9949 203.604 58.7163C211.205 63.373 213.962 70.0879 211.873 78.861C208.953 88.6017 202.401 93.2865 192.215 92.9155C182.594 92.5878 172.972 92.5357 163.352 92.7593C163.147 90.8576 163.043 88.9315 163.04 86.9814C163.309 79.5909 163.517 72.1992 163.664 64.8066C167.304 64.8066 170.944 64.8066 174.585 64.8066C174.483 70.8166 174.587 76.8028 174.897 82.765C181.812 83.9828 188.677 83.7745 195.491 82.1404C198.639 80.5828 200.355 78.0321 200.64 74.4885C201.37 69.7828 199.55 66.6074 195.179 64.9627C188.554 63.6813 181.897 63.5251 175.209 64.4943C175.209 61.0587 175.209 57.6232 175.209 54.1877C180.94 55.0722 186.661 55.02 192.371 54.0315C199.46 51.9664 201.28 47.6458 197.832 41.0702C195.486 38.6891 192.625 37.3876 189.251 37.1662C184.553 36.8745 179.872 36.9788 175.209 37.4785C174.967 38.2296 174.811 39.0104 174.741 39.8209C174.585 44.4005 174.533 48.9813 174.585 53.563C170.944 53.563 167.304 53.563 163.664 53.563C163.17 45.2175 163.066 36.8891 163.352 28.5774Z" fill="#4384F4"/>
<path opacity="0.99" fill-rule="evenodd" clip-rule="evenodd" d="M266.948 33.8867C269.671 34.09 272.375 34.4545 275.061 34.9798C275.843 35.0089 276.519 35.2691 277.089 35.7606C277.189 39.9329 277.033 44.0974 276.621 48.2535C273.189 48.2535 269.756 48.2535 266.324 48.2535C266.272 43.7757 266.324 39.2989 266.48 34.8237C266.64 34.5029 266.796 34.1906 266.948 33.8867Z" fill="#4385F5"/>
<path opacity="0.958" fill-rule="evenodd" clip-rule="evenodd" d="M126.531 47.6289C125.996 47.5886 125.476 47.4846 124.971 47.3166C124.329 41.5027 123.705 35.6726 123.099 29.8266C121.664 29.9203 120.26 29.8162 118.886 29.5143C108.62 36.7661 98.4266 44.1575 88.3066 51.6891C88.0985 54.9163 88.0985 58.1438 88.3066 61.371C89.2171 62.1696 90.2054 62.4819 91.271 62.308C91.2872 63.0585 91.1833 63.7871 90.9589 64.4942C90.0971 64.037 89.2131 63.6207 88.3066 63.2449C88.2442 64.5732 88.0882 65.8747 87.8386 67.149C85.761 67.3051 83.6807 67.357 81.5978 67.3051C82.4391 72.3482 83.4791 77.3453 84.7182 82.2965C85.6599 82.3481 86.596 82.2959 87.5265 82.1404C88.8365 80.4654 90.2924 78.9559 91.895 77.6117C92.3416 78.0115 92.5497 78.5321 92.5191 79.1733C91.4298 80.1072 90.3898 81.0963 89.3987 82.1404C89.6846 82.2572 89.9448 82.4133 90.1788 82.6088C91.305 82.0201 92.3971 81.3955 93.4552 80.7349C94.005 80.9729 94.3171 81.3895 94.3913 81.9842C93.2125 82.7313 91.9643 83.4081 90.6469 84.0143C92.2558 84.0568 93.8159 83.7963 95.3274 83.2335C95.9787 83.5724 96.3946 84.0927 96.5756 84.7951C94.376 85.1099 92.1918 85.5266 90.0228 86.0444C89.9267 86.8014 90.0309 87.5301 90.3349 88.2306C92.8711 89.2469 95.2635 90.4962 97.5117 91.9785C97.1997 92.2908 96.8876 92.6031 96.5756 92.9154C94.5676 91.862 92.4873 90.925 90.3349 90.1046C90.0334 90.6967 89.9295 91.3214 90.0228 91.9785C86.5623 92.1752 83.182 91.9669 79.8816 91.3538C77.2352 93.7184 74.5308 96.0087 71.7687 98.2249C71.7084 99.8646 71.5524 101.478 71.3006 103.066C69.4546 103.318 67.6342 103.266 65.84 102.91C65.6842 101.039 65.6321 99.1647 65.6839 97.2879C67.3515 97.3398 69.0155 97.2876 70.6765 97.1318C73.9538 94.5573 77.0221 92.0066 79.8816 89.4799C80.13 88.151 80.0779 86.8499 79.7256 85.5759C76.4726 84.6814 73.2483 83.6926 70.0524 82.6088C69.776 82.8665 69.6721 83.1788 69.7404 83.5458C67.8654 83.5977 65.9932 83.5455 64.1237 83.3896C63.7078 81.5157 63.7078 79.6418 64.1237 77.7679C66.0047 77.5086 67.8769 77.5605 69.7404 77.924C70.0456 78.9013 70.0456 79.9423 69.7404 81.0472C73.1135 81.8946 76.442 82.9359 79.7256 84.1705C80.027 83.5783 80.1309 82.9537 80.0376 82.2965C80.9737 82.2965 81.9099 82.2965 82.846 82.2965C81.8063 77.4059 80.7662 72.5128 79.7256 67.6174C76.4021 67.3576 73.0736 67.2014 69.7404 67.149C69.4524 66.5115 69.3485 65.8347 69.4284 65.1189C68.9999 65.0698 68.5837 65.122 68.1802 65.275C63.0379 67.7339 57.8371 69.972 52.5784 71.9899C46.9804 74.1762 41.5719 76.4667 36.3524 78.861C36.1334 80.9507 35.9256 83.0327 35.7284 85.1074C38.1863 88.6226 40.6826 92.11 43.2173 95.5702C44.774 95.726 46.3342 95.7782 47.8978 95.7263C47.8978 97.7043 47.8978 99.6825 47.8978 101.66C45.9451 101.757 44.0211 101.653 42.1251 101.348C41.8758 99.9155 41.9279 98.51 42.2812 97.1318C39.5876 93.145 36.7793 89.241 33.8562 85.4197C32.296 85.0034 30.7358 85.0034 29.1756 85.4197C26.9713 89.7279 24.683 93.9964 22.3108 98.2249C22.904 100.134 23.112 102.112 22.9349 104.159C20.9586 104.159 18.9824 104.159 17.0061 104.159C16.9543 102.282 17.0063 100.408 17.1622 98.5372C18.4103 98.3289 19.6585 98.1209 20.9066 97.9126C23.0713 93.7475 25.2036 89.583 27.3034 85.4197C25.8842 85.3079 25.4681 84.6314 26.0552 83.3896C19.8 86.1415 13.4552 88.8484 7.02096 91.51C7.11498 92.5741 7.01098 93.6672 6.70893 94.7894C4.94071 94.7894 3.17252 94.7894 1.4043 94.7894C1.4043 92.7071 1.4043 90.6252 1.4043 88.5429C3.17554 88.4911 4.94376 88.5433 6.70893 88.6991C6.93119 89.1442 6.98321 89.6126 6.86495 90.1046C13.1781 87.061 19.5749 84.1979 26.0552 81.5157C25.6392 80.4748 25.6392 79.4335 26.0552 78.3925C20.1227 74.9461 13.986 71.5105 7.64504 68.0859C6.00644 67.8348 4.39424 67.887 2.80846 68.2421C1.43305 66.1445 1.38105 64.0104 2.65245 61.8395C4.33336 61.5946 5.99754 61.6465 7.64504 61.9957C7.86109 62.1596 8.01711 62.368 8.11309 62.6203C8.22661 63.9842 8.2786 65.2857 8.26911 66.5243C13.8424 69.5729 19.355 72.6961 24.8071 75.8939C25.6878 75.6541 26.6239 75.4458 27.6154 75.2693C23.2071 67.0175 18.8386 58.741 14.5099 50.4398C13.2744 50.1815 12.0263 50.0253 10.7654 49.9713C10.6094 49.8151 10.4534 49.659 10.2974 49.5028C10.046 47.7588 10.098 46.0411 10.4534 44.3495C11.5375 44.2555 12.5776 43.9954 13.5737 43.5687C14.4574 43.906 15.3415 44.2184 16.2261 44.5057C16.4718 46.2922 16.4198 48.0618 16.07 49.8151C20.428 58.2416 24.7965 66.6742 29.1756 75.1131C29.433 75.3899 29.7451 75.4939 30.1117 75.4255C29.7661 67.4094 29.402 59.3931 29.0196 51.3768C28.3955 51.7931 27.7714 51.7931 27.1474 51.3768C26.9915 49.4013 26.9395 47.4234 26.9913 45.4427C28.5515 45.4427 30.1117 45.4427 31.6719 45.4427C31.6719 43.6727 31.6719 41.9031 31.6719 40.1332C32.7263 40.0776 33.7142 40.0776 34.6362 40.1332C37.776 36.0396 40.8445 31.8751 43.8413 27.6404C43.3293 26.6852 43.0694 25.6441 43.0612 24.5172C30.9651 27.3038 18.8477 30.1147 6.70893 32.9498C7.1205 33.5845 7.1205 34.2091 6.70893 34.8237C4.97494 35.1042 3.20675 35.2082 1.4043 35.1361C1.4043 33.1581 1.4043 31.18 1.4043 29.202C3.17554 29.1501 4.94376 29.2022 6.70893 29.3581C6.98358 29.7817 7.08758 30.2501 7.02096 30.7636C19.0078 28.5306 30.9692 25.8759 42.9052 22.7994C43.3081 22.1466 43.0999 21.7301 42.2812 21.5501C37.5866 19.971 32.8539 18.4614 28.0835 17.0215C26.1108 17.6051 24.0825 17.8133 21.9987 17.6461C21.9987 15.6681 21.9987 13.69 21.9987 11.712C23.871 11.712 25.7432 11.712 27.6154 11.712C27.6937 12.8045 27.6937 13.8976 27.6154 14.9914C28.1731 15.4032 28.7972 15.6635 29.4876 15.7722C33.9229 17.217 38.3957 18.6745 42.9052 20.1447C43.128 19.3554 43.3358 18.5746 43.5293 17.8023C44.5643 17.6466 45.6043 17.5946 46.6497 17.6461C46.2627 14.531 45.9507 11.4078 45.7136 8.27647C44.8814 8.27647 44.0495 8.27647 43.2173 8.27647C43.1655 6.39967 43.2176 4.52574 43.3733 2.65469C45.184 2.2436 47.0041 2.2436 48.8339 2.65469C49.1447 4.51712 49.2486 6.39105 49.146 8.27647C48.4105 8.22546 47.6825 8.27753 46.9617 8.43263C47.421 11.6128 47.993 14.788 48.6779 17.9584C50.1595 17.604 51.6675 17.5519 53.2024 17.8023C53.7644 18.2354 53.9726 18.7039 53.8265 19.2077C61.1307 15.5552 68.8277 12.0156 76.9173 8.58879C77.1238 7.35015 77.2277 6.10087 77.2293 4.84094C79.2082 4.78903 81.1844 4.84109 83.158 4.9971C83.1786 6.65171 83.1268 8.36948 83.002 10.1504C82.8712 10.5165 82.6634 10.8288 82.3779 11.0874C80.765 10.7982 79.2048 10.7982 77.6974 11.0874C77.3716 10.7367 77.1638 10.3203 77.0733 9.83807C70.1542 13.2028 63.2372 16.5342 56.3228 19.8323C55.7427 20.1741 55.1187 20.4343 54.4506 20.6131C66.1504 19.1961 77.8518 17.6865 89.5548 16.0845C90.0721 16.0298 90.4881 15.8216 90.8029 15.4598C91.0816 15.6414 91.3936 15.7456 91.739 15.7722C93.3248 15.3461 94.9368 15.1378 96.5756 15.1475C96.4892 14.227 96.5931 13.342 96.8876 12.4928C98.7514 12.4603 100.624 12.5124 102.504 12.649C102.504 14.627 102.504 16.605 102.504 18.5831C100.528 18.5831 98.5517 18.5831 96.5756 18.5831C96.6265 17.847 96.5747 17.1182 96.4196 16.3968C93.2849 16.9763 90.1645 17.601 87.0585 18.2707C86.9546 18.1666 86.8503 18.0625 86.7464 17.9584C75.5324 19.5981 64.4551 21.2638 53.5145 22.9555C53.8596 24.2913 53.9114 25.6447 53.6705 27.0157C53.4365 27.2112 53.1762 27.3673 52.8904 27.4842C58.7745 34.7788 64.5993 42.1183 70.3645 49.5028C72.7478 49.8142 75.1399 49.9185 77.5413 49.8151C78.0322 44.3311 78.552 38.8655 79.1015 33.4183C78.5149 33.5776 77.9429 33.5254 77.3853 33.2621C77.2293 31.2867 77.1775 29.3088 77.2293 27.328C79.182 27.2313 81.106 27.3354 83.002 27.6404C83.1287 29.5255 83.1808 31.3473 83.158 33.106C82.3096 33.5885 81.5295 33.6407 80.8177 33.2621C80.1553 38.8508 79.6872 44.3686 79.4136 49.8151C82.5667 49.9554 85.6871 49.7992 88.7747 49.3467C98.6494 42.1346 108.427 35.0552 118.106 28.1088C118.406 26.9439 118.51 25.7467 118.418 24.5172C115.755 23.8117 113.102 23.083 110.461 22.3309C110.345 22.6171 110.189 22.8773 109.993 23.1117C108.225 23.3199 106.457 23.3199 104.689 23.1117C104.273 21.2378 104.273 19.3639 104.689 17.4899C106.457 17.2817 108.225 17.2817 109.993 17.4899C110.201 18.531 110.409 19.5721 110.617 20.6131C113.185 21.4379 115.786 22.1146 118.418 22.6432C118.335 21.8251 118.438 21.0443 118.73 20.3008C119.562 20.1967 120.394 20.0926 121.227 19.9885C121.04 19.4818 120.831 19.0133 120.602 18.5831C119.29 14.8072 118.146 10.8512 117.17 6.71486C116.13 6.71486 115.09 6.71486 114.05 6.71486C114.05 4.84094 114.05 2.96701 114.05 1.09308C116.026 1.09308 118.002 1.09308 119.978 1.09308C119.978 2.96701 119.978 4.84094 119.978 6.71486C119.517 6.63303 119.101 6.73713 118.73 7.02718C120.102 11.2931 121.35 15.5095 122.475 19.6762C123.323 20.2283 124.207 20.2803 125.127 19.8323C127.127 15.4392 129.259 11.1188 131.524 6.87102C131.228 6.72023 130.916 6.66817 130.588 6.71486C130.588 4.84094 130.588 2.96701 130.588 1.09308C132.575 0.990122 134.551 1.09423 136.516 1.40541C136.529 3.01734 136.477 4.68306 136.36 6.40254C135.216 6.61076 134.072 6.81896 132.928 7.02718C130.9 11.2956 128.871 15.5639 126.843 19.8323C127.525 20.0575 128.201 20.2657 128.871 20.457C129.116 21.4752 129.064 22.4642 128.715 23.424C134.227 22.8949 139.844 22.4264 145.565 22.0186C145.477 20.9952 145.581 20.0062 145.877 19.0515C147.538 18.8956 149.203 18.8435 150.87 18.8954C150.87 20.8734 150.87 22.8515 150.87 24.8295C149.102 24.8295 147.334 24.8295 145.565 24.8295C145.565 24.4131 145.565 23.9966 145.565 23.5802C140.065 24.2348 134.552 24.8074 129.027 25.298C129.041 26.6406 128.988 28.046 128.871 29.5143C128.226 29.7528 127.55 29.909 126.843 29.9828C128.85 33.8787 130.827 37.7827 132.772 41.6948C134.087 41.9119 135.386 42.1199 136.672 42.3194C136.536 44.1 136.484 45.8696 136.516 47.6289C134.644 48.0452 132.772 48.0452 130.9 47.6289C130.663 45.9889 130.559 44.323 130.588 42.6318C130.736 42.3263 130.944 42.0662 131.212 41.851C128.921 38.0962 126.893 34.1922 125.127 30.1389C125.151 33.0301 125.411 35.8931 125.907 38.7278C125.803 38.8318 125.699 38.9361 125.595 39.0401C126.275 41.9116 126.587 44.7743 126.531 47.6289ZM45.7136 27.328C47.4847 27.2762 49.253 27.3282 51.0182 27.4842C56.8829 35.1051 62.8634 42.6527 68.9603 50.1275C69.409 52.6957 69.565 55.2986 69.4284 57.9355C62.3489 57.9186 55.2762 57.7103 48.2099 57.3108C48.2844 56.6965 48.1805 56.1237 47.8978 55.5931C46.1295 55.3848 44.3615 55.3848 42.5932 55.5931C42.1772 57.571 42.1772 59.5493 42.5932 61.5272C44.3615 61.7355 46.1295 61.7355 47.8978 61.5272C48.1418 60.6714 48.2978 59.7863 48.3659 58.8725C55.3605 59.36 62.3813 59.6723 69.4284 59.8094C69.4284 60.9547 69.4284 62.0997 69.4284 63.2449C68.6174 63.2603 67.9412 63.5726 67.4001 64.1819C67.2962 64.0779 67.192 63.9736 67.0881 63.8696C56.858 68.4476 46.5086 72.8201 36.0404 76.9871C36.1493 76.1922 35.8894 75.5676 35.2603 75.1131C34.0964 75.413 32.9004 75.517 31.6719 75.4255C31.4017 68.1037 31.0896 60.8682 30.7358 53.7192C30.7878 52.9384 30.8398 52.1576 30.8918 51.3768C31.5159 51.7931 32.1399 51.7931 32.764 51.3768C32.9197 49.61 32.9718 47.84 32.92 46.0673C34.3763 46.0673 35.8323 46.0673 37.2886 46.0673C37.3806 43.9666 37.2767 41.8847 36.9765 39.8209C40.0261 35.7317 42.9383 31.5675 45.7136 27.328Z" fill="#38AA55"/>
<path fill-rule="evenodd" clip-rule="evenodd" d="M134.332 43.5688C134.612 43.9118 134.872 43.9118 135.112 43.5688C135.265 43.9727 135.317 44.3893 135.268 44.8181C134.956 44.8181 134.644 44.8181 134.332 44.8181C134.332 44.4018 134.332 43.9852 134.332 43.5688Z" fill="#D1EBD6"/>
<path fill-rule="evenodd" clip-rule="evenodd" d="M35.1042 41.3826C35.3295 41.5131 35.4855 41.7211 35.5723 42.0072C35.6762 41.7989 35.7804 41.5909 35.8843 41.3826C36.0925 41.7989 36.0925 42.2155 35.8843 42.6319C35.6762 42.2155 35.4684 42.2155 35.2603 42.6319C35.1074 42.228 35.0552 41.8114 35.1042 41.3826Z" fill="#ECF6EF"/>
<path opacity="0.01" fill-rule="evenodd" clip-rule="evenodd" d="M6.70898 34.8237C7.12502 35.032 7.12502 35.032 6.70898 34.8237V34.8237Z" fill="#00FF00"/>
<path fill-rule="evenodd" clip-rule="evenodd" d="M4.52461 30.4512C4.81808 31.271 5.18213 31.271 5.61674 30.4512C5.8415 30.9548 5.78948 31.4231 5.46072 31.8566C5.16456 32.0493 4.90451 31.9975 4.68062 31.7005C4.52773 31.2966 4.47571 30.8801 4.52461 30.4512Z" fill="#ABDAB5"/>
<path fill-rule="evenodd" clip-rule="evenodd" d="M78.4775 30.7637C78.7896 30.7637 79.1016 30.7637 79.4137 30.7637C79.4137 31.2843 79.4137 31.8046 79.4137 32.3253C79.1016 32.3253 78.7896 32.3253 78.4775 32.3253C78.4775 31.8046 78.4775 31.2843 78.4775 30.7637Z" fill="#C1E3C8"/>
<path fill-rule="evenodd" clip-rule="evenodd" d="M80.6616 28.5772C81.2376 28.4905 81.6539 28.6987 81.9098 29.2019C81.7297 29.8421 81.3138 30.1544 80.6616 30.1389C80.6616 29.6183 80.6616 29.0978 80.6616 28.5772Z" fill="#CAE7CF"/>
<path fill-rule="evenodd" clip-rule="evenodd" d="M78.4775 28.8897C78.4963 28.7201 78.6002 28.616 78.7896 28.5774C79.0217 29.0429 79.2295 29.5114 79.4137 29.9828C79.1016 30.1911 78.7896 30.1911 78.4775 29.9828C78.8804 29.5794 78.8804 29.2151 78.4775 28.8897Z" fill="#F4FAF5"/>
<path fill-rule="evenodd" clip-rule="evenodd" d="M121.538 25.7665C123.045 25.7306 123.461 26.4073 122.787 27.7966C122.284 28.0215 121.816 27.9695 121.382 27.6404C121.23 27.0016 121.282 26.377 121.538 25.7665Z" fill="#DCEFDF"/>
<path fill-rule="evenodd" clip-rule="evenodd" d="M125.283 25.7664C125.724 26.3898 126.14 27.0665 126.531 27.7964C126.011 28.0047 125.491 28.0047 124.971 27.7964C125.803 27.2759 125.803 26.7554 124.971 26.2348C125.144 26.1153 125.248 25.9592 125.283 25.7664Z" fill="#F5FBF6"/>
<path fill-rule="evenodd" clip-rule="evenodd" d="M45.7133 23.2679C47.5059 23.0572 48.0258 23.7859 47.2734 25.4541C45.5011 25.7771 44.9809 25.0484 45.7133 23.2679Z" fill="#DAEEDD"/>
<path fill-rule="evenodd" clip-rule="evenodd" d="M124.971 22.3311C126.265 22.3164 126.733 22.9411 126.375 24.205C125.855 25.0379 125.335 25.0379 124.815 24.205C124.603 23.5499 124.655 22.9252 124.971 22.3311Z" fill="#CEE9D3"/>
<path fill-rule="evenodd" clip-rule="evenodd" d="M50.0821 23.2678C50.3941 23.2678 50.7061 23.2678 51.0182 23.2678C50.9345 24.0859 51.0385 24.8667 51.3302 25.6102C50.81 25.8185 50.2902 25.8185 49.77 25.6102C50.6022 24.9856 50.6022 24.3609 49.77 23.7363C49.9435 23.6168 50.0474 23.4606 50.0821 23.2678Z" fill="#E1F2E5"/>
<path fill-rule="evenodd" clip-rule="evenodd" d="M121.851 22.3311C122.392 22.9 122.704 23.6287 122.787 24.5173C122.267 24.9337 121.747 24.9337 121.227 24.5173C122.031 23.9121 122.031 23.3395 121.227 22.7995C121.512 22.7126 121.72 22.5564 121.851 22.3311Z" fill="#D3ECD9"/>
<path fill-rule="evenodd" clip-rule="evenodd" d="M105.937 20.7693C106.162 20.8997 106.318 21.1079 106.405 21.3939C106.509 21.1857 106.613 20.9775 106.717 20.7693C106.925 21.1857 106.925 21.6022 106.717 22.0186C106.509 21.6022 106.301 21.6022 106.093 22.0186C105.94 21.6147 105.888 21.1982 105.937 20.7693Z" fill="#E1F2E5"/>
<path opacity="0.01" fill-rule="evenodd" clip-rule="evenodd" d="M56.3228 19.8323C56.7387 20.0405 56.7387 20.0405 56.3228 19.8323V19.8323Z" fill="#00FF00"/>
<path fill-rule="evenodd" clip-rule="evenodd" d="M50.0821 19.2077C51.0912 19.1254 51.5075 19.5939 51.3302 20.6131C51.3686 21.9435 50.7967 22.3079 49.614 21.7063C49.3435 20.7628 49.4995 19.9299 50.0821 19.2077Z" fill="#E7F4E9"/>
<path fill-rule="evenodd" clip-rule="evenodd" d="M50.7061 20.457C51.1327 20.9545 51.0288 21.3709 50.3941 21.7063C50.2902 21.6022 50.1859 21.4981 50.082 21.394C50.2983 21.0761 50.5061 20.7638 50.7061 20.457Z" fill="#4FB268"/>
<path fill-rule="evenodd" clip-rule="evenodd" d="M108.121 18.583C109.199 18.9066 109.304 19.4272 108.433 20.1446C107.745 19.7442 107.641 19.2237 108.121 18.583Z" fill="#BAE0C1"/>
<path fill-rule="evenodd" clip-rule="evenodd" d="M46.3375 19.2078C46.4807 20.1415 46.7927 21.0264 47.2736 21.8625C46.7534 22.0707 46.2335 22.0707 45.7134 21.8625C46.3119 21.3096 46.4679 20.6329 46.1814 19.8324C45.9774 20.2058 45.8213 20.2058 45.7134 19.8324C45.9452 19.6195 46.153 19.4112 46.3375 19.2078Z" fill="#FAFDFB"/>
<path opacity="0.01" fill-rule="evenodd" clip-rule="evenodd" d="M120.601 18.583C120.395 18.7912 120.395 18.7912 120.601 18.583V18.583Z" fill="#00FF00"/>
<path opacity="0.01" fill-rule="evenodd" clip-rule="evenodd" d="M29.4873 15.46C29.9033 15.6682 29.9033 15.6682 29.4873 15.46V15.46Z" fill="#00FF00"/>
<path fill-rule="evenodd" clip-rule="evenodd" d="M23.2466 15.1475C23.5918 15.3503 23.9038 15.4544 24.1827 15.4598C23.4053 15.7848 23.4053 16.0451 24.1827 16.2406C23.8869 16.3914 23.5748 16.4434 23.2466 16.3967C23.2466 15.9803 23.2466 15.5639 23.2466 15.1475Z" fill="#DDF0E2"/>
<path fill-rule="evenodd" clip-rule="evenodd" d="M100.32 13.8982C100.632 13.8982 100.944 13.8982 101.256 13.8982C101.256 14.4187 101.256 14.9393 101.256 15.4598C100.944 15.4598 100.632 15.4598 100.32 15.4598C100.32 14.9393 100.32 14.4187 100.32 13.8982Z" fill="#C8E7CF"/>
<path fill-rule="evenodd" clip-rule="evenodd" d="M25.7429 12.9614C26.9601 13.638 26.8561 14.1586 25.4309 14.523C25.3891 13.9635 25.4931 13.443 25.7429 12.9614Z" fill="#ACDBB6"/>
<path fill-rule="evenodd" clip-rule="evenodd" d="M98.1357 14.2105C98.1545 14.0409 98.2584 13.9368 98.4478 13.8982C98.6799 14.3637 98.8878 14.8322 99.0719 15.3036C98.7598 15.5119 98.4478 15.5119 98.1357 15.3036C98.5386 14.9002 98.5386 14.5359 98.1357 14.2105Z" fill="#F0F8F2"/>
<path fill-rule="evenodd" clip-rule="evenodd" d="M80.9734 5.77783C81.7797 5.94908 82.0917 6.46962 81.9095 7.33944C81.4935 7.33944 81.0773 7.33944 80.6613 7.33944C80.6195 6.77991 80.7234 6.25937 80.9734 5.77783Z" fill="#B1DDBA"/>
<path fill-rule="evenodd" clip-rule="evenodd" d="M44.7772 5.77783C45.8556 6.10146 45.9598 6.622 45.0892 7.33944C44.4015 6.93904 44.2973 6.41853 44.7772 5.77783Z" fill="#B9E0BF"/>
<path fill-rule="evenodd" clip-rule="evenodd" d="M132.46 3.90405C133.035 4.1239 133.191 4.54031 132.928 5.15334C132.72 4.73692 132.512 4.73692 132.304 5.15334C132.123 4.70719 132.175 4.29077 132.46 3.90405Z" fill="#DEF0E1"/>
<path fill-rule="evenodd" clip-rule="evenodd" d="M117.794 4.52863C117.813 4.35901 117.917 4.25491 118.106 4.21631C118.338 4.68182 118.546 5.1503 118.73 5.62175C118.418 5.82998 118.106 5.82998 117.794 5.62175C118.197 5.21833 118.197 4.85397 117.794 4.52863Z" fill="#EDF7EF"/>
<path fill-rule="evenodd" clip-rule="evenodd" d="M115.298 4.21631C115.523 4.3467 115.679 4.55493 115.766 4.84095C115.862 4.58856 116.018 4.38037 116.234 4.21631C116.623 4.68679 116.623 5.15527 116.234 5.62175C115.938 5.81452 115.678 5.76248 115.454 5.46559C115.301 5.0617 115.249 4.64525 115.298 4.21631Z" fill="#C9E7CF"/>
<path fill-rule="evenodd" clip-rule="evenodd" d="M46.9618 3.5918C47.2738 3.5918 47.5858 3.5918 47.8979 3.5918C48.0177 4.26791 47.8096 4.78845 47.2738 5.1534C46.5861 4.75301 46.4819 4.23249 46.9618 3.5918Z" fill="#B3DEBC"/>
<path fill-rule="evenodd" clip-rule="evenodd" d="M44.7773 3.90412C44.7961 3.7345 44.9 3.6304 45.0894 3.5918C45.3215 4.05731 45.5294 4.52579 45.7135 4.99724C45.4014 5.20547 45.0894 5.20547 44.7773 4.99724C45.1802 4.59382 45.1802 4.22946 44.7773 3.90412Z" fill="#DEF1E3"/>
<path fill-rule="evenodd" clip-rule="evenodd" d="M132.459 2.03003C132.689 2.46026 132.897 2.92874 133.084 3.43547C132.772 3.6437 132.459 3.6437 132.147 3.43547C132.276 2.94703 132.38 2.47855 132.459 2.03003Z" fill="#D3ECDA"/>
<path fill-rule="evenodd" clip-rule="evenodd" d="M13.8854 45.4426C14.1653 45.7856 14.4254 45.7856 14.6655 45.4426C14.8736 45.859 14.8736 46.2756 14.6655 46.6919C14.4575 45.859 14.2495 45.859 14.0415 46.6919C13.8886 46.2881 13.8365 45.8714 13.8854 45.4426Z" fill="#ECF7EF"/>
<path opacity="0.991" fill-rule="evenodd" clip-rule="evenodd" d="M124.971 47.3167C125.475 47.4847 125.996 47.5887 126.531 47.629C128.614 47.9591 130.694 48.3236 132.772 48.7221C133.218 48.8674 133.582 49.1278 133.864 49.5029C133.955 62.2047 133.851 74.9059 133.552 87.6061C132.842 97.3717 127.693 103.046 118.106 104.628C111.929 105.299 105.896 104.674 100.008 102.754C98.3438 102.128 96.8358 101.243 95.4834 100.099C95.9749 97.7503 96.339 95.356 96.5755 92.9156C96.8876 92.6032 97.1996 92.2909 97.5116 91.9786C103.083 95.455 109.116 96.7565 115.61 95.8826C121.632 93.9759 123.869 89.9676 122.319 83.8582C117.867 88.8482 112.303 90.67 105.625 89.3239C102.21 88.5481 99.1932 87.0386 96.5755 84.7952C96.3946 84.0928 95.9786 83.5725 95.3274 83.2336C95.0116 82.8051 94.6996 82.3888 94.3913 81.9843C94.317 81.3897 94.005 80.973 93.4552 80.735C93.2648 80.131 92.9528 79.6104 92.5191 79.1734C92.5496 78.5322 92.3415 78.0116 91.895 77.6118C90.6456 73.3027 90.3335 68.9302 90.9589 64.4943C91.1832 63.7873 91.2871 63.0586 91.2709 62.3081C95.0724 50.9318 102.873 46.2992 114.674 48.4098C117.873 49.7244 120.525 51.7545 122.631 54.5001C122.735 52.1055 122.839 49.7113 122.943 47.3167C123.604 46.9716 124.28 46.9716 124.971 47.3167ZM109.681 56.6863C116.325 56.1038 120.538 59.0187 122.319 65.4313C123.56 71.0725 122.052 75.8094 117.794 79.6419C115.222 81.2788 112.414 81.7994 109.369 81.2035C104.077 79.0007 101.372 74.9927 101.256 69.1792C101.295 63.0417 104.104 58.8776 109.681 56.6863Z" fill="#E94234"/>
<path opacity="0.984" fill-rule="evenodd" clip-rule="evenodd" d="M312.193 47.0043C323.841 46.1423 331.486 51.2435 335.128 62.3081C335.599 64.9981 335.702 67.705 335.44 70.4284C334.691 71.9069 333.493 72.7917 331.851 73.0831C322.955 74.0941 314.062 74.9792 305.172 75.7379C305.016 73.0332 304.964 70.3263 305.016 67.6175C311.417 67.6731 317.763 67.1006 324.05 65.8998C324.387 65.6893 324.596 65.3769 324.674 64.9628C323.286 58.5437 319.332 55.6288 312.817 56.2178C308.977 57.3537 306.325 59.8004 304.86 63.5574C304.683 64.3906 304.527 65.2233 304.392 66.0559C301.063 66.0559 297.735 66.0559 294.407 66.0559C296.379 55.9626 302.308 49.6122 312.193 47.0043Z" fill="#4385F4"/>
<path fill-rule="evenodd" clip-rule="evenodd" d="M12.0135 47.3167C13.092 47.6402 13.196 48.1609 12.3255 48.8783C11.6377 48.4779 11.5337 47.9572 12.0135 47.3167Z" fill="#B5DEBD"/>
<path fill-rule="evenodd" clip-rule="evenodd" d="M266.948 49.5029C270.172 49.5029 273.397 49.5029 276.621 49.5029C276.621 52.3138 276.621 55.1247 276.621 57.9356C273.397 57.9356 270.172 57.9356 266.948 57.9356C266.948 55.1247 266.948 52.3138 266.948 49.5029Z" fill="#4686F5"/>
<path opacity="0.99" fill-rule="evenodd" clip-rule="evenodd" d="M217.334 49.8152C220.77 49.8155 224.203 49.9195 227.631 50.1275C227.495 56.0763 227.652 62.0104 228.099 67.9298C230.821 73.3842 234.306 78.2773 238.553 82.6089C242.245 78.1377 245.313 73.2449 247.758 67.9298C248.082 65.6536 248.238 63.363 248.226 61.0587C248.151 57.6101 247.995 54.1746 247.758 50.7521C247.914 50.596 248.07 50.4398 248.226 50.2837C251.451 49.8823 254.675 49.8302 257.899 50.1275C258.392 51.6423 258.651 53.2039 258.679 54.8123C258.946 60.1308 258.842 65.4403 258.367 70.7407C251.055 82.7782 243.202 94.438 234.808 105.721C232.972 107.09 230.892 107.714 228.567 107.595C228.515 104.157 228.567 100.722 228.723 97.288C229.92 95.7273 230.96 94.0617 231.844 92.2908C232.052 91.6662 232.052 91.0415 231.844 90.4169C228.012 85.0194 224.059 79.7099 219.986 74.4885C218.178 72.3242 217.242 69.8256 217.178 66.9928C216.926 61.2533 216.978 55.5275 217.334 49.8152Z" fill="#4384F5"/>
<path opacity="0.977" fill-rule="evenodd" clip-rule="evenodd" d="M266.011 58.8725C264.391 58.4231 262.727 58.1107 261.019 57.9355C260.405 56.1088 260.249 54.2348 260.551 52.3138C260.602 51.6341 260.862 51.0617 261.331 50.596C262.853 50.3349 264.361 50.0747 265.855 49.8152C266.011 52.8325 266.063 55.8517 266.011 58.8725Z" fill="#4384F5"/>
<path opacity="0.996" fill-rule="evenodd" clip-rule="evenodd" d="M278.181 49.503C281.927 49.4508 285.672 49.503 289.414 49.6591C289.604 50.0436 289.708 50.4599 289.727 50.9084C289.551 53.5647 289.343 56.2194 289.102 58.8726C288.549 59.0559 287.977 59.1599 287.386 59.1849C284.321 58.9182 281.253 58.7102 278.181 58.5603C278.181 55.5411 278.181 52.5222 278.181 49.503Z" fill="#4284F4"/>
<path fill-rule="evenodd" clip-rule="evenodd" d="M269.444 50.1274C269.881 50.9638 270.297 51.8486 270.692 52.7822C270.068 52.9905 269.444 52.9905 268.82 52.7822C269.418 52.2294 269.574 51.5526 269.288 50.7521C269.084 51.1256 268.928 51.1256 268.82 50.7521C269.052 50.5391 269.259 50.3308 269.444 50.1274Z" fill="#ECF2FD"/>
<path fill-rule="evenodd" clip-rule="evenodd" d="M273.813 50.4399C274.138 50.0366 274.502 50.0366 274.905 50.4399C275.145 51.2516 275.093 52.0324 274.749 52.7823C274.246 53.0071 273.778 52.9553 273.345 52.6261C273.136 52.0015 273.136 51.3768 273.345 50.7522C273.855 51.3803 274.115 52.0049 274.125 52.6261C274.505 52.5052 274.713 52.2451 274.749 51.8453C274.46 51.4861 274.46 51.1738 274.749 50.9083C274.517 50.5838 274.205 50.4277 273.813 50.4399Z" fill="#F1F5FE"/>
<path fill-rule="evenodd" clip-rule="evenodd" d="M75.045 53.2507C75.357 53.2507 75.6691 53.2507 75.9811 53.2507C75.9811 54.5 75.9811 55.7493 75.9811 56.9986C76.4423 56.9168 76.8582 57.0208 77.2293 57.3109C76.1892 57.7272 75.1489 57.7272 74.1089 57.3109C74.4799 57.0208 74.8958 56.9168 75.357 56.9986C75.456 56.0391 75.352 55.1022 75.045 54.1877C74.6989 54.5281 74.3869 54.5281 74.1089 54.1877C74.371 53.802 74.683 53.4897 75.045 53.2507Z" fill="#F8FCF9"/>
<path fill-rule="evenodd" clip-rule="evenodd" d="M81.2859 53.2507C83.7869 53.032 84.6709 54.177 83.9382 56.6862C82.8982 58.3518 81.8578 58.3518 80.8178 56.6862C80.5813 55.4816 80.7373 54.3366 81.2859 53.2507Z" fill="#F2F9F4"/>
<path fill-rule="evenodd" clip-rule="evenodd" d="M81.9097 53.8753C82.4099 53.8166 82.8262 53.9728 83.1579 54.3438C81.7908 55.9035 81.3749 55.7474 81.9097 53.8753Z" fill="#37A955"/>
<path fill-rule="evenodd" clip-rule="evenodd" d="M163.976 54.8123C167.512 54.8123 171.049 54.8123 174.585 54.8123C174.585 57.6231 174.585 60.434 174.585 63.2449C171.049 63.2449 167.512 63.2449 163.976 63.2449C163.976 60.434 163.976 57.6231 163.976 54.8123Z" fill="#4686F5"/>
<path fill-rule="evenodd" clip-rule="evenodd" d="M269.444 54.8123C269.876 54.406 270.344 54.406 270.848 54.8123C271.253 55.9601 270.941 56.7931 269.912 57.3109C269.671 57.2656 269.463 57.1616 269.288 56.9986C269.039 56.2056 269.092 55.4769 269.444 54.8123Z" fill="#E4EDFD"/>
<path fill-rule="evenodd" clip-rule="evenodd" d="M269.444 54.8124C270.301 54.7817 270.509 55.0941 270.068 55.7493C269.585 55.6491 269.377 55.3367 269.444 54.8124Z" fill="#4F8BF5"/>
<path fill-rule="evenodd" clip-rule="evenodd" d="M82.8459 55.437C83.2915 56.1538 83.1355 56.7784 82.3778 57.3109C81.4907 56.5467 81.6467 55.922 82.8459 55.437Z" fill="#40AC5B"/>
<path fill-rule="evenodd" clip-rule="evenodd" d="M166.472 55.7493C166.99 56.5026 167.302 57.3877 167.408 58.404C166.888 58.6123 166.368 58.6123 165.848 58.404C166.68 57.6754 166.68 56.9464 165.848 56.2177C166.133 56.1309 166.341 55.9748 166.472 55.7493Z" fill="#EDF3FE"/>
<path fill-rule="evenodd" clip-rule="evenodd" d="M170.84 56.0615C171.622 56.1027 171.831 56.4151 171.464 56.9985C170.47 57.4161 170.262 57.1037 170.84 56.0615Z" fill="#508CF5"/>
<path fill-rule="evenodd" clip-rule="evenodd" d="M170.84 56.0616C171.798 55.6065 172.214 55.971 172.088 57.1547C172.214 58.3384 171.798 58.7029 170.84 58.2478C171.717 58.1048 171.925 57.6885 171.464 56.9985C171.831 56.4151 171.623 56.1028 170.84 56.0616Z" fill="#F6F9FE"/>
<path fill-rule="evenodd" clip-rule="evenodd" d="M270.068 55.7494C270.341 55.7085 270.549 55.8125 270.692 56.0617C270.391 56.8684 269.975 57.0246 269.444 56.5302C269.719 56.3091 269.927 56.0486 270.068 55.7494Z" fill="#558EF5"/>
<path fill-rule="evenodd" clip-rule="evenodd" d="M170.84 56.0615C170.262 57.1037 170.47 57.4161 171.464 56.9985C171.121 57.3436 170.913 57.7599 170.84 58.2478C170.389 58.0498 170.181 57.6853 170.216 57.1546C170.181 56.624 170.389 56.2595 170.84 56.0615Z" fill="#ECF2FE"/>
<path fill-rule="evenodd" clip-rule="evenodd" d="M274.125 54.8123C274.143 54.6427 274.247 54.5387 274.437 54.5C274.617 55.396 274.929 56.2287 275.373 56.9986C274.853 57.4149 274.333 57.4149 273.812 56.9986C274.468 56.3018 274.572 55.5731 274.125 54.8123Z" fill="#C5D8FC"/>
<path fill-rule="evenodd" clip-rule="evenodd" d="M171.464 56.9985C171.925 57.6885 171.717 58.1048 170.84 58.2478C170.913 57.76 171.121 57.3436 171.464 56.9985Z" fill="#4586F5"/>
<path opacity="0.993" fill-rule="evenodd" clip-rule="evenodd" d="M266.012 58.8726C269.654 58.8204 273.294 58.8726 276.933 59.0288C276.203 66.556 276.151 74.1035 276.777 81.672C277.642 83.8498 279.254 84.8908 281.614 84.7952C284.513 84.2562 287.425 83.8398 290.351 83.5459C290.357 86.0539 290.201 88.5524 289.883 91.0416C289.39 91.5229 288.818 91.8874 288.166 92.1348C283.669 93.3987 279.092 93.8154 274.437 93.3841C270.115 92.9093 267.463 90.5669 266.48 86.3568C266.295 79.2762 266.347 72.1971 266.636 65.119C266.584 63.2451 266.532 61.3712 266.48 59.4972C266.256 59.3273 266.1 59.119 266.012 58.8726Z" fill="#4384F4"/>
<path fill-rule="evenodd" clip-rule="evenodd" d="M171.464 59.8096C171.608 60.7434 171.92 61.6282 172.401 62.4643C171.88 62.6726 171.36 62.6726 170.84 62.4643C171.673 61.7357 171.673 61.0067 170.84 60.2781C171.126 60.1912 171.334 60.0351 171.464 59.8096Z" fill="#FAFCFE"/>
<path fill-rule="evenodd" clip-rule="evenodd" d="M74.4208 60.434C76.9218 60.2154 77.8058 61.3603 77.0731 63.8695C76.0331 65.5351 74.9928 65.5351 73.9528 63.8695C73.6757 62.6509 73.8317 61.5056 74.4208 60.434Z" fill="#F2F9F3"/>
<path fill-rule="evenodd" clip-rule="evenodd" d="M81.9097 60.4341C82.2218 60.4341 82.5338 60.4341 82.8459 60.4341C82.8459 61.6834 82.8459 62.9326 82.8459 64.1819C83.307 64.1001 83.723 64.2041 84.094 64.4943C83.054 64.9106 82.0137 64.9106 80.9736 64.4943C81.3446 64.2041 81.7606 64.1001 82.2218 64.1819C82.3207 63.2225 82.2168 62.2855 81.9097 61.371C81.5637 61.7115 81.2517 61.7115 80.9736 61.371C81.2357 60.9853 81.5478 60.673 81.9097 60.4341Z" fill="#FAFCFA"/>
<path fill-rule="evenodd" clip-rule="evenodd" d="M167.408 61.0588C167.34 60.6918 167.443 60.3795 167.72 60.1218C168.078 60.8292 168.13 61.5579 167.876 62.3081C167.443 62.6373 166.975 62.6891 166.472 62.4642C166.131 61.8196 166.079 61.1428 166.316 60.4341C166.42 60.7465 166.524 61.0588 166.628 61.3711C166.837 61.1362 167.097 61.0319 167.408 61.0588Z" fill="#EDF2FE"/>
<path fill-rule="evenodd" clip-rule="evenodd" d="M75.045 61.0587C75.5452 60.9999 75.9614 61.1561 76.2931 61.5271C74.9261 63.0869 74.5101 62.9307 75.045 61.0587Z" fill="#3AAA57"/>
<path fill-rule="evenodd" clip-rule="evenodd" d="M167.408 61.0588C167.834 61.5564 167.73 61.9727 167.096 62.3081C166.992 62.2041 166.888 62.0998 166.784 61.9958C167 61.6779 167.208 61.3655 167.408 61.0588Z" fill="#4385F5"/>
<path fill-rule="evenodd" clip-rule="evenodd" d="M75.9811 62.6204C76.4267 63.3371 76.2707 63.9618 75.5131 64.4943C74.626 63.73 74.782 63.1054 75.9811 62.6204Z" fill="#3EAB5A"/>
<path fill-rule="evenodd" clip-rule="evenodd" d="M3.5884 63.2449C3.60713 63.0753 3.71113 62.9713 3.90044 62.9326C4.83437 64.1635 4.62633 64.632 3.27637 64.3381C3.89891 64.0495 4.00291 63.6853 3.5884 63.2449Z" fill="#E3F3E6"/>
<path fill-rule="evenodd" clip-rule="evenodd" d="M5.77263 62.9326C6.57887 63.1038 6.8909 63.6244 6.70874 64.4942C5.51351 64.4955 5.20147 63.9751 5.77263 62.9326Z" fill="#B2DDBA"/>
<path fill-rule="evenodd" clip-rule="evenodd" d="M294.407 66.9929C297.631 66.9929 300.856 66.9929 304.08 66.9929C304.08 69.8038 304.08 72.6147 304.08 75.4256C300.856 75.4256 297.631 75.4256 294.407 75.4256C294.407 72.6147 294.407 69.8038 294.407 66.9929Z" fill="#4586F5"/>
<path fill-rule="evenodd" clip-rule="evenodd" d="M296.903 67.6174C297.34 68.4538 297.756 69.3386 298.152 70.2722C297.503 70.5245 296.879 70.4724 296.279 70.116C297.089 69.4098 297.089 68.733 296.279 68.0859C296.565 67.9991 296.773 67.8429 296.903 67.6174Z" fill="#E7EEFD"/>
<path fill-rule="evenodd" clip-rule="evenodd" d="M302.208 67.9297C301.986 68.4075 301.674 68.8239 301.272 69.179C300.793 68.2951 301.105 67.8788 302.208 67.9297Z" fill="#588FF6"/>
<path fill-rule="evenodd" clip-rule="evenodd" d="M302.208 67.9297C302.56 68.5943 302.612 69.323 302.364 70.1159C301.961 70.5191 301.597 70.5191 301.272 70.1159C302.076 70.0466 302.336 69.6303 302.052 68.8667C301.843 69.1015 301.583 69.2058 301.272 69.179C301.674 68.8239 301.986 68.4075 302.208 67.9297Z" fill="#F0F5FE"/>
<path fill-rule="evenodd" clip-rule="evenodd" d="M302.208 67.9297C301.105 67.8788 300.793 68.2952 301.272 69.179C301.272 69.4914 301.272 69.8037 301.272 70.116C301.079 70.0813 300.923 69.9773 300.804 69.8037C300.595 69.179 300.595 68.5544 300.804 67.9297C301.308 67.5234 301.776 67.5234 302.208 67.9297Z" fill="#F0F5FE"/>
<path fill-rule="evenodd" clip-rule="evenodd" d="M301.272 70.116C301.272 69.8037 301.272 69.4913 301.272 69.179C301.583 69.2059 301.843 69.1016 302.052 68.8667C302.336 69.6303 302.076 70.0466 301.272 70.116Z" fill="#4F8BF5"/>
<path fill-rule="evenodd" clip-rule="evenodd" d="M301.584 71.6777C302.021 72.5141 302.437 73.3989 302.832 74.3325C302.208 74.5408 301.584 74.5408 300.96 74.3325C301.256 74.1816 301.568 74.1298 301.896 74.1763C302.026 73.3708 301.818 72.694 301.272 72.1462C301.445 72.0266 301.549 71.8704 301.584 71.6777Z" fill="#F3F7FE"/>
<path opacity="0.01" fill-rule="evenodd" clip-rule="evenodd" d="M52.5781 71.99C52.9941 72.1983 52.9941 72.1983 52.5781 71.99V71.99Z" fill="#00FF00"/>
<path fill-rule="evenodd" clip-rule="evenodd" d="M297.839 71.9899C298.221 72.1935 298.43 72.558 298.463 73.083C298.587 74.3133 298.067 74.7296 296.903 74.3323C296.559 73.5824 296.507 72.8016 296.747 71.9899C297.15 71.5867 297.514 71.5867 297.839 71.9899Z" fill="#EDF2FE"/>
<path fill-rule="evenodd" clip-rule="evenodd" d="M297.84 71.99C297.767 72.4778 297.559 72.8942 297.215 73.2393C296.755 72.5494 296.963 72.133 297.84 71.99Z" fill="#4486F5"/>
<path fill-rule="evenodd" clip-rule="evenodd" d="M297.215 73.2393C297.526 73.2662 297.786 73.1619 297.996 72.927C298.284 73.7497 298.024 74.1141 297.215 74.0201C296.873 73.7796 296.873 73.5195 297.215 73.2393Z" fill="#538DF5"/>
<path opacity="0.987" fill-rule="evenodd" clip-rule="evenodd" d="M294.407 76.3626C297.845 76.2589 301.278 76.3629 304.704 76.6749C307.057 81.8669 311.113 84.6778 316.873 85.1075C320.39 84.9045 323.716 84.0197 326.859 82.4528C328.45 81.3191 330.06 80.226 331.695 79.1734C333.205 81.152 334.401 83.3382 335.284 85.7322C332.769 89.3926 329.336 91.839 324.986 93.0717C317.728 94.9872 310.76 94.2585 304.08 90.8855C298.867 87.3731 295.642 82.5321 294.407 76.3626Z" fill="#4385F5"/>
<path fill-rule="evenodd" clip-rule="evenodd" d="M28.8633 76.9871C29.4045 77.6689 29.7165 78.5018 29.7994 79.4856C29.2794 79.902 28.7593 79.902 28.2393 79.4856C28.7942 78.9569 28.9503 78.3322 28.7073 77.6117C28.5031 77.9852 28.3471 77.9852 28.2393 77.6117C28.471 77.3987 28.679 77.1904 28.8633 76.9871Z" fill="#E0F2E4"/>
<path fill-rule="evenodd" clip-rule="evenodd" d="M32.608 76.9871C33.4037 77.107 33.8196 77.5755 33.8561 78.3925C33.232 80.2664 32.608 80.2664 31.9839 78.3925C31.9898 77.82 32.1976 77.3515 32.608 76.9871Z" fill="#DDF0E0"/>
<path fill-rule="evenodd" clip-rule="evenodd" d="M67.5559 79.1733C67.8358 79.5163 68.0957 79.5163 68.336 79.1733C68.5441 79.5897 68.5441 80.0063 68.336 80.4226C68.1279 79.5897 67.92 79.5897 67.7119 80.4226C67.559 80.0188 67.5069 79.6022 67.5559 79.1733Z" fill="#EAF6ED"/>
<path fill-rule="evenodd" clip-rule="evenodd" d="M32.6079 80.7349C33.0467 81.4651 33.4626 82.2459 33.8561 83.0773C33.3359 83.2856 32.8161 83.2856 32.2959 83.0773C32.8772 82.6344 33.0332 82.0619 32.764 81.3595C32.5599 81.733 32.4039 81.733 32.2959 81.3595C32.4092 81.1462 32.5131 80.9379 32.6079 80.7349Z" fill="#F5FAF6"/>
<path fill-rule="evenodd" clip-rule="evenodd" d="M28.5513 80.7349C29.0642 80.6681 29.5323 80.7724 29.9554 81.0472C30.192 81.7559 30.14 82.4327 29.7994 83.0773C29.2963 83.3022 28.8282 83.2503 28.3953 82.9212C28.1758 82.1625 28.2278 81.4339 28.5513 80.7349Z" fill="#C6E5CB"/>
<path fill-rule="evenodd" clip-rule="evenodd" d="M67.8682 81.0474C68.0972 81.4777 68.3054 81.9462 68.4923 82.4528C68.1802 82.6611 67.8682 82.6611 67.5562 82.4528C67.6847 81.9643 67.7886 81.4959 67.8682 81.0474Z" fill="#E5F4E9"/>
<path fill-rule="evenodd" clip-rule="evenodd" d="M65.6839 81.0474C66.7623 81.3709 66.8666 81.8916 65.996 82.609C65.3082 82.2086 65.204 81.6879 65.6839 81.0474Z" fill="#B7DFC0"/>
<path fill-rule="evenodd" clip-rule="evenodd" d="M82.5339 83.8582C82.8459 83.8582 83.158 83.8582 83.47 83.8582C83.3483 84.7845 83.5564 85.6171 84.0941 86.3567C83.47 86.773 82.8459 86.773 82.2219 86.3567C82.7224 85.8323 82.9305 85.2077 82.8459 84.4828C81.7772 84.5243 81.6733 84.3163 82.5339 83.8582Z" fill="#D6EEDC"/>
<path fill-rule="evenodd" clip-rule="evenodd" d="M86.5904 83.8583C88.061 83.8483 88.5291 84.5769 87.9945 86.0445C86.8263 86.9877 86.1501 86.6754 85.9663 85.1075C86.0449 84.6163 86.2528 84.1999 86.5904 83.8583Z" fill="#C4E5C9"/>
<path fill-rule="evenodd" clip-rule="evenodd" d="M82.2215 87.9184C83.9587 87.6851 84.5306 88.4141 83.9377 90.1046C83.1508 90.9873 82.5267 90.8833 82.0655 89.7923C81.9126 89.1536 81.9647 88.529 82.2215 87.9184Z" fill="#C7E6CB"/>
<path fill-rule="evenodd" clip-rule="evenodd" d="M4.8368 89.7922C5.72867 90.1155 5.88468 90.6361 5.30486 91.3538C5.09682 90.5209 4.88882 90.5209 4.68078 91.3538C4.48117 90.8026 4.53316 90.282 4.8368 89.7922Z" fill="#BFE3C7"/>
<path fill-rule="evenodd" clip-rule="evenodd" d="M86.5904 87.9185C86.9024 87.9185 87.2144 87.9185 87.5265 87.9185C87.4048 88.8448 87.6129 89.6774 88.1505 90.417C87.5265 90.8333 86.9024 90.8333 86.2783 90.417C87.0877 89.7109 87.0877 89.0341 86.2783 88.3869C86.4518 88.2673 86.5557 88.1112 86.5904 87.9185Z" fill="#C3E5CB"/>
<path fill-rule="evenodd" clip-rule="evenodd" d="M43.5293 97.2879C43.548 97.1183 43.6519 97.0143 43.8413 96.9756C44.0735 97.4413 44.2813 97.9097 44.4654 98.381C44.1534 98.5893 43.8413 98.5893 43.5293 98.381C43.9321 97.9775 43.9321 97.6133 43.5293 97.2879Z" fill="#FEFFFE"/>
<path fill-rule="evenodd" clip-rule="evenodd" d="M46.0254 96.9756C46.3374 96.9756 46.6494 96.9756 46.9615 96.9756C46.9615 97.4962 46.9615 98.0166 46.9615 98.5372C45.7807 98.5294 45.4687 98.0087 46.0254 96.9756Z" fill="#CCE8D1"/>
<path fill-rule="evenodd" clip-rule="evenodd" d="M216.71 97.9126C220.35 97.9126 223.991 97.9126 227.631 97.9126C227.631 101.14 227.631 104.367 227.631 107.595C223.991 107.595 220.35 107.595 216.71 107.595C216.71 104.367 216.71 101.14 216.71 97.9126Z" fill="#4787F5"/>
<path fill-rule="evenodd" clip-rule="evenodd" d="M46.0254 99.7864C46.0441 99.6169 46.148 99.5128 46.3374 99.4741C46.5696 99.9398 46.7774 100.408 46.9615 100.88C46.6495 101.088 46.3374 101.088 46.0254 100.88C46.4282 100.476 46.4282 100.112 46.0254 99.7864Z" fill="#F7FBF8"/>
<path fill-rule="evenodd" clip-rule="evenodd" d="M219.518 99.7864C219.537 99.6169 219.641 99.5128 219.83 99.4741C219.98 100.451 220.292 101.336 220.766 102.129C220.246 102.337 219.726 102.337 219.206 102.129C219.567 101.814 219.776 101.397 219.83 100.88C219.826 100.447 219.722 100.083 219.518 99.7864Z" fill="#F7FAFE"/>
<path fill-rule="evenodd" clip-rule="evenodd" d="M224.198 101.036C223.854 101.598 224.062 101.962 224.823 102.129C223.816 102.371 223.4 101.954 223.574 100.88C223.451 99.6494 223.971 99.2331 225.135 99.6303C225.475 100.275 225.527 100.952 225.291 101.66C225.187 101.348 225.082 101.036 224.979 100.723C224.769 100.958 224.509 101.063 224.198 101.036Z" fill="#E8EFFD"/>
<path fill-rule="evenodd" clip-rule="evenodd" d="M69.4285 98.5374C70.3299 98.6932 70.5381 99.1617 70.0525 99.9428C69.7567 100.094 69.4447 100.145 69.1164 100.099C69.0746 99.5393 69.1785 99.019 69.4285 98.5374Z" fill="#B3DEBD"/>
<path fill-rule="evenodd" clip-rule="evenodd" d="M224.199 101.036C223.772 100.538 223.876 100.122 224.511 99.7866C224.615 99.8906 224.719 99.9949 224.823 100.099C224.606 100.417 224.399 100.729 224.199 101.036Z" fill="#4C89F5"/>
<path fill-rule="evenodd" clip-rule="evenodd" d="M43.5293 99.4741C43.7546 99.6047 43.9106 99.8127 43.9974 100.099C44.2061 99.3092 44.466 99.3092 44.7774 100.099C44.5974 100.739 44.1815 101.051 43.5293 101.036C43.5293 100.515 43.5293 99.9948 43.5293 99.4741Z" fill="#D4ECDA"/>
<path fill-rule="evenodd" clip-rule="evenodd" d="M67.244 100.723C68.3224 101.047 68.4266 101.568 67.556 102.285C66.8683 101.885 66.7641 101.364 67.244 100.723Z" fill="#B8E0BF"/>
<path fill-rule="evenodd" clip-rule="evenodd" d="M224.199 103.534C224.636 104.371 225.052 105.256 225.447 106.189C224.927 106.397 224.407 106.397 223.887 106.189C224.719 105.461 224.719 104.732 223.887 104.003C224.06 103.883 224.164 103.727 224.199 103.534Z" fill="#F7FAFE"/>
<path fill-rule="evenodd" clip-rule="evenodd" d="M220.454 103.847C219.578 103.99 219.37 104.406 219.83 105.096C219.678 105.4 219.522 105.712 219.362 106.033C218.733 105.212 218.785 104.432 219.518 103.691C219.908 103.459 220.22 103.512 220.454 103.847Z" fill="#F1F5FE"/>
<path fill-rule="evenodd" clip-rule="evenodd" d="M220.454 103.847C220.382 104.335 220.173 104.751 219.83 105.096C219.37 104.406 219.578 103.99 220.454 103.847Z" fill="#4C8AF5"/>
<path fill-rule="evenodd" clip-rule="evenodd" d="M220.454 103.847C221.06 104.319 221.216 104.943 220.922 105.721C220.718 106.094 220.562 106.094 220.454 105.721C220.923 104.782 220.715 104.574 219.83 105.096C220.173 104.751 220.381 104.335 220.454 103.847Z" fill="#F0F5FE"/>
</svg>
