<svg width="21" height="20" viewBox="0 0 21 20" fill="none" xmlns="http://www.w3.org/2000/svg">
<path d="M19.9565 8.15425C20.0795 8.81325 20.1465 9.50225 20.1465 10.2213C20.1465 15.8453 16.3825 19.8442 10.6975 19.8442C9.40467 19.8446 8.12442 19.5903 6.92991 19.0957C5.73541 18.6012 4.65006 17.8761 3.73588 16.9619C2.8217 16.0477 2.09661 14.9624 1.60204 13.7679C1.10748 12.5733 0.853122 11.2931 0.853516 10.0003C0.853122 8.70741 1.10748 7.42716 1.60204 6.23265C2.09661 5.03814 2.8217 3.95279 3.73588 3.03861C4.65006 2.12443 5.73541 1.39935 6.92991 0.904778C8.12442 0.41021 9.40467 0.155856 10.6975 0.15625C13.3555 0.15625 15.5765 1.13425 17.2805 2.72225L14.5055 5.49725V5.49025C13.4725 4.50625 12.1615 4.00125 10.6975 4.00125C7.44952 4.00125 4.80952 6.74525 4.80952 9.99425C4.80952 13.2423 7.44952 15.9923 10.6975 15.9923C13.6445 15.9923 15.6505 14.3073 16.0625 11.9933H10.6975V8.15425H19.9575H19.9565Z" fill="#151515" fill-opacity="0.9"/>
</svg>
