<svg width="18" height="18" viewBox="0 0 18 18" fill="none" xmlns="http://www.w3.org/2000/svg">
<path d="M12.6 9C12.6 8.00625 12.2484 7.15781 11.5453 6.45469C10.8422 5.75156 9.99375 5.4 9 5.4C8.00625 5.4 7.15781 5.75156 6.45469 6.45469C5.75156 7.15781 5.4 8.00625 5.4 9C5.4 9.99375 5.75156 10.8422 6.45469 11.5453C7.15781 12.2484 8.00625 12.6 9 12.6C9.99375 12.6 10.8422 12.2484 11.5453 11.5453C12.2484 10.8422 12.6 9.99375 12.6 9ZM18 7.72031V10.3219C18 10.4156 17.9672 10.507 17.9016 10.5961C17.8359 10.6852 17.7609 10.7344 17.6766 10.7437L15.4969 11.0812C15.3937 11.4094 15.2438 11.7656 15.0469 12.15C15.3656 12.6 15.7875 13.1391 16.3125 13.7672C16.3781 13.8703 16.4109 13.9641 16.4109 14.0484C16.4109 14.1609 16.3781 14.25 16.3125 14.3156C16.0969 14.5969 15.7102 15.0164 15.1523 15.5742C14.5945 16.132 14.2266 16.4109 14.0484 16.4109C13.9453 16.4109 13.8469 16.3781 13.7531 16.3125L12.1359 15.0469C11.7891 15.225 11.4281 15.3703 11.0531 15.4828C10.95 16.4953 10.8422 17.2219 10.7297 17.6625C10.6641 17.8875 10.5234 18 10.3078 18H7.69219C7.58906 18 7.49531 17.9648 7.41094 17.8945C7.32656 17.8242 7.27969 17.7422 7.27031 17.6484L6.94687 15.4969C6.62812 15.4031 6.27656 15.2578 5.89219 15.0609L4.23281 16.3125C4.16719 16.3781 4.07344 16.4109 3.95156 16.4109C3.84844 16.4109 3.75 16.3734 3.65625 16.2984C2.30625 15.0516 1.63125 14.3016 1.63125 14.0484C1.63125 13.9641 1.66406 13.875 1.72969 13.7812C1.82344 13.65 2.01562 13.4016 2.30625 13.0359C2.59687 12.6703 2.81719 12.3844 2.96719 12.1781C2.75156 11.7656 2.5875 11.3812 2.475 11.025L0.3375 10.6875C0.24375 10.6781 0.164062 10.6336 0.0984375 10.5539C0.0328125 10.4742 0 10.3828 0 10.2797V7.67813C0 7.58438 0.0328125 7.49297 0.0984375 7.40391C0.164062 7.31484 0.239063 7.26562 0.323438 7.25625L2.50312 6.91875C2.60625 6.59062 2.75625 6.23438 2.95312 5.85C2.63438 5.4 2.2125 4.86094 1.6875 4.23281C1.62187 4.12969 1.58906 4.03594 1.58906 3.95156C1.58906 3.83906 1.62187 3.74531 1.6875 3.67031C1.89375 3.38906 2.27813 2.97187 2.84063 2.41875C3.40313 1.86563 3.77344 1.58906 3.95156 1.58906C4.05469 1.58906 4.15312 1.62187 4.24687 1.6875L5.86406 2.95313C6.18281 2.78438 6.54375 2.63437 6.94687 2.50312C7.05 1.49063 7.15781 0.76875 7.27031 0.3375C7.33594 0.1125 7.47656 0 7.69219 0H10.3078C10.4109 0 10.5047 0.0351562 10.5891 0.105469C10.6734 0.175781 10.7203 0.257813 10.7297 0.351563L11.0531 2.50312C11.3719 2.59687 11.7234 2.74219 12.1078 2.93906L13.7672 1.6875C13.8422 1.62187 13.9359 1.58906 14.0484 1.58906C14.1516 1.58906 14.25 1.62656 14.3437 1.70156C15.6937 2.94844 16.3687 3.69844 16.3687 3.95156C16.3687 4.02656 16.3359 4.11562 16.2703 4.21875C16.1578 4.36875 15.9609 4.62187 15.6797 4.97812C15.3984 5.33437 15.1875 5.61562 15.0469 5.82187C15.2625 6.27187 15.4219 6.65625 15.525 6.975L17.6625 7.29844C17.7563 7.31719 17.8359 7.36641 17.9016 7.44609C17.9672 7.52578 18 7.61719 18 7.72031Z" fill="white"/>
</svg>
