<svg width="15" height="13" viewBox="0 0 15 13" fill="none" xmlns="http://www.w3.org/2000/svg">
<path d="M12.7901 2.21208C12.4886 1.91048 12.1307 1.67122 11.7367 1.50799C11.3428 1.34476 10.9205 1.26074 10.4941 1.26074C10.0677 1.26074 9.64544 1.34476 9.25149 1.50799C8.85754 1.67122 8.49961 1.91048 8.19815 2.21208L7.57252 2.83771L6.94688 2.21208C6.33795 1.60315 5.51207 1.26106 4.65092 1.26106C3.78976 1.26106 2.96388 1.60315 2.35495 2.21208C1.74602 2.821 1.40393 3.64689 1.40393 4.50804C1.40393 5.36919 1.74602 6.19507 2.35495 6.804L2.98059 7.42964L7.57252 12.0216L12.1644 7.42964L12.7901 6.804C13.0917 6.50254 13.3309 6.14461 13.4942 5.75067C13.6574 5.35672 13.7414 4.93447 13.7414 4.50804C13.7414 4.08161 13.6574 3.65936 13.4942 3.26541C13.3309 2.87146 13.0917 2.51354 12.7901 2.21208V2.21208Z" stroke="#151515" stroke-opacity="0.7" stroke-width="1.02683" stroke-linecap="round" stroke-linejoin="round"/>
</svg>
