<svg width="16" height="17" viewBox="0 0 16 17" fill="none" xmlns="http://www.w3.org/2000/svg">
<path d="M8.00411 0.169922C12.4144 0.169922 16.0113 3.76377 16.0041 8.16684C16.0008 10.2903 15.1551 12.3258 13.6525 13.8263C12.1499 15.3267 10.1132 16.1696 7.98975 16.1699C3.56975 16.174 -0.00409903 12.5745 3.52859e-06 8.12325C0.00461891 3.74633 3.60513 0.169922 8.00411 0.169922ZM1.23077 8.15864C1.22564 11.8745 4.25231 14.9315 7.94308 14.9386C11.7164 14.9458 14.7636 11.9391 14.7728 8.19864C14.775 7.30741 14.6016 6.42448 14.2623 5.60035C13.923 4.77622 13.4246 4.02705 12.7956 3.39569C12.1666 2.76433 11.4193 2.26316 10.5964 1.92084C9.77351 1.57852 8.89123 1.40177 8 1.40069C4.28 1.38838 1.23641 4.42633 1.23077 8.15864Z" fill="#252525"/>
<path d="M1.23096 8.15919C1.23609 4.42791 4.27968 1.38996 8.00019 1.39919C8.89129 1.40074 9.77336 1.5779 10.5959 1.92056C11.4185 2.26322 12.1655 2.76465 12.7942 3.39618C13.4229 4.02772 13.9209 4.77697 14.2598 5.6011C14.5987 6.42523 14.7719 7.30809 14.7694 8.19919C14.7592 11.9397 11.713 14.9464 7.93968 14.9392C4.25301 14.932 1.22635 11.8751 1.23096 8.15919ZM7.9966 4.46688C7.85712 4.48227 7.71609 4.49355 7.57712 4.51457C6.43404 4.69047 5.52584 5.76227 5.54019 6.91765C5.5443 7.27663 5.8084 7.55047 6.15045 7.55304C6.50532 7.55304 6.7525 7.29201 6.77199 6.88945C6.78452 6.59824 6.8994 6.3208 7.0964 6.10598C7.29339 5.89115 7.55988 5.75273 7.84891 5.71509C8.42481 5.63509 8.99455 6.00278 9.17609 6.5674C9.27558 6.87509 9.2566 7.16842 9.04378 7.41919C8.84215 7.66773 8.62314 7.90165 8.3884 8.11919C7.83763 8.60791 7.50173 9.20586 7.39558 9.93252C7.37328 10.0932 7.41535 10.2562 7.51264 10.3861C7.60993 10.5159 7.75456 10.6021 7.91507 10.6259C8.24225 10.6771 8.58173 10.4418 8.60481 10.1069C8.62788 9.77201 8.78276 9.52227 8.9966 9.29663C9.21045 9.07099 9.46224 8.85611 9.68071 8.62278C10.171 8.09919 10.4915 7.48586 10.453 6.75714C10.3858 5.47611 9.28635 4.47509 7.99712 4.46688H7.9966ZM7.38788 11.833C7.38208 11.9549 7.4126 12.0757 7.47559 12.1801C7.53857 12.2846 7.63117 12.3679 7.74163 12.4197C7.8521 12.4714 7.97544 12.4891 8.09599 12.4706C8.21655 12.4521 8.32888 12.3982 8.41873 12.3157C8.50858 12.2332 8.57189 12.1259 8.60063 12.0073C8.62937 11.8888 8.62223 11.7644 8.58013 11.6499C8.53803 11.5354 8.46286 11.4361 8.36417 11.3644C8.26548 11.2927 8.14772 11.252 8.02583 11.2474C7.86421 11.2429 7.70718 11.3015 7.58808 11.4108C7.46897 11.5202 7.39716 11.6716 7.38788 11.833Z" fill="white"/>
<path d="M7.99714 4.46631C9.28637 4.47451 10.3859 5.47554 10.453 6.75605C10.4915 7.48477 10.171 8.0981 9.68073 8.62169C9.46227 8.85503 9.21919 9.06323 8.99663 9.29554C8.77406 9.52785 8.6274 9.77246 8.60483 10.1058C8.58227 10.4391 8.24227 10.674 7.91509 10.6248C7.75459 10.601 7.60996 10.5149 7.51267 10.385C7.41538 10.2552 7.37331 10.0921 7.3956 9.93144C7.50176 9.20477 7.83765 8.60682 8.38842 8.1181C8.62297 7.90071 8.84181 7.66696 9.0433 7.41861C9.25612 7.16785 9.27509 6.87503 9.1756 6.56682C8.99406 6.00272 8.42432 5.63451 7.84842 5.71451C7.55939 5.75216 7.29291 5.89058 7.09591 6.1054C6.89891 6.32022 6.78403 6.59767 6.7715 6.88887C6.75201 7.29144 6.50483 7.55554 6.14996 7.55246C5.80791 7.5499 5.54381 7.27503 5.53971 6.91708C5.52586 5.76169 6.43355 4.6899 7.57663 4.514C7.71663 4.49297 7.85765 4.48169 7.99714 4.46631Z" fill="#252525"/>
<path d="M7.38797 11.8328C7.39403 11.7111 7.43607 11.594 7.50875 11.4963C7.58144 11.3985 7.6815 11.3245 7.79627 11.2837C7.91103 11.2428 8.03534 11.237 8.15344 11.2668C8.27154 11.2967 8.37812 11.3609 8.45968 11.4514C8.54124 11.5419 8.59412 11.6545 8.6116 11.7751C8.62909 11.8956 8.6104 12.0187 8.55791 12.1286C8.50542 12.2385 8.42149 12.3304 8.31674 12.3926C8.212 12.4548 8.09115 12.4845 7.96951 12.4779C7.80696 12.4692 7.6545 12.3964 7.54551 12.2755C7.43651 12.1546 7.37987 11.9954 7.38797 11.8328Z" fill="#252525"/>
</svg>
