<svg width="16" height="16" viewBox="0 0 16 16" fill="none" xmlns="http://www.w3.org/2000/svg">
<path d="M8.00016 15.1666C4.04683 15.1666 0.833496 11.9533 0.833496 7.99992C0.833496 4.04659 4.04683 0.833252 8.00016 0.833252C11.9535 0.833252 15.1668 4.04659 15.1668 7.99992C15.1668 11.9533 11.9535 15.1666 8.00016 15.1666ZM8.00016 1.83325C4.60016 1.83325 1.8335 4.59992 1.8335 7.99992C1.8335 11.3999 4.60016 14.1666 8.00016 14.1666C11.4002 14.1666 14.1668 11.3999 14.1668 7.99992C14.1668 4.59992 11.4002 1.83325 8.00016 1.83325Z" fill="#252525"/>
<path d="M10.4731 10.6199C10.3864 10.6199 10.2998 10.5999 10.2198 10.5466L8.1531 9.31326C7.63977 9.00659 7.25977 8.33326 7.25977 7.73992V5.00659C7.25977 4.73326 7.48643 4.50659 7.75977 4.50659C8.0331 4.50659 8.25977 4.73326 8.25977 5.00659V7.73992C8.25977 7.97992 8.45977 8.33326 8.66643 8.45326L10.7331 9.68659C10.9731 9.82659 11.0464 10.1333 10.9064 10.3733C10.8064 10.5333 10.6398 10.6199 10.4731 10.6199Z" fill="#252525"/>
</svg>
