<svg width="20" height="20" viewBox="0 0 20 20" fill="none" xmlns="http://www.w3.org/2000/svg">
<path fill-rule="evenodd" clip-rule="evenodd" d="M14.2856 20H18.5713C19.3604 20 19.9999 19.3605 19.9999 18.5714V8.09531C19.9999 7.65436 19.7966 7.23817 19.4485 6.9677L10.8771 0.30107C10.3609 -0.100357 9.63899 -0.100357 9.1228 0.30107L0.551426 6.9677C0.203333 7.23817 0 7.65436 0 8.09531V18.5714C0 19.3605 0.63952 20 1.42856 20H5.71425V12.8572C5.71425 11.5424 6.78044 10.4762 8.09519 10.4762C9.25852 10.4762 10.7414 10.4762 11.9047 10.4762C13.2194 10.4762 14.2856 11.5424 14.2856 12.8572V20Z" fill="white"/>
</svg>
