<svg width="18" height="18" viewBox="0 0 18 18" fill="none" xmlns="http://www.w3.org/2000/svg">
<path opacity="0.7" fill-rule="evenodd" clip-rule="evenodd" d="M9.2835 0C11.4705 0 11.7891 0.0116999 12.7107 0.0539999C13.6683 0.0980999 14.3226 0.2502 14.895 0.4725C15.4957 0.698286 16.04 1.05242 16.4898 1.5102C16.9476 1.96 17.3017 2.50425 17.5275 3.105C17.7498 3.6774 17.9019 4.3317 17.946 5.2893C17.9892 6.2496 18 6.5556 18 9V9.072C18 11.4507 17.9892 11.7603 17.946 12.7107C17.9019 13.6683 17.7498 14.3226 17.5275 14.895C17.3017 15.4957 16.9476 16.04 16.4898 16.4898C16.04 16.9476 15.4957 17.3017 14.895 17.5275C14.3226 17.7498 13.6683 17.9019 12.7107 17.946C11.7504 17.9892 11.4444 18 9 18H8.928C6.5493 18 6.2397 17.9892 5.2893 17.946C4.3317 17.9019 3.6774 17.7498 3.105 17.5275C2.50425 17.3017 1.96 16.9476 1.5102 16.4898C1.05242 16.04 0.698286 15.4957 0.4725 14.895C0.2502 14.3226 0.0980999 13.6683 0.0539999 12.7107C0.0116999 11.7891 0 11.4696 0 9.2835V8.7165C0 6.5295 0.0116999 6.2109 0.0539999 5.2893C0.0980999 4.3317 0.2502 3.6774 0.4725 3.105C0.698286 2.50425 1.05242 1.96 1.5102 1.5102C1.96 1.05242 2.50425 0.698286 3.105 0.4725C3.6774 0.2502 4.3317 0.0980999 5.2893 0.0539999C6.2109 0.0116999 6.5304 0 8.7165 0H9.2835ZM9.2106 1.6218H8.7894C6.579 1.6218 6.2838 1.6317 5.3631 1.674C4.4856 1.7145 4.0095 1.8603 3.6918 1.9836C3.2715 2.1474 2.9718 2.3418 2.6568 2.6568C2.3418 2.9718 2.1474 3.2715 1.9836 3.6918C1.8603 4.0095 1.7136 4.4856 1.674 5.3631C1.6317 6.2838 1.6218 6.579 1.6218 8.7894V9.2106C1.6218 11.421 1.6317 11.7162 1.674 12.6369C1.7145 13.5144 1.8603 13.9905 1.9836 14.3082C2.1474 14.7276 2.3427 15.0282 2.6568 15.3432C2.9718 15.6582 3.2715 15.8526 3.6918 16.0164C4.0095 16.1397 4.4856 16.2864 5.3631 16.326C6.3117 16.3692 6.5961 16.3782 9 16.3782H9.072C11.4093 16.3782 11.6973 16.3692 12.636 16.326C13.5144 16.2855 13.9905 16.1397 14.3082 16.0164C14.7276 15.8526 15.0282 15.6582 15.3432 15.3432C15.6582 15.0282 15.8526 14.7285 16.0164 14.3082C16.1397 13.9905 16.2864 13.5144 16.326 12.6369C16.3692 11.6874 16.3782 11.4039 16.3782 9V8.928C16.3782 6.5907 16.3692 6.3027 16.326 5.364C16.2855 4.4856 16.1397 4.0095 16.0164 3.6918C15.8722 3.30081 15.6422 2.94714 15.3432 2.6568C15.0528 2.35787 14.6992 2.12783 14.3082 1.9836C13.9905 1.8603 13.5144 1.7136 12.6369 1.674C11.7162 1.6317 11.421 1.6218 9.2106 1.6218ZM9 4.3785C9.6069 4.3785 10.2079 4.49804 10.7686 4.73029C11.3293 4.96254 11.8387 5.30296 12.2679 5.73211C12.697 6.16125 13.0375 6.67072 13.2697 7.23143C13.502 7.79213 13.6215 8.3931 13.6215 9C13.6215 9.6069 13.502 10.2079 13.2697 10.7686C13.0375 11.3293 12.697 11.8387 12.2679 12.2679C11.8387 12.697 11.3293 13.0375 10.7686 13.2697C10.2079 13.502 9.6069 13.6215 9 13.6215C7.7743 13.6215 6.59881 13.1346 5.73211 12.2679C4.86541 11.4012 4.3785 10.2257 4.3785 9C4.3785 7.7743 4.86541 6.59881 5.73211 5.73211C6.59881 4.86541 7.7743 4.3785 9 4.3785ZM9 6.0003C8.20443 6.0003 7.44144 6.31634 6.87889 6.87889C6.31634 7.44144 6.0003 8.20443 6.0003 9C6.0003 9.79557 6.31634 10.5586 6.87889 11.1211C7.44144 11.6837 8.20443 11.9997 9 11.9997C9.79557 11.9997 10.5586 11.6837 11.1211 11.1211C11.6837 10.5586 11.9997 9.79557 11.9997 9C11.9997 8.20443 11.6837 7.44144 11.1211 6.87889C10.5586 6.31634 9.79557 6.0003 9 6.0003ZM13.8042 3.1158C14.0906 3.1158 14.3653 3.22959 14.5679 3.43212C14.7704 3.63466 14.8842 3.90937 14.8842 4.1958C14.8842 4.48223 14.7704 4.75694 14.5679 4.95948C14.3653 5.16201 14.0906 5.2758 13.8042 5.2758C13.5178 5.2758 13.2431 5.16201 13.0405 4.95948C12.838 4.75694 12.7242 4.48223 12.7242 4.1958C12.7242 3.90937 12.838 3.63466 13.0405 3.43212C13.2431 3.22959 13.5178 3.1158 13.8042 3.1158Z" fill="#252525"/>
</svg>
