<svg width="21" height="21" viewBox="0 0 21 21" fill="none" xmlns="http://www.w3.org/2000/svg">
<path d="M6.68055 10.8758C6.68055 9.04971 8.1742 7.56897 10.0172 7.56897C11.8602 7.56897 13.3547 9.04971 13.3547 10.8758C13.3547 12.7019 11.8602 14.1827 10.0172 14.1827C8.1742 14.1827 6.68055 12.7019 6.68055 10.8758ZM4.87638 10.8758C4.87638 13.6891 7.17792 15.9695 10.0172 15.9695C12.8565 15.9695 15.158 13.6891 15.158 10.8758C15.158 8.06258 12.8565 5.78214 10.0172 5.78214C7.17792 5.78214 4.87638 8.06258 4.87638 10.8758ZM14.1602 5.58018C14.1601 5.81561 14.2304 6.04578 14.3624 6.24159C14.4943 6.4374 14.6819 6.59005 14.9014 6.68023C15.1209 6.77041 15.3624 6.79408 15.5955 6.74824C15.8285 6.70241 16.0426 6.58912 16.2107 6.42271C16.3788 6.2563 16.4933 6.04424 16.5398 5.81335C16.5862 5.58246 16.5625 5.3431 16.4717 5.12556C16.3808 4.90801 16.2269 4.72204 16.0294 4.59116C15.8319 4.46028 15.5997 4.39037 15.362 4.39028H15.3616C15.0431 4.39043 14.7376 4.51582 14.5124 4.73893C14.2871 4.96203 14.1604 5.2646 14.1602 5.58018ZM5.97253 18.9503C4.99644 18.9062 4.4659 18.7451 4.11333 18.609C3.64591 18.4287 3.31241 18.214 2.96176 17.867C2.61111 17.5201 2.39406 17.19 2.21289 16.7268C2.07545 16.3776 1.91286 15.8518 1.86849 14.8847C1.81996 13.8391 1.81027 13.525 1.81027 10.8759C1.81027 8.22685 1.82076 7.91362 1.86849 6.86713C1.91294 5.89999 2.07673 5.37519 2.21289 5.02499C2.39486 4.56185 2.61159 4.2314 2.96176 3.88397C3.31192 3.53654 3.64511 3.32148 4.11333 3.14198C4.46574 3.0058 4.99644 2.8447 5.97253 2.80074C7.02783 2.75264 7.34484 2.74304 10.0172 2.74304C12.6896 2.74304 13.0069 2.75344 14.0631 2.80074C15.0392 2.84478 15.5688 3.00707 15.9223 3.14198C16.3897 3.32148 16.7232 3.53702 17.0739 3.88397C17.4245 4.23093 17.6408 4.56185 17.8227 5.02499C17.9602 5.37416 18.1228 5.89999 18.1671 6.86713C18.2157 7.91362 18.2254 8.22685 18.2254 10.8759C18.2254 13.525 18.2157 13.8382 18.1671 14.8847C18.1227 15.8518 17.9593 16.3775 17.8227 16.7268C17.6408 17.19 17.424 17.5204 17.0739 17.867C16.7237 18.2137 16.3897 18.4287 15.9223 18.609C15.5699 18.7452 15.0392 18.9063 14.0631 18.9503C13.0078 18.9984 12.6908 19.008 10.0172 19.008C7.34363 19.008 7.02751 18.9984 5.97253 18.9503ZM5.88963 1.01613C4.82384 1.06422 4.09555 1.23167 3.45954 1.47688C2.80085 1.73011 2.24325 2.06985 1.68604 2.62107C1.12884 3.17229 0.78684 3.72565 0.531264 4.3783C0.283777 5.00888 0.114782 5.73008 0.0662455 6.7861C0.0169083 7.84379 0.00561523 8.18193 0.00561523 10.8758C0.00561523 13.5697 0.0169083 13.9079 0.0662455 14.9655C0.114782 16.0216 0.283777 16.7428 0.531264 17.3734C0.78684 18.0256 1.12892 18.5796 1.68604 19.1306C2.24317 19.6816 2.80085 20.0208 3.45954 20.2748C4.09675 20.52 4.82384 20.6874 5.88963 20.7355C6.95767 20.7836 7.29838 20.7956 10.0172 20.7956C12.736 20.7956 13.0773 20.7844 14.1448 20.7355C15.2107 20.6874 15.9385 20.52 16.5749 20.2748C17.2332 20.0208 17.7912 19.6818 18.3484 19.1306C18.9056 18.5794 19.2469 18.0256 19.5032 17.3734C19.7506 16.7428 19.9204 16.0216 19.9682 14.9655C20.0167 13.9071 20.028 13.5697 20.028 10.8758C20.028 8.18193 20.0167 7.84379 19.9682 6.7861C19.9196 5.73 19.7506 5.00848 19.5032 4.3783C19.2469 3.72605 18.9047 3.17316 18.3484 2.62107C17.7921 2.06897 17.2332 1.73011 16.5757 1.47688C15.9385 1.23167 15.2106 1.06343 14.1456 1.01613C13.0781 0.968038 12.7368 0.956055 10.018 0.956055C7.29918 0.956055 6.95767 0.967244 5.88963 1.01613Z" fill="#252525"/>
<path d="M6.68055 10.8758C6.68055 9.04971 8.1742 7.56897 10.0172 7.56897C11.8602 7.56897 13.3547 9.04971 13.3547 10.8758C13.3547 12.7019 11.8602 14.1827 10.0172 14.1827C8.1742 14.1827 6.68055 12.7019 6.68055 10.8758ZM4.87638 10.8758C4.87638 13.6891 7.17792 15.9695 10.0172 15.9695C12.8565 15.9695 15.158 13.6891 15.158 10.8758C15.158 8.06258 12.8565 5.78214 10.0172 5.78214C7.17792 5.78214 4.87638 8.06258 4.87638 10.8758ZM14.1602 5.58018C14.1601 5.81561 14.2304 6.04578 14.3624 6.24159C14.4943 6.4374 14.6819 6.59005 14.9014 6.68023C15.1209 6.77041 15.3624 6.79408 15.5955 6.74824C15.8285 6.70241 16.0426 6.58912 16.2107 6.42271C16.3788 6.2563 16.4933 6.04424 16.5398 5.81335C16.5862 5.58246 16.5625 5.3431 16.4717 5.12556C16.3808 4.90801 16.2269 4.72204 16.0294 4.59116C15.8319 4.46028 15.5997 4.39037 15.362 4.39028H15.3616C15.0431 4.39043 14.7376 4.51582 14.5124 4.73893C14.2871 4.96203 14.1604 5.2646 14.1602 5.58018ZM5.97253 18.9503C4.99644 18.9062 4.4659 18.7451 4.11333 18.609C3.64591 18.4287 3.31241 18.214 2.96176 17.867C2.61111 17.5201 2.39406 17.19 2.21289 16.7268C2.07545 16.3776 1.91286 15.8518 1.86849 14.8847C1.81996 13.8391 1.81027 13.525 1.81027 10.8759C1.81027 8.22685 1.82076 7.91362 1.86849 6.86713C1.91294 5.89999 2.07673 5.37519 2.21289 5.02499C2.39486 4.56185 2.61159 4.2314 2.96176 3.88397C3.31192 3.53654 3.64511 3.32148 4.11333 3.14198C4.46574 3.0058 4.99644 2.8447 5.97253 2.80074C7.02783 2.75264 7.34484 2.74304 10.0172 2.74304C12.6896 2.74304 13.0069 2.75344 14.0631 2.80074C15.0392 2.84478 15.5688 3.00707 15.9223 3.14198C16.3897 3.32148 16.7232 3.53702 17.0739 3.88397C17.4245 4.23093 17.6408 4.56185 17.8227 5.02499C17.9602 5.37416 18.1228 5.89999 18.1671 6.86713C18.2157 7.91362 18.2254 8.22685 18.2254 10.8759C18.2254 13.525 18.2157 13.8382 18.1671 14.8847C18.1227 15.8518 17.9593 16.3775 17.8227 16.7268C17.6408 17.19 17.424 17.5204 17.0739 17.867C16.7237 18.2137 16.3897 18.4287 15.9223 18.609C15.5699 18.7452 15.0392 18.9063 14.0631 18.9503C13.0078 18.9984 12.6908 19.008 10.0172 19.008C7.34363 19.008 7.02751 18.9984 5.97253 18.9503ZM5.88963 1.01613C4.82384 1.06422 4.09555 1.23167 3.45954 1.47688C2.80085 1.73011 2.24325 2.06985 1.68604 2.62107C1.12884 3.17229 0.78684 3.72565 0.531264 4.3783C0.283777 5.00888 0.114782 5.73008 0.0662455 6.7861C0.0169083 7.84379 0.00561523 8.18193 0.00561523 10.8758C0.00561523 13.5697 0.0169083 13.9079 0.0662455 14.9655C0.114782 16.0216 0.283777 16.7428 0.531264 17.3734C0.78684 18.0256 1.12892 18.5796 1.68604 19.1306C2.24317 19.6816 2.80085 20.0208 3.45954 20.2748C4.09675 20.52 4.82384 20.6874 5.88963 20.7355C6.95767 20.7836 7.29838 20.7956 10.0172 20.7956C12.736 20.7956 13.0773 20.7844 14.1448 20.7355C15.2107 20.6874 15.9385 20.52 16.5749 20.2748C17.2332 20.0208 17.7912 19.6818 18.3484 19.1306C18.9056 18.5794 19.2469 18.0256 19.5032 17.3734C19.7506 16.7428 19.9204 16.0216 19.9682 14.9655C20.0167 13.9071 20.028 13.5697 20.028 10.8758C20.028 8.18193 20.0167 7.84379 19.9682 6.7861C19.9196 5.73 19.7506 5.00848 19.5032 4.3783C19.2469 3.72605 18.9047 3.17316 18.3484 2.62107C17.7921 2.06897 17.2332 1.73011 16.5757 1.47688C15.9385 1.23167 15.2106 1.06343 14.1456 1.01613C13.0781 0.968038 12.7368 0.956055 10.018 0.956055C7.29918 0.956055 6.95767 0.967244 5.88963 1.01613Z" fill="#252525"/>
</svg>
