<svg width="18" height="18" viewBox="0 0 18 18" fill="none" xmlns="http://www.w3.org/2000/svg">
<path d="M4.40762 17.0002V6.29122H0.817336V17.0002H4.40799H4.40762ZM2.61323 4.82935C3.86497 4.82935 4.64427 4.00703 4.64427 2.97936C4.62084 1.92828 3.86497 1.12891 2.63703 1.12891C1.40825 1.12891 0.605713 1.92828 0.605713 2.97927C0.605713 4.00694 1.38473 4.82926 2.5897 4.82926H2.61295L2.61323 4.82935ZM6.39489 17.0002H9.98489V11.0205C9.98489 10.7008 10.0083 10.3803 10.1032 10.152C10.3626 9.51231 10.9533 8.85008 11.9454 8.85008C13.2442 8.85008 13.764 9.83204 13.764 11.2718V17.0002H17.3539V10.86C17.3539 7.57079 15.583 6.04016 13.2209 6.04016C11.2843 6.04016 10.4338 7.11327 9.96127 7.84416H9.98517V6.29159H6.39508C6.44194 7.29622 6.3948 17.0005 6.3948 17.0005L6.39489 17.0002Z" fill="black"/>
</svg>
