<svg width="17" height="10" viewBox="0 0 17 10" fill="none" xmlns="http://www.w3.org/2000/svg">
<path d="M6.16577 5.42847H10.4289" stroke="#151515" stroke-opacity="0.7" stroke-width="1.42105" stroke-linecap="round" stroke-linejoin="round"/>
<path d="M10.4297 1.6543H11.1402C12.2709 1.6543 13.3552 2.05182 14.1547 2.75942C14.9542 3.46703 15.4034 4.42674 15.4034 5.42744C15.4034 6.42814 14.9542 7.38785 14.1547 8.09545C13.3552 8.80305 12.2709 9.20058 11.1402 9.20058H10.4297" stroke="#151515" stroke-opacity="0.7" stroke-width="1.42105" stroke-linecap="round" stroke-linejoin="round"/>
<path d="M6.16558 9.20033H5.45505C4.32439 9.20033 3.24004 8.80281 2.44054 8.09521C1.64105 7.38761 1.19189 6.42789 1.19189 5.42719C1.19189 4.42649 1.64105 3.46678 2.44054 2.75918C3.24004 2.05158 4.32439 1.65405 5.45505 1.65405H6.16558" stroke="#151515" stroke-opacity="0.7" stroke-width="1.42105" stroke-linecap="round" stroke-linejoin="round"/>
</svg>
