<svg width="13" height="15" viewBox="0 0 13 15" fill="none" xmlns="http://www.w3.org/2000/svg">
<path d="M11.2927 6.77649C11.2927 10.7792 6.14636 14.2101 6.14636 14.2101C6.14636 14.2101 1 10.7792 1 6.77649C1 5.41159 1.5422 4.10259 2.50733 3.13746C3.47246 2.17233 4.78146 1.63013 6.14636 1.63013C7.51126 1.63013 8.82026 2.17233 9.78539 3.13746C10.7505 4.10259 11.2927 5.41159 11.2927 6.77649Z" stroke="#252525" stroke-width="1.5" stroke-linecap="round" stroke-linejoin="round"/>
<path d="M6.14636 8.49194C7.09378 8.49194 7.86182 7.72391 7.86182 6.77649C7.86182 5.82907 7.09378 5.06104 6.14636 5.06104C5.19894 5.06104 4.43091 5.82907 4.43091 6.77649C4.43091 7.72391 5.19894 8.49194 6.14636 8.49194Z" stroke="#252525" stroke-width="1.5" stroke-linecap="round" stroke-linejoin="round"/>
</svg>
