<svg width="16" height="17" viewBox="0 0 16 17" fill="none" xmlns="http://www.w3.org/2000/svg">
<path d="M4 6.83651V5.50317C4 3.29651 4.66667 1.50317 8 1.50317C11.3333 1.50317 12 3.29651 12 5.50317V6.83651" stroke="#252525" stroke-width="1.2" stroke-linecap="round" stroke-linejoin="round"/>
<path d="M8.00016 12.5033C8.92064 12.5033 9.66683 11.7571 9.66683 10.8366C9.66683 9.91611 8.92064 9.16992 8.00016 9.16992C7.07969 9.16992 6.3335 9.91611 6.3335 10.8366C6.3335 11.7571 7.07969 12.5033 8.00016 12.5033Z" stroke="#252525" stroke-width="1.2" stroke-linecap="round" stroke-linejoin="round"/>
<path d="M11.3335 14.8367H4.66683C2.00016 14.8367 1.3335 14.17 1.3335 11.5033V10.17C1.3335 7.50334 2.00016 6.83667 4.66683 6.83667H11.3335C14.0002 6.83667 14.6668 7.50334 14.6668 10.17V11.5033C14.6668 14.17 14.0002 14.8367 11.3335 14.8367Z" stroke="#252525" stroke-width="1.2" stroke-linecap="round" stroke-linejoin="round"/>
</svg>
