<svg width="148" height="126" viewBox="0 0 148 126" fill="none" xmlns="http://www.w3.org/2000/svg">
<g clip-path="url(#clip0_9_702)">
<path d="M43.6715 124.685C46.0335 122.689 47.4683 119.535 47.092 116.464C46.7158 113.394 44.3853 110.571 41.3624 109.919C38.3394 109.267 34.8935 111.072 33.9753 114.026C33.47 108.331 32.8877 102.397 29.8608 97.5468C27.1201 93.1553 22.373 90.013 17.2283 89.4508C12.0836 88.8887 6.66686 91.0119 3.45829 95.0739C0.249714 99.136 -0.535891 105.041 1.71131 109.705C3.36675 113.14 6.41664 115.697 9.61217 117.777C19.9381 124.442 32.3227 127.152 44.4872 125.409" fill="#F2F2F2"/>
<path d="M8.54582 91.1296C12.7909 94.5884 16.6852 98.4568 20.1726 102.679C25.6303 109.264 30.0468 116.647 33.2681 124.57C33.5039 125.148 32.5656 125.4 32.3324 124.828C30.2839 119.819 27.7495 115.022 24.7655 110.507C20.1124 103.453 14.4116 97.1507 7.85967 91.816C7.37524 91.4214 8.06539 90.7382 8.54582 91.1296V91.1296Z" fill="white"/>
<path d="M45.3031 124.685C42.9411 122.689 41.5063 119.535 41.8826 116.464C42.2588 113.394 44.5893 110.571 47.6122 109.919C50.6352 109.267 54.0811 111.072 54.9993 114.026C55.5046 108.331 56.0869 102.397 59.1138 97.5469C61.8545 93.1553 66.6016 90.013 71.7463 89.4509C76.891 88.8887 82.3077 91.0119 85.5163 95.074C88.7249 99.136 89.5105 105.041 87.2633 109.705C85.6079 113.14 82.558 115.697 79.3624 117.777C69.0365 124.442 56.6519 127.152 44.4874 125.409" fill="#F2F2F2"/>
<path d="M80.4286 91.1296C76.1835 94.5884 72.2892 98.4568 68.8018 102.679C63.344 109.264 58.9276 116.647 55.7063 124.57C55.4705 125.148 56.4088 125.4 56.642 124.828C61.9126 111.951 70.3267 100.601 81.1147 91.816C81.5992 91.4214 80.909 90.7382 80.4286 91.1296V91.1296Z" fill="white"/>
<path d="M52.3125 56.6809C56.6823 56.6809 60.2247 53.1373 60.2247 48.766C60.2247 44.3948 56.6823 40.8511 52.3125 40.8511C47.9427 40.8511 44.4003 44.3948 44.4003 48.766C44.4003 53.1373 47.9427 56.6809 52.3125 56.6809Z" fill="#F2F2F2"/>
<path d="M27.9168 21.482H82.4296V24.4655H34.8758C32.0798 24.4655 29.3112 25.0164 26.7281 26.0867C24.1449 27.157 21.7978 28.7259 19.8208 30.7036C17.8437 32.6813 16.2754 35.0292 15.2054 37.6133C14.1355 40.1973 13.5848 42.9669 13.5848 45.7638V79.6596H7.61987C7.3562 79.6596 7.10334 79.5548 6.9169 79.3683C6.73047 79.1818 6.62572 78.9289 6.62572 78.6651V42.7803C6.62572 39.9834 7.17643 37.2138 8.2464 34.6298C9.31638 32.0458 10.8847 29.6978 12.8617 27.7201C14.8388 25.7424 17.1859 24.1736 19.769 23.1032C22.3522 22.0329 25.1208 21.482 27.9168 21.482Z" fill="#F2F2F2"/>
<path d="M38.4024 124.851V79.532H51.6744V124.851C51.6741 125.156 51.553 125.448 51.3376 125.663C51.1223 125.879 50.8304 126 50.5259 126H39.5509C39.2464 126 38.9545 125.879 38.7392 125.663C38.5238 125.448 38.4027 125.156 38.4024 124.851Z" fill="#151515"/>
<path d="M3.81836 78.6382V41.7868C3.82498 35.9203 6.15757 30.296 10.3044 26.1477C14.4512 21.9995 20.0736 19.6661 25.9381 19.6594H82.1745V79.9147H5.09452C4.75618 79.9144 4.43181 79.7797 4.19257 79.5404C3.95333 79.3011 3.81875 78.9766 3.81836 78.6382ZM81.6641 20.1701H25.9381C20.2089 20.1766 14.7163 22.4561 10.6652 26.5086C6.61406 30.5612 4.3353 36.0557 4.32882 41.7868V78.6382C4.32904 78.8412 4.40979 79.0359 4.55333 79.1795C4.69688 79.3231 4.89151 79.4039 5.09452 79.4041H81.6641V20.1701Z" fill="#151515"/>
<path d="M52.3123 52.8511C51.0943 52.8497 49.9265 52.3651 49.0653 51.5035C48.204 50.6419 47.7195 49.4738 47.7181 48.2553V15.3191C47.7179 15.1161 47.6372 14.9214 47.4936 14.7778C47.3501 14.6342 47.1555 14.5534 46.9524 14.5532H29.0862C28.7479 14.5528 28.4235 14.4182 28.1843 14.1789C27.945 13.9395 27.8105 13.615 27.8101 13.2766V1.2766C27.8105 0.938142 27.945 0.613661 28.1843 0.374338C28.4235 0.135014 28.7479 0.000391925 29.0862 0H55.6303C55.9687 0.000387205 56.293 0.13501 56.5323 0.374334C56.7715 0.613658 56.9061 0.93814 56.9065 1.2766V48.2553C56.9051 49.4738 56.4207 50.6419 55.5594 51.5035C54.6981 52.3651 53.5304 52.8497 52.3123 52.8511Z" fill="#E14F0F"/>
<path d="M84.2165 19.1491C88.0668 19.141 91.7627 20.6633 94.491 23.3812C97.2193 26.099 98.7566 29.7897 98.7647 33.6414V75.5928H127.351C128.499 75.5904 129.601 76.0444 130.415 76.855C131.229 77.6656 131.687 78.7663 131.69 79.915H69.6682V33.6414C69.6763 29.7897 71.2136 26.099 73.9419 23.3812C76.6702 20.6633 80.3661 19.141 84.2165 19.1491Z" fill="#151515"/>
<path d="M80.7254 43.0386L83.7378 55.487L142.666 41.2168L139.654 28.7684C139.617 28.6162 139.543 28.4757 139.438 28.3598C139.333 28.244 139.2 28.1566 139.052 28.1058C138.943 28.0674 138.827 28.05 138.711 28.0546L104.648 10.4115C104.449 10.3096 104.219 10.2824 104.001 10.3348C103.783 10.3872 103.591 10.5157 103.46 10.6973L87.0434 33.5978L80.8546 42.2335C80.8434 42.2486 80.8355 42.2659 80.8316 42.2844C80.8277 42.3028 80.8278 42.3219 80.8319 42.3402C80.7059 42.5499 80.6676 42.8009 80.7254 43.0386Z" fill="white"/>
<path d="M80.8315 42.3402C80.8344 42.3564 80.8405 42.3719 80.8494 42.3857C80.8583 42.3996 80.8698 42.4115 80.8834 42.4209C80.8994 42.4318 80.9174 42.4394 80.9364 42.4432C80.9554 42.4469 80.975 42.4468 80.994 42.4427C81.0248 42.4345 81.0518 42.4158 81.0703 42.3898L81.0915 42.3603L81.4137 41.9096L87.2659 33.7485L103.678 10.8532C103.771 10.7235 103.908 10.6316 104.064 10.5943C104.219 10.557 104.383 10.5767 104.525 10.6499L138.325 28.1563L138.628 28.3138C138.64 28.3189 138.653 28.3233 138.665 28.3269C138.688 28.3228 138.712 28.3206 138.735 28.3203C138.766 28.3097 138.793 28.2873 138.809 28.2578C138.817 28.2423 138.822 28.2253 138.824 28.2077C138.825 28.1902 138.824 28.1726 138.818 28.1558C138.813 28.139 138.805 28.1233 138.793 28.1098C138.782 28.0963 138.768 28.0851 138.753 28.0769L138.711 28.0546L104.648 10.4115C104.448 10.3096 104.219 10.2824 104.001 10.3348C103.783 10.3872 103.591 10.5157 103.46 10.6973L87.0431 33.5978L80.8542 42.2335C80.843 42.2486 80.8352 42.2659 80.8312 42.2844C80.8273 42.3028 80.8274 42.3218 80.8315 42.3402Z" fill="#151515"/>
<path d="M98.5298 43.6095L99.8415 43.7551L109.577 44.8339L116.03 45.5486L116.412 45.591L124.465 39.2987L124.773 39.0577L126.675 37.5717L133.442 32.285L133.483 31.9137L135.89 10.1824C135.923 9.88315 135.836 9.58311 135.648 9.34804C135.46 9.11297 135.186 8.96206 134.887 8.92838L102.765 5.36879C102.466 5.33611 102.166 5.42334 101.931 5.61136C101.696 5.79939 101.545 6.0729 101.511 6.37199L99.8138 21.7007L98.8722 30.1992L98.03 37.8022L97.6395 41.3331L97.5256 42.3558C97.4931 42.6552 97.5806 42.9552 97.7688 43.1902C97.957 43.4252 98.2306 43.576 98.5298 43.6095Z" fill="#E6E6E6"/>
<path d="M107.357 24.561L121.271 26.1026L126.206 26.6491C126.424 26.6733 126.644 26.6543 126.855 26.5932C127.065 26.5321 127.262 26.4301 127.433 26.293C127.604 26.156 127.746 25.9866 127.852 25.7945C127.958 25.6024 128.025 25.3913 128.049 25.1734C128.073 24.9555 128.054 24.7349 127.993 24.5243C127.932 24.3137 127.83 24.1172 127.693 23.9461C127.556 23.7749 127.386 23.6324 127.194 23.5267C127.002 23.421 126.791 23.3542 126.573 23.33L120.436 22.6501L107.726 21.2402C107.285 21.1916 106.844 21.3197 106.498 21.5966C106.153 21.8734 105.931 22.2762 105.882 22.7164C105.833 23.1566 105.961 23.5982 106.238 23.9441C106.514 24.29 106.917 24.5119 107.357 24.561Z" fill="white"/>
<path d="M106.565 30.7185C106.601 30.725 106.637 30.7314 106.673 30.7349L122.826 32.5249L125.522 32.8244C125.963 32.8731 126.404 32.7449 126.75 32.468C127.095 32.1911 127.317 31.7881 127.366 31.3478C127.414 30.9075 127.286 30.4659 127.009 30.1201C126.733 29.7743 126.33 29.5527 125.89 29.504L121.99 29.0724L109.195 27.6541L107.042 27.4154C106.611 27.3674 106.179 27.4887 105.836 27.7538C105.493 28.0189 105.267 28.407 105.205 28.8359C105.143 29.2649 105.25 29.7012 105.504 30.0525C105.758 30.4038 106.138 30.6427 106.565 30.7185V30.7185Z" fill="white"/>
<path d="M104.737 36.178C104.869 36.3979 105.05 36.5842 105.266 36.7226C105.482 36.861 105.727 36.9477 105.982 36.976L112.603 37.7095L124.394 39.0162L124.396 39.0156L124.773 39.0576L126.676 37.5716C126.687 37.4587 126.687 37.3449 126.676 37.232C126.636 36.853 126.467 36.499 126.199 36.2286C125.93 35.9582 125.577 35.7876 125.199 35.7451L123.561 35.563L117.063 34.8438L112.388 34.3251L106.35 33.6556C106.04 33.6213 105.727 33.6743 105.446 33.8086C105.165 33.9429 104.928 34.1531 104.76 34.4155C104.592 34.6779 104.501 34.9821 104.497 35.2935C104.493 35.605 104.576 35.9113 104.737 36.178L104.737 36.178Z" fill="white"/>
<path d="M114.035 17.0349L117.498 17.4185L119.027 17.5884L121.337 17.8441C121.777 17.8928 122.218 17.7646 122.564 17.4877C122.91 17.2108 123.131 16.8079 123.18 16.3675C123.229 15.9272 123.1 15.4856 122.824 15.1398C122.547 14.794 122.144 14.5724 121.704 14.5237L114.404 13.7155C113.964 13.6666 113.523 13.7945 113.177 14.0712C112.831 14.3478 112.61 14.7505 112.561 15.1907C112.512 15.6309 112.64 16.0725 112.916 16.4184C113.193 16.7642 113.595 16.986 114.035 17.0349V17.0349Z" fill="white"/>
<path d="M85.7262 26.2806L89.9471 43.7225L96.9918 45.0624L103.508 46.3035L110.5 47.6343L112.734 48.0596C112.865 48.0844 112.999 48.0809 113.129 48.0496C113.258 48.0183 113.379 47.9598 113.484 47.8779L115.277 46.4776L116.411 45.5912L124.465 39.2989L119.344 18.1397C119.293 17.9292 119.183 17.7377 119.026 17.5884C118.889 17.4563 118.721 17.3609 118.537 17.311C118.353 17.2612 118.159 17.2585 117.974 17.3032L86.5624 24.9098C86.2699 24.9808 86.0175 25.1651 85.8608 25.4221C85.704 25.6792 85.6556 25.9879 85.7262 26.2806Z" fill="#E14F0F"/>
<path d="M95.4048 40.1562C95.5093 40.5864 95.7802 40.9576 96.158 41.1883C96.5359 41.4189 96.9898 41.4901 97.42 41.3863L115.851 36.9229C116.281 36.8181 116.652 36.5471 116.883 36.1692C117.113 35.7913 117.185 35.3374 117.081 34.907C117.076 34.8856 117.07 34.8646 117.063 34.844C116.945 34.429 116.672 34.0757 116.299 33.8581C115.927 33.6406 115.485 33.5756 115.066 33.6768L96.6345 38.1402C96.2044 38.2448 95.8333 38.5158 95.6028 38.8937C95.3722 39.2717 95.301 39.7257 95.4048 40.1562Z" fill="white"/>
<path d="M96.9921 45.0624L103.509 46.3035L117.313 42.9607C117.743 42.8565 118.114 42.5856 118.345 42.2075C118.576 41.8294 118.647 41.3752 118.542 40.9447C118.438 40.5143 118.167 40.1429 117.79 39.9122C117.412 39.6815 116.958 39.6104 116.527 39.7146L98.0958 44.178C97.7107 44.2705 97.3713 44.498 97.1394 44.8192C97.0835 44.896 97.0342 44.9774 96.9921 45.0624Z" fill="white"/>
<path d="M110.5 47.6341L112.734 48.0594C112.865 48.0841 113 48.0807 113.129 48.0494C113.258 48.0181 113.38 47.9595 113.485 47.8777L115.277 46.4774L110.5 47.6341Z" fill="white"/>
<path d="M99.1187 30.8034C99.2232 31.2336 99.4941 31.6048 99.8719 31.8354C100.25 32.0661 100.704 32.1373 101.134 32.0335L108.273 30.3047C108.703 30.2 109.074 29.9289 109.304 29.551C109.535 29.1731 109.606 28.7192 109.503 28.2888C109.447 28.0575 109.342 27.841 109.195 27.654C108.998 27.4013 108.731 27.2107 108.429 27.1052C108.126 26.9996 107.799 26.9835 107.487 27.0586L100.348 28.7874C99.9181 28.8917 99.5468 29.1626 99.3162 29.5407C99.0856 29.9187 99.0146 30.3729 99.1187 30.8034V30.8034Z" fill="white"/>
<path d="M103.508 46.3033L110.501 47.6344L112.734 48.0599C112.865 48.0843 113 48.0808 113.129 48.0495C113.258 48.0182 113.379 47.9598 113.484 47.8783L115.278 46.4777L114.648 46.6301L113.32 47.6669C113.245 47.7252 113.158 47.7668 113.066 47.7892C112.974 47.8116 112.877 47.8141 112.784 47.7966L111.13 47.482L104.138 46.1509L103.508 46.3033ZM124.396 39.0167L124.464 39.2981L124.774 39.0568L124.396 39.0167ZM103.508 46.3033L110.501 47.6344L112.734 48.0599C112.865 48.0843 113 48.0808 113.129 48.0495C113.258 48.0182 113.379 47.9598 113.484 47.8783L115.278 46.4777L114.648 46.6301L113.32 47.6669C113.245 47.7252 113.158 47.7668 113.066 47.7892C112.974 47.8116 112.877 47.8141 112.784 47.7966L111.13 47.482L104.138 46.1509L103.508 46.3033ZM103.508 46.3033L110.501 47.6344L112.734 48.0599C112.865 48.0843 113 48.0808 113.129 48.0495C113.258 48.0182 113.379 47.9598 113.484 47.8783L115.278 46.4777L114.648 46.6301L113.32 47.6669C113.245 47.7252 113.158 47.7668 113.066 47.7892C112.974 47.8116 112.877 47.8141 112.784 47.7966L111.13 47.482L104.138 46.1509L103.508 46.3033ZM80.7254 43.0386L88.6161 75.6454C88.6747 75.8864 88.8264 76.0942 89.038 76.2234C89.2496 76.3526 89.5038 76.3925 89.7448 76.3344L146.856 62.5043C147.097 62.4457 147.304 62.2939 147.433 62.0823C147.563 61.8706 147.602 61.6163 147.544 61.3752L139.654 28.7684C139.617 28.6162 139.543 28.4756 139.438 28.3598C139.333 28.244 139.2 28.1566 139.052 28.1058C138.943 28.0674 138.827 28.05 138.711 28.0545C138.576 28.0584 138.444 28.0932 138.325 28.1562C138.27 28.1824 138.218 28.2147 138.17 28.2525L133.483 31.9137L126.676 37.2329L124.395 39.0148L124.396 39.0167L124.394 39.0172L116.031 45.5478L114.648 46.6301L113.32 47.6669C113.245 47.7252 113.158 47.7668 113.066 47.7892C112.974 47.8115 112.877 47.8141 112.784 47.7966L111.13 47.482L104.138 46.1509L97.1386 44.8192L81.809 41.901C81.6783 41.8751 81.5436 41.878 81.4141 41.9095C81.2398 41.9521 81.0814 42.0439 80.9577 42.174C80.9103 42.2251 80.8682 42.2808 80.8319 42.3402C80.7059 42.5499 80.6677 42.8008 80.7254 43.0386ZM103.508 46.3033L110.501 47.6344L112.734 48.0599C112.865 48.0843 113 48.0808 113.129 48.0495C113.258 48.0182 113.379 47.9598 113.484 47.8783L115.278 46.4777L114.648 46.6301L113.32 47.6669C113.245 47.7252 113.158 47.7668 113.066 47.7892C112.974 47.8116 112.877 47.8141 112.784 47.7966L111.13 47.482L104.138 46.1509L103.508 46.3033ZM103.508 46.3033L110.501 47.6344L112.734 48.0599C112.865 48.0843 113 48.0808 113.129 48.0495C113.258 48.0182 113.379 47.9598 113.484 47.8783L115.278 46.4777L114.648 46.6301L113.32 47.6669C113.245 47.7252 113.158 47.7668 113.066 47.7892C112.974 47.8116 112.877 47.8141 112.784 47.7966L111.13 47.482L104.138 46.1509L103.508 46.3033ZM103.508 46.3033L110.501 47.6344L112.734 48.0599C112.865 48.0843 113 48.0808 113.129 48.0495C113.258 48.0182 113.379 47.9598 113.484 47.8783L115.278 46.4777L114.648 46.6301L113.32 47.6669C113.245 47.7252 113.158 47.7668 113.066 47.7892C112.974 47.8116 112.877 47.8141 112.784 47.7966L111.13 47.482L104.138 46.1509L103.508 46.3033Z" fill="white"/>
<path d="M103.508 46.3033L110.501 47.6344L112.734 48.0599C112.865 48.0843 113 48.0808 113.129 48.0495C113.258 48.0182 113.379 47.9598 113.484 47.8783L115.278 46.4776L114.648 46.6301L113.32 47.6669C113.245 47.7252 113.158 47.7668 113.066 47.7892C112.974 47.8115 112.877 47.8141 112.784 47.7966L111.13 47.482L104.138 46.1509L103.508 46.3033ZM124.396 39.0167L124.464 39.298L124.774 39.0568L124.396 39.0167ZM103.508 46.3033L110.501 47.6344L112.734 48.0599C112.865 48.0843 113 48.0808 113.129 48.0495C113.258 48.0182 113.379 47.9598 113.484 47.8783L115.278 46.4776L114.648 46.6301L113.32 47.6669C113.245 47.7252 113.158 47.7668 113.066 47.7892C112.974 47.8115 112.877 47.8141 112.784 47.7966L111.13 47.482L104.138 46.1509L103.508 46.3033ZM103.508 46.3033L110.501 47.6344L112.734 48.0599C112.865 48.0843 113 48.0808 113.129 48.0495C113.258 48.0182 113.379 47.9598 113.484 47.8783L115.278 46.4776L114.648 46.6301L113.32 47.6669C113.245 47.7252 113.158 47.7668 113.066 47.7892C112.974 47.8115 112.877 47.8141 112.784 47.7966L111.13 47.482L104.138 46.1509L103.508 46.3033ZM81.0919 42.3603L81.1265 42.3864C81.1323 42.3768 81.1424 42.3683 81.1501 42.3583C81.2274 42.2778 81.3235 42.2178 81.4298 42.1836C81.536 42.1494 81.6491 42.1421 81.7589 42.1623L96.9925 45.0612L103.508 46.3033L110.501 47.6344L112.734 48.0599C112.865 48.0843 113 48.0807 113.129 48.0494C113.258 48.0182 113.379 47.9598 113.484 47.8783L115.278 46.4776L114.648 46.6301L113.32 47.6669C113.245 47.7251 113.158 47.7668 113.066 47.7892C112.974 47.8115 112.877 47.8141 112.784 47.7966L111.13 47.482L104.138 46.1509L97.1386 44.8192L81.809 41.901C81.6783 41.8751 81.5436 41.878 81.4141 41.9095L81.0919 42.3603ZM80.7254 43.0386L88.6161 75.6454C88.6747 75.8864 88.8264 76.0942 89.038 76.2234C89.2496 76.3526 89.5038 76.3925 89.7448 76.3344L146.856 62.5043C147.097 62.4457 147.304 62.2939 147.433 62.0823C147.563 61.8706 147.602 61.6163 147.544 61.3752L139.654 28.7684C139.617 28.6162 139.543 28.4756 139.438 28.3598C139.333 28.244 139.2 28.1566 139.052 28.1058C138.943 28.0674 138.827 28.05 138.711 28.0545C138.576 28.0584 138.444 28.0932 138.325 28.1562C138.27 28.1824 138.218 28.2147 138.17 28.2525L133.483 31.9137L126.676 37.2329L124.395 39.0148L124.396 39.0167L124.394 39.0172L116.031 45.5478L114.648 46.6301L113.32 47.6669C113.245 47.7252 113.158 47.7668 113.066 47.7892C112.974 47.8115 112.877 47.8141 112.784 47.7966L111.13 47.482L104.138 46.1509L97.1386 44.8192L81.809 41.901C81.6783 41.8751 81.5436 41.878 81.4141 41.9095C81.2398 41.9521 81.0814 42.0439 80.9577 42.174C80.9103 42.2251 80.8682 42.2808 80.8319 42.3402C80.7059 42.5499 80.6677 42.8008 80.7254 43.0386ZM80.9856 42.9756C80.9623 42.8794 80.9608 42.7793 80.9812 42.6826C81.0016 42.5858 81.0433 42.4948 81.1034 42.4163C81.1088 42.4047 81.1167 42.3945 81.1265 42.3864C81.1323 42.3768 81.1424 42.3683 81.1501 42.3584C81.2274 42.2778 81.3235 42.2178 81.4298 42.1836C81.536 42.1494 81.6491 42.1421 81.7589 42.1623L96.9925 45.0612L103.508 46.3033L110.501 47.6344L112.734 48.0599C112.865 48.0843 113 48.0808 113.129 48.0495C113.258 48.0182 113.379 47.9598 113.484 47.8783L115.278 46.4776L116.412 45.5912L124.464 39.298L124.774 39.0568L126.675 37.5715L133.443 32.284L138.336 28.4615C138.41 28.4034 138.496 28.3619 138.588 28.3397C138.614 28.3334 138.64 28.3291 138.666 28.3269C138.689 28.3227 138.712 28.3205 138.735 28.3203C138.813 28.3195 138.891 28.3322 138.965 28.3578C139.07 28.3945 139.165 28.457 139.24 28.5397C139.315 28.6223 139.369 28.7224 139.395 28.8309L147.286 61.4378C147.307 61.5232 147.311 61.6119 147.297 61.6988C147.283 61.7857 147.253 61.869 147.207 61.9441C147.161 62.0192 147.101 62.0845 147.03 62.1362C146.959 62.188 146.879 62.2253 146.793 62.2459L89.6823 76.076C89.51 76.1174 89.3283 76.0887 89.1771 75.9962C89.026 75.9036 88.9178 75.7547 88.8764 75.5824L80.9856 42.9756ZM103.508 46.3033L110.501 47.6344L112.734 48.0599C112.865 48.0843 113 48.0808 113.129 48.0495C113.258 48.0182 113.379 47.9598 113.484 47.8783L115.278 46.4777L114.648 46.6301L113.32 47.6669C113.245 47.7252 113.158 47.7668 113.066 47.7892C112.974 47.8116 112.877 47.8141 112.784 47.7966L111.13 47.482L104.138 46.1509L103.508 46.3033ZM103.508 46.3033L110.501 47.6344L112.734 48.0599C112.865 48.0843 113 48.0808 113.129 48.0495C113.258 48.0182 113.379 47.9598 113.484 47.8783L115.278 46.4777L114.648 46.6301L113.32 47.6669C113.245 47.7252 113.158 47.7668 113.066 47.7892C112.974 47.8116 112.877 47.8141 112.784 47.7966L111.13 47.482L104.138 46.1509L103.508 46.3033ZM103.508 46.3033L110.501 47.6344L112.734 48.0599C112.865 48.0843 113 48.0808 113.129 48.0495C113.258 48.0182 113.379 47.9598 113.484 47.8783L115.278 46.4777L114.648 46.6301L113.32 47.6669C113.245 47.7252 113.158 47.7668 113.066 47.7892C112.974 47.8116 112.877 47.8141 112.784 47.7966L111.13 47.482L104.138 46.1509L103.508 46.3033Z" fill="#151515"/>
<path d="M131.971 56.0981C131.842 55.5638 131.931 55.0003 132.217 54.5312C132.503 54.062 132.963 53.7256 133.497 53.5957L140.705 51.8501C141.239 51.723 141.801 51.8124 142.268 52.099C142.736 52.3855 143.071 52.8457 143.2 53.3789C143.329 53.912 143.241 54.4745 142.957 54.9432C142.672 55.412 142.213 55.7487 141.681 55.8796L134.472 57.6251C133.938 57.7538 133.375 57.6654 132.906 57.3791C132.437 57.0928 132.101 56.6321 131.971 56.0981Z" fill="#E14F0F"/>
<path d="M52.3124 50.0424C53.2991 50.0424 54.099 49.2423 54.099 48.2552C54.099 47.2681 53.2991 46.468 52.3124 46.468C51.3257 46.468 50.5258 47.2681 50.5258 48.2552C50.5258 49.2423 51.3257 50.0424 52.3124 50.0424Z" fill="white"/>
</g>
<defs>
<clipPath id="clip0_9_702">
<rect width="147.141" height="126" fill="white" transform="translate(0.429527)"/>
</clipPath>
</defs>
</svg>
