<svg width="16" height="14" viewBox="0 0 16 14" fill="none" xmlns="http://www.w3.org/2000/svg">
<path d="M14.0588 3.0926C14.3515 3.74744 14.4754 4.64005 14.6886 6.17459C15.0157 8.52993 15.1793 9.7076 14.8196 10.6222C14.5039 11.4252 13.9209 12.0948 13.169 12.5179C12.3125 13 11.1235 13 8.7456 13H7.52746C5.14951 13 3.96054 13 3.10406 12.5179C2.35216 12.0948 1.76919 11.4252 1.45346 10.6222C1.09381 9.7076 1.25737 8.52993 1.5845 6.17459C1.78406 4.73777 1.90546 3.86372 2.16032 3.2207M14.0588 3.0926C14.0017 2.96474 13.9381 2.84594 13.8662 2.73319C13.4782 2.12506 12.9231 1.64172 12.2674 1.34112C11.5233 1 10.5974 1 8.7456 1H7.52746C5.67567 1 4.74977 1 4.00565 1.34112C3.34993 1.64172 2.79482 2.12506 2.40687 2.73319C2.3115 2.8827 2.23081 3.04286 2.16032 3.2207M14.0588 3.0926L13.9924 3.15901L13.3488 3.8026C10.8488 6.3026 9.59883 7.5526 8.04553 7.5526C6.49223 7.5526 5.24223 6.3026 2.74223 3.8026L2.16032 3.2207" stroke="#828282"/>
</svg>
