<svg width="23" height="23" viewBox="0 0 23 23" fill="none" xmlns="http://www.w3.org/2000/svg">
<path d="M7.82403 18.8475H7.2991C3.0997 18.8475 1 17.7976 1 12.5484V7.2991C1 3.0997 3.0997 1 7.2991 1H15.6979C19.8973 1 21.997 3.0997 21.997 7.2991V12.5484C21.997 16.7478 19.8973 18.8475 15.6979 18.8475H15.173C14.8475 18.8475 14.5326 19.0049 14.3331 19.2674L12.7583 21.3671C12.0654 22.291 10.9316 22.291 10.2387 21.3671L8.66391 19.2674C8.49593 19.0364 8.10749 18.8475 7.82403 18.8475Z" fill="#252525" stroke="white" stroke-width="1.5" stroke-miterlimit="10" stroke-linecap="round" stroke-linejoin="round"/>
<path d="M6.24927 7.29907H16.7478" stroke="white" stroke-width="1.5" stroke-linecap="round" stroke-linejoin="round"/>
<path d="M6.24927 12.5483H12.5484" stroke="white" stroke-width="1.5" stroke-linecap="round" stroke-linejoin="round"/>
</svg>
