<svg width="26" height="26" viewBox="0 0 26 26" fill="none" xmlns="http://www.w3.org/2000/svg">
<path d="M14.1373 17.6042H12.1007C10.6599 17.6042 9.479 16.3908 9.479 14.8958C9.479 14.4517 9.84734 14.0833 10.2915 14.0833C10.7357 14.0833 11.104 14.4517 11.104 14.8958C11.104 15.4917 11.5482 15.9792 12.1007 15.9792H14.1373C14.5598 15.9792 14.8957 15.6 14.8957 15.1342C14.8957 14.5492 14.7332 14.4625 14.3648 14.3325L11.104 13.195C10.4107 12.9567 9.479 12.4475 9.479 10.855C9.479 9.50084 10.5515 8.38501 11.8624 8.38501H13.899C15.3398 8.38501 16.5207 9.59834 16.5207 11.0933C16.5207 11.5375 16.1523 11.9058 15.7082 11.9058C15.264 11.9058 14.8957 11.5375 14.8957 11.0933C14.8957 10.4975 14.4515 10.01 13.899 10.01H11.8624C11.4399 10.01 11.104 10.3892 11.104 10.855C11.104 11.44 11.2665 11.5267 11.6348 11.6567L14.8957 12.7942C15.589 13.0325 16.5207 13.5417 16.5207 15.1342C16.5207 16.4992 15.4482 17.6042 14.1373 17.6042Z" fill="#EA5B2C"/>
<path d="M13 18.6875C12.5558 18.6875 12.1875 18.3192 12.1875 17.875V8.125C12.1875 7.68083 12.5558 7.3125 13 7.3125C13.4442 7.3125 13.8125 7.68083 13.8125 8.125V17.875C13.8125 18.3192 13.4442 18.6875 13 18.6875Z" fill="#EA5B2C"/>
<path d="M12.9998 24.6459C6.57567 24.6459 1.354 19.4242 1.354 13.0001C1.354 6.57591 6.57567 1.35425 12.9998 1.35425C13.444 1.35425 13.8123 1.72258 13.8123 2.16675C13.8123 2.61091 13.444 2.97925 12.9998 2.97925C7.47484 2.97925 2.979 7.47508 2.979 13.0001C2.979 18.5251 7.47484 23.0209 12.9998 23.0209C18.5248 23.0209 23.0207 18.5251 23.0207 13.0001C23.0207 12.5559 23.389 12.1876 23.8332 12.1876C24.2773 12.1876 24.6457 12.5559 24.6457 13.0001C24.6457 19.4242 19.424 24.6459 12.9998 24.6459Z" fill="#EA5B2C"/>
<path d="M22.7498 8.39583H18.4165C17.9723 8.39583 17.604 8.0275 17.604 7.58333V3.25C17.604 2.80583 17.9723 2.4375 18.4165 2.4375C18.8607 2.4375 19.229 2.80583 19.229 3.25V6.77083H22.7498C23.194 6.77083 23.5623 7.13917 23.5623 7.58333C23.5623 8.0275 23.194 8.39583 22.7498 8.39583Z" fill="#EA5B2C"/>
<path d="M18.4167 8.39589C18.2109 8.39589 18.0051 8.32006 17.8426 8.15756C17.5284 7.84339 17.5284 7.32339 17.8426 7.00923L23.2592 1.59256C23.5734 1.27839 24.0934 1.27839 24.4076 1.59256C24.7217 1.90673 24.7217 2.42672 24.4076 2.74089L18.9909 8.15756C18.8284 8.32006 18.6226 8.39589 18.4167 8.39589Z" fill="#EA5B2C"/>
</svg>
