<svg width="17" height="21" viewBox="0 0 17 21" fill="none" xmlns="http://www.w3.org/2000/svg">
<path d="M10.9919 16.2869V16.9526C10.9919 17.6588 10.7114 18.3361 10.212 18.8354C9.71266 19.3348 9.03539 19.6153 8.32919 19.6153C7.62299 19.6153 6.94572 19.3348 6.44636 18.8354C5.94701 18.3361 5.66647 17.6588 5.66647 16.9526V16.2869M15.4719 14.9318C14.4035 13.6242 13.6492 12.9585 13.6492 9.35343C13.6492 6.05207 11.9634 4.8759 10.5759 4.30466C10.3916 4.22894 10.2181 4.05503 10.1619 3.86573C9.9185 3.03737 9.23618 2.30762 8.32919 2.30762C7.4222 2.30762 6.73946 3.03779 6.49857 3.86656C6.4424 4.05794 6.26891 4.22894 6.0846 4.30466C4.69541 4.87673 3.01124 6.04874 3.01124 9.35343C3.00916 12.9585 2.25486 13.6242 1.18644 14.9318C0.743763 15.4735 1.13152 16.2869 1.90579 16.2869H14.7568C15.5269 16.2869 15.9121 15.471 15.4719 14.9318Z" stroke="white" stroke-width="1.5" stroke-linecap="round" stroke-linejoin="round"/>
<circle cx="12.5382" cy="3.46154" r="3.46154" fill="#E94134"/>
</svg>
