<svg width="12" height="12" viewBox="0 0 12 12" fill="none" xmlns="http://www.w3.org/2000/svg">
<path d="M10.7301 4.61929L11.4557 3.89371C11.8016 3.54837 11.9999 3.0999 11.9999 2.66307C11.9999 2.33148 11.8805 2.03003 11.6651 1.81479L10.1696 0.318668C9.67094 -0.180569 8.69785 -0.0800867 8.0898 0.528093L7.36475 1.25368L10.7301 4.61929Z" fill="#4384F4"/>
<path d="M6.99095 1.62817L1.32324 7.29747C1.44646 9.17489 2.81143 10.5377 4.68833 10.662L10.3576 4.99379L6.99095 1.62817Z" fill="#4384F4"/>
<path d="M0.879415 7.82617L0.00680908 11.6604C-0.0138162 11.7492 0.0131553 11.8423 0.0776753 11.9063C0.127916 11.9565 0.19508 11.9835 0.264889 11.9835C0.284457 11.9835 0.304024 11.9814 0.323592 11.9765L4.15989 11.1039C2.62093 10.7338 1.24961 9.36513 0.879415 7.82617Z" fill="#4384F4"/>
</svg>
