<svg width="11" height="13" viewBox="0 0 11 13" fill="none" xmlns="http://www.w3.org/2000/svg">
<path d="M9.94648 5.2334C9.94648 8.86177 5.28144 11.9718 5.28144 11.9718C5.28144 11.9718 0.616394 8.86177 0.616394 5.2334C0.616394 3.99616 1.10789 2.80958 1.98275 1.93472C2.85762 1.05985 4.04419 0.568359 5.28144 0.568359C6.51868 0.568359 7.70526 1.05985 8.58012 1.93472C9.45499 2.80958 9.94648 3.99616 9.94648 5.2334Z" stroke="#151515" stroke-opacity="0.5" stroke-width="1.13492" stroke-linecap="round" stroke-linejoin="round"/>
<path d="M5.28329 6.78679C6.1421 6.78679 6.8383 6.09058 6.8383 5.23177C6.8383 4.37296 6.1421 3.67676 5.28329 3.67676C4.42448 3.67676 3.72827 4.37296 3.72827 5.23177C3.72827 6.09058 4.42448 6.78679 5.28329 6.78679Z" stroke="#151515" stroke-opacity="0.5" stroke-width="1.13492" stroke-linecap="round" stroke-linejoin="round"/>
</svg>
