<svg width="16" height="16" viewBox="0 0 16 16" fill="none" xmlns="http://www.w3.org/2000/svg">
<path d="M13.5373 7.75218C13.4955 5.80984 12.8269 4.28442 11.4714 3.07357C11.2123 2.84211 11.0775 2.57731 11.1663 2.23457C11.3071 1.6998 11.9419 1.50449 12.3743 1.86836C13.039 2.42814 13.5991 3.10154 14.0284 3.85717C16.4947 8.17051 14.2115 13.644 9.41125 14.9262C6.21158 15.7807 2.67904 14.336 1.07427 11.4368C-0.510773 8.57287 -0.334242 5.76101 1.55363 3.08202C1.85365 2.65618 2.2485 2.29232 2.62317 1.92376C2.69322 1.85206 2.77731 1.79559 2.87019 1.75787C2.96306 1.72016 3.06272 1.70201 3.16293 1.70456C3.26314 1.70712 3.36174 1.73032 3.45257 1.77272C3.5434 1.81513 3.62451 1.87581 3.69082 1.95099C3.76005 2.02516 3.81347 2.11265 3.84783 2.20812C3.88218 2.30359 3.89674 2.40506 3.89064 2.50634C3.88453 2.60762 3.85789 2.7066 3.81231 2.79725C3.76674 2.88791 3.7032 2.96834 3.62556 3.03366C2.91754 3.66186 2.364 4.39898 2.00201 5.27461C0.514624 8.87476 2.68561 12.9083 6.51676 13.5698C7.29472 13.7054 8.09183 13.6853 8.862 13.5109C9.63216 13.3364 10.3601 13.011 11.0037 12.5534C11.6473 12.0958 12.1938 11.5152 12.6116 10.8451C13.0294 10.175 13.3102 9.42871 13.4377 8.6494C13.4931 8.31136 13.5143 7.96393 13.5373 7.75218Z" fill="#FF3F00"/>
<path d="M8.27765 3.93947C8.27765 4.93482 8.28047 5.93017 8.27765 6.92552C8.27765 7.41381 7.92975 7.73917 7.46353 7.70725C7.293 7.69276 7.13273 7.61971 7.00992 7.5005C6.88712 7.38129 6.80934 7.22326 6.7898 7.05323C6.78463 7.00111 6.78369 6.94806 6.78369 6.89547C6.78369 4.92825 6.78494 2.96087 6.78745 0.993336C6.78697 0.842325 6.81983 0.693071 6.8837 0.556228C7.03065 0.256684 7.37761 0.114893 7.70345 0.189544C7.86788 0.227132 8.01446 0.319979 8.1187 0.45259C8.22294 0.585201 8.27855 0.749553 8.27624 0.918215C8.28141 1.9253 8.27624 2.93239 8.27624 3.93947H8.27765Z" fill="#FF3F00"/>
</svg>
