<svg width="25" height="25" viewBox="0 0 25 25" fill="none" xmlns="http://www.w3.org/2000/svg">
<path d="M12.4999 2.08325C9.77075 2.08325 7.552 4.302 7.552 7.03117C7.552 9.70825 9.64575 11.8749 12.3749 11.9687C12.4583 11.9583 12.5416 11.9583 12.6041 11.9687C12.6249 11.9687 12.6353 11.9687 12.6562 11.9687C12.6666 11.9687 12.6666 11.9687 12.677 11.9687C15.3437 11.8749 17.4374 9.70825 17.4478 7.03117C17.4478 4.302 15.2291 2.08325 12.4999 2.08325Z" fill="#EA5B2C"/>
<path d="M17.7917 14.7395C14.8855 12.802 10.1459 12.802 7.21883 14.7395C5.89591 15.6249 5.16675 16.8228 5.16675 18.1041C5.16675 19.3853 5.89591 20.5728 7.20841 21.4478C8.66675 22.427 10.5834 22.9166 12.5001 22.9166C14.4167 22.9166 16.3334 22.427 17.7917 21.4478C19.1042 20.5624 19.8334 19.3749 19.8334 18.0833C19.823 16.802 19.1042 15.6145 17.7917 14.7395Z" fill="#EA5B2C"/>
</svg>
