<svg width="25" height="25" viewBox="0 0 25 25" fill="none" xmlns="http://www.w3.org/2000/svg">
<path d="M12.6662 12.1041C12.6349 12.1041 12.6141 12.1041 12.5828 12.1041C12.5308 12.0937 12.4578 12.0937 12.3953 12.1041C9.37451 12.0103 7.09326 9.63534 7.09326 6.70825C7.09326 3.72909 9.52034 1.302 12.4995 1.302C15.4787 1.302 17.9058 3.72909 17.9058 6.70825C17.8953 9.63534 15.6037 12.0103 12.6974 12.1041C12.687 12.1041 12.6766 12.1041 12.6662 12.1041ZM12.4995 2.8645C10.3849 2.8645 8.65576 4.59367 8.65576 6.70825C8.65576 8.79159 10.2808 10.4687 12.3537 10.5416C12.4058 10.5312 12.5516 10.5312 12.687 10.5416C14.7287 10.4478 16.3328 8.77075 16.3433 6.70825C16.3433 4.59367 14.6141 2.8645 12.4995 2.8645Z" fill="#252525"/>
<path d="M12.6767 23.4897C10.635 23.4897 8.58293 22.9688 7.03084 21.9272C5.58293 20.9688 4.79126 19.6563 4.79126 18.2292C4.79126 16.8022 5.58293 15.4792 7.03084 14.5105C10.1558 12.4376 15.2183 12.4376 18.3225 14.5105C19.76 15.4688 20.5621 16.7813 20.5621 18.2084C20.5621 19.6355 19.7704 20.9584 18.3225 21.9272C16.76 22.9688 14.7183 23.4897 12.6767 23.4897ZM7.89543 15.823C6.89543 16.4897 6.35376 17.3438 6.35376 18.2397C6.35376 19.1251 6.90584 19.9792 7.89543 20.6355C10.4892 22.3751 14.8642 22.3751 17.4579 20.6355C18.4579 19.9688 18.9996 19.1147 18.9996 18.2188C18.9996 17.3334 18.4475 16.4792 17.4579 15.823C14.8642 14.0938 10.4892 14.0938 7.89543 15.823Z" fill="#252525"/>
</svg>
