<svg width="10" height="10" viewBox="0 0 10 10" fill="none" xmlns="http://www.w3.org/2000/svg">
<path d="M3.57143 4.64286V9.64286C3.57143 9.73758 3.5338 9.82842 3.46682 9.8954C3.39985 9.96237 3.30901 10 3.21429 10H1.07143C0.787268 10 0.514746 9.88712 0.313814 9.68619C0.112882 9.48525 0 9.21273 0 8.92857V4.64286C0 4.54814 0.0376274 4.4573 0.104605 4.39032C0.171582 4.32334 0.262423 4.28571 0.357143 4.28571H3.21429C3.30901 4.28571 3.39985 4.32334 3.46682 4.39032C3.5338 4.4573 3.57143 4.54814 3.57143 4.64286ZM8.92857 0H1.07143C0.787268 0 0.514746 0.112882 0.313814 0.313814C0.112882 0.514746 0 0.787268 0 1.07143V3.21429C0 3.30901 0.0376274 3.39985 0.104605 3.46682C0.171582 3.5338 0.262423 3.57143 0.357143 3.57143H9.64286C9.73758 3.57143 9.82842 3.5338 9.8954 3.46682C9.96237 3.39985 10 3.30901 10 3.21429V1.07143C10 0.787268 9.88712 0.514746 9.68619 0.313814C9.48525 0.112882 9.21273 0 8.92857 0ZM9.64286 4.28571H4.64286C4.54814 4.28571 4.4573 4.32334 4.39032 4.39032C4.32334 4.4573 4.28571 4.54814 4.28571 4.64286V9.64286C4.28571 9.73758 4.32334 9.82842 4.39032 9.8954C4.4573 9.96237 4.54814 10 4.64286 10H8.92857C9.21273 10 9.48525 9.88712 9.68619 9.68619C9.88712 9.48525 10 9.21273 10 8.92857V4.64286C10 4.54814 9.96237 4.4573 9.8954 4.39032C9.82842 4.32334 9.73758 4.28571 9.64286 4.28571Z" fill="#8FB7FC"/>
</svg>
