<svg width="26" height="32" viewBox="0 0 26 32" fill="none" xmlns="http://www.w3.org/2000/svg">
<path d="M21.6 1.6H15.056C14.72 0.672 13.84 0 12.8 0C11.76 0 10.88 0.672 10.544 1.6H4C1.792 1.6 0 3.392 0 5.6V28C0 30.208 1.792 32 4 32H21.6C23.856 32 25.6 29.424 25.6 27.2V5.6C25.6 3.392 23.808 1.6 21.6 1.6ZM7.2 25.6H5.6C5.1584 25.6 4.8 25.2416 4.8 24.8C4.8 24.3584 5.1584 24 5.6 24H7.2C7.6416 24 8 24.3584 8 24.8C8 25.2416 7.6416 25.6 7.2 25.6ZM7.2 20.8H5.6C5.1584 20.8 4.8 20.4416 4.8 20C4.8 19.5584 5.1584 19.2 5.6 19.2H7.2C7.6416 19.2 8 19.5584 8 20C8 20.4416 7.6416 20.8 7.2 20.8ZM7.2 16H5.6C5.1584 16 4.8 15.6416 4.8 15.2C4.8 14.7584 5.1584 14.4 5.6 14.4H7.2C7.6416 14.4 8 14.7584 8 15.2C8 15.6416 7.6416 16 7.2 16ZM8 3.2H10.544C10.88 4.128 11.76 4.8 12.8 4.8C13.84 4.8 14.72 4.128 15.056 3.2H17.6V8H8V3.2ZM20 25.6H11.2C10.7584 25.6 10.4 25.2416 10.4 24.8C10.4 24.3584 10.7584 24 11.2 24H20C20.4416 24 20.8 24.3584 20.8 24.8C20.8 25.2416 20.4416 25.6 20 25.6ZM20 20.8H11.2C10.7584 20.8 10.4 20.4416 10.4 20C10.4 19.5584 10.7584 19.2 11.2 19.2H20C20.4416 19.2 20.8 19.5584 20.8 20C20.8 20.4416 20.4416 20.8 20 20.8ZM20 16H11.2C10.7584 16 10.4 15.6416 10.4 15.2C10.4 14.7584 10.7584 14.4 11.2 14.4H20C20.4416 14.4 20.8 14.7584 20.8 15.2C20.8 15.6416 20.4416 16 20 16Z" fill="#4384F4"/>
</svg>
