<svg width="32" height="32" viewBox="0 0 32 32" fill="none" xmlns="http://www.w3.org/2000/svg">
<path d="M22.4 16C22.4 14.2333 21.775 12.725 20.525 11.475C19.275 10.225 17.7667 9.6 16 9.6C14.2333 9.6 12.725 10.225 11.475 11.475C10.225 12.725 9.6 14.2333 9.6 16C9.6 17.7667 10.225 19.275 11.475 20.525C12.725 21.775 14.2333 22.4 16 22.4C17.7667 22.4 19.275 21.775 20.525 20.525C21.775 19.275 22.4 17.7667 22.4 16ZM32 13.725V18.35C32 18.5167 31.9417 18.6792 31.825 18.8375C31.7083 18.9958 31.575 19.0833 31.425 19.1L27.55 19.7C27.3667 20.2833 27.1 20.9167 26.75 21.6C27.3167 22.4 28.0667 23.3583 29 24.475C29.1167 24.6583 29.175 24.825 29.175 24.975C29.175 25.175 29.1167 25.3333 29 25.45C28.6167 25.95 27.9292 26.6958 26.9375 27.6875C25.9458 28.6792 25.2917 29.175 24.975 29.175C24.7917 29.175 24.6167 29.1167 24.45 29L21.575 26.75C20.9583 27.0667 20.3167 27.325 19.65 27.525C19.4667 29.325 19.275 30.6167 19.075 31.4C18.9583 31.8 18.7083 32 18.325 32H13.675C13.4917 32 13.325 31.9375 13.175 31.8125C13.025 31.6875 12.9417 31.5417 12.925 31.375L12.35 27.55C11.7833 27.3833 11.1583 27.125 10.475 26.775L7.525 29C7.40833 29.1167 7.24167 29.175 7.025 29.175C6.84167 29.175 6.66667 29.1083 6.5 28.975C4.1 26.7583 2.9 25.425 2.9 24.975C2.9 24.825 2.95833 24.6667 3.075 24.5C3.24167 24.2667 3.58333 23.825 4.1 23.175C4.61667 22.525 5.00833 22.0167 5.275 21.65C4.89167 20.9167 4.6 20.2333 4.4 19.6L0.6 19C0.433333 18.9833 0.291667 18.9042 0.175 18.7625C0.0583333 18.6208 0 18.4583 0 18.275V13.65C0 13.4833 0.0583333 13.3208 0.175 13.1625C0.291667 13.0042 0.425 12.9167 0.575 12.9L4.45 12.3C4.63333 11.7167 4.9 11.0833 5.25 10.4C4.68333 9.6 3.93333 8.64167 3 7.525C2.88333 7.34167 2.825 7.175 2.825 7.025C2.825 6.825 2.88333 6.65833 3 6.525C3.36667 6.025 4.05 5.28333 5.05 4.3C6.05 3.31667 6.70833 2.825 7.025 2.825C7.20833 2.825 7.38333 2.88333 7.55 3L10.425 5.25C10.9917 4.95 11.6333 4.68333 12.35 4.45C12.5333 2.65 12.725 1.36667 12.925 0.6C13.0417 0.2 13.2917 0 13.675 0H18.325C18.5083 0 18.675 0.0625 18.825 0.1875C18.975 0.3125 19.0583 0.458334 19.075 0.625L19.65 4.45C20.2167 4.61667 20.8417 4.875 21.525 5.225L24.475 3C24.6083 2.88333 24.775 2.825 24.975 2.825C25.1583 2.825 25.3333 2.89167 25.5 3.025C27.9 5.24167 29.1 6.575 29.1 7.025C29.1 7.15833 29.0417 7.31667 28.925 7.5C28.725 7.76667 28.375 8.21667 27.875 8.85C27.375 9.48333 27 9.98333 26.75 10.35C27.1333 11.15 27.4167 11.8333 27.6 12.4L31.4 12.975C31.5667 13.0083 31.7083 13.0958 31.825 13.2375C31.9417 13.3792 32 13.5417 32 13.725Z" fill="#4384F4"/>
</svg>
