<svg width="18" height="19" viewBox="0 0 18 19" fill="none" xmlns="http://www.w3.org/2000/svg">
<path d="M9 11.4199C10.2426 11.4199 11.25 10.4126 11.25 9.16992C11.25 7.92728 10.2426 6.91992 9 6.91992C7.75736 6.91992 6.75 7.92728 6.75 9.16992C6.75 10.4126 7.75736 11.4199 9 11.4199Z" stroke="#252525" stroke-width="1.2" stroke-miterlimit="10" stroke-linecap="round" stroke-linejoin="round"/>
<path d="M1.5 9.83V8.51C1.5 7.73 2.1375 7.085 2.925 7.085C4.2825 7.085 4.8375 6.125 4.155 4.9475C3.765 4.2725 3.9975 3.395 4.68 3.005L5.9775 2.2625C6.57 1.91 7.335 2.12 7.6875 2.7125L7.77 2.855C8.445 4.0325 9.555 4.0325 10.2375 2.855L10.32 2.7125C10.6725 2.12 11.4375 1.91 12.03 2.2625L13.3275 3.005C14.01 3.395 14.2425 4.2725 13.8525 4.9475C13.17 6.125 13.725 7.085 15.0825 7.085C15.8625 7.085 16.5075 7.7225 16.5075 8.51V9.83C16.5075 10.61 15.87 11.255 15.0825 11.255C13.725 11.255 13.17 12.215 13.8525 13.3925C14.2425 14.075 14.01 14.945 13.3275 15.335L12.03 16.0775C11.4375 16.43 10.6725 16.22 10.32 15.6275L10.2375 15.485C9.5625 14.3075 8.4525 14.3075 7.77 15.485L7.6875 15.6275C7.335 16.22 6.57 16.43 5.9775 16.0775L4.68 15.335C3.9975 14.945 3.765 14.0675 4.155 13.3925C4.8375 12.215 4.2825 11.255 2.925 11.255C2.1375 11.255 1.5 10.61 1.5 9.83Z" stroke="#252525" stroke-width="1.2" stroke-miterlimit="10" stroke-linecap="round" stroke-linejoin="round"/>
</svg>
