<svg width="87" height="16" viewBox="0 0 87 16" fill="none" xmlns="http://www.w3.org/2000/svg">
<path d="M7.02447 2.3876C7.17415 1.92694 7.82585 1.92694 7.97553 2.3876L9.0716 5.76095C9.13854 5.96696 9.33051 6.10644 9.54713 6.10644H13.0941C13.5784 6.10644 13.7798 6.72625 13.388 7.01095L10.5184 9.0958C10.3432 9.22312 10.2699 9.44881 10.3368 9.65482L11.4329 13.0282C11.5825 13.4888 11.0553 13.8719 10.6634 13.5872L7.79389 11.5023C7.61865 11.375 7.38135 11.375 7.20611 11.5023L4.33656 13.5872C3.9447 13.8719 3.41746 13.4888 3.56714 13.0282L4.66321 9.65482C4.73015 9.44881 4.65682 9.22312 4.48157 9.0958L1.61203 7.01095C1.22017 6.72625 1.42156 6.10644 1.90592 6.10644H5.45287C5.66949 6.10644 5.86146 5.96696 5.9284 5.76095L7.02447 2.3876Z" fill="#FF9747"/>
<path d="M25.0245 2.3876C25.1741 1.92694 25.8259 1.92694 25.9755 2.3876L27.0716 5.76095C27.1385 5.96696 27.3305 6.10644 27.5471 6.10644H31.0941C31.5784 6.10644 31.7798 6.72625 31.388 7.01095L28.5184 9.0958C28.3432 9.22312 28.2699 9.44881 28.3368 9.65482L29.4329 13.0282C29.5825 13.4888 29.0553 13.8719 28.6634 13.5872L25.7939 11.5023C25.6186 11.375 25.3814 11.375 25.2061 11.5023L22.3366 13.5872C21.9447 13.8719 21.4175 13.4888 21.5671 13.0282L22.6632 9.65482C22.7301 9.44881 22.6568 9.22312 22.4816 9.0958L19.612 7.01095C19.2202 6.72625 19.4216 6.10644 19.9059 6.10644H23.4529C23.6695 6.10644 23.8615 5.96696 23.9284 5.76095L25.0245 2.3876Z" fill="#FF9747"/>
<path d="M43.0245 2.3876C43.1741 1.92694 43.8259 1.92694 43.9755 2.3876L45.0716 5.76095C45.1385 5.96696 45.3305 6.10644 45.5471 6.10644H49.0941C49.5784 6.10644 49.7798 6.72625 49.388 7.01095L46.5184 9.0958C46.3432 9.22312 46.2699 9.44881 46.3368 9.65482L47.4329 13.0282C47.5825 13.4888 47.0553 13.8719 46.6634 13.5872L43.7939 11.5023C43.6186 11.375 43.3814 11.375 43.2061 11.5023L40.3366 13.5872C39.9447 13.8719 39.4175 13.4888 39.5671 13.0282L40.6632 9.65482C40.7301 9.44881 40.6568 9.22312 40.4816 9.0958L37.612 7.01095C37.2202 6.72625 37.4216 6.10644 37.9059 6.10644H41.4529C41.6695 6.10644 41.8615 5.96696 41.9284 5.76095L43.0245 2.3876Z" fill="#FF9747"/>
<path d="M61.0245 2.3876C61.1741 1.92694 61.8259 1.92694 61.9755 2.3876L63.0716 5.76095C63.1385 5.96696 63.3305 6.10644 63.5471 6.10644H67.0941C67.5784 6.10644 67.7798 6.72625 67.388 7.01095L64.5184 9.0958C64.3432 9.22312 64.2699 9.44881 64.3368 9.65482L65.4329 13.0282C65.5825 13.4888 65.0553 13.8719 64.6634 13.5872L61.7939 11.5023C61.6186 11.375 61.3814 11.375 61.2061 11.5023L58.3366 13.5872C57.9447 13.8719 57.4175 13.4888 57.5671 13.0282L58.6632 9.65482C58.7301 9.44881 58.6568 9.22312 58.4816 9.0958L55.612 7.01095C55.2202 6.72625 55.4216 6.10644 55.9059 6.10644H59.4529C59.6695 6.10644 59.8615 5.96696 59.9284 5.76095L61.0245 2.3876Z" fill="#FF9747"/>
<path d="M79.0245 2.3876C79.1741 1.92694 79.8259 1.92694 79.9755 2.3876L81.0716 5.76095C81.1385 5.96696 81.3305 6.10644 81.5471 6.10644H85.0941C85.5784 6.10644 85.7798 6.72625 85.388 7.01095L82.5184 9.0958C82.3432 9.22312 82.2699 9.44881 82.3368 9.65482L83.4329 13.0282C83.5825 13.4888 83.0553 13.8719 82.6634 13.5872L79.7939 11.5023C79.6186 11.375 79.3814 11.375 79.2061 11.5023L76.3366 13.5872C75.9447 13.8719 75.4175 13.4888 75.5671 13.0282L76.6632 9.65482C76.7301 9.44881 76.6568 9.22312 76.4816 9.0958L73.612 7.01095C73.2202 6.72625 73.4216 6.10644 73.9059 6.10644H77.4529C77.6695 6.10644 77.8615 5.96696 77.9284 5.76095L79.0245 2.3876Z" fill="#FF9747"/>
</svg>
