<svg width="35" height="33" viewBox="0 0 35 33" fill="none" xmlns="http://www.w3.org/2000/svg">
<path fill-rule="evenodd" clip-rule="evenodd" d="M4.375 20.4438V13.5688C4.375 13.4031 4.30915 13.2441 4.19194 13.1269C4.07473 13.0097 3.91576 12.9438 3.75 12.9438C3.26561 12.9228 2.78195 12.9999 2.32816 13.1707C1.87437 13.3414 1.45982 13.6022 1.10947 13.9374C0.759122 14.2726 0.480217 14.6752 0.289547 15.1209C0.0988766 15.5667 0.000384726 16.0465 0 16.5313V17.4813C0 18.4328 0.377968 19.3453 1.05075 20.0181C1.72354 20.6909 2.63604 21.0688 3.5875 21.0688C3.68191 21.0943 3.78098 21.0973 3.87675 21.0775C3.97252 21.0578 4.06231 21.0158 4.13891 20.955C4.21551 20.8942 4.27677 20.8163 4.31777 20.7275C4.35878 20.6387 4.37838 20.5416 4.375 20.4438ZM31.1294 12.9509C31.2222 12.9282 31.3187 12.9258 31.4125 12.9438C32.364 12.9438 33.2765 13.3218 33.9492 13.9946C34.622 14.6674 35 15.5799 35 16.5313V17.4813C34.9996 17.9662 34.9011 18.446 34.7105 18.8918C34.5198 19.3375 34.2409 19.7401 33.8905 20.0753C33.5402 20.4105 33.1256 20.6713 32.6718 20.842C32.218 21.0128 31.7344 21.0899 31.25 21.0688C31.0842 21.0688 30.9253 21.003 30.8081 20.8858C30.6908 20.7686 30.625 20.6096 30.625 20.4438V13.5688C30.6287 13.4734 30.6529 13.3799 30.6961 13.2948C30.7393 13.2096 30.8004 13.1348 30.8752 13.0754C30.95 13.0161 31.0367 12.9736 31.1294 12.9509ZM8.07403 4.37641C10.0939 2.03867 12.9002 0.521836 15.9625 0.112599C23.2375 -0.912401 30.1437 5.20635 30 12.5313V20.4438C30 20.6096 29.9342 20.7686 29.8169 20.8858C29.6997 21.003 29.5408 21.0688 29.375 21.0688C29.2092 21.0688 29.0503 21.003 28.9331 20.8858C28.8158 20.7686 28.75 20.6096 28.75 20.4438V12.5313C28.8813 5.93135 22.6625 0.437599 16.1125 1.3626C13.3546 1.73368 10.8281 3.10233 9.01085 5.20982C7.19357 7.31731 6.21139 10.0176 6.25 12.8001V22.3063C6.25792 23.3867 6.48123 24.4547 6.90686 25.4477C7.3325 26.4407 7.95191 27.3389 8.72886 28.0897C9.5058 28.8404 10.4247 29.4287 11.4317 29.82C12.4388 30.2114 13.5137 30.398 14.5938 30.3688C14.7192 30.0461 14.9389 29.7685 15.2243 29.5724C15.5097 29.3762 15.8475 29.2704 16.1938 29.2688H16.9562C17.4137 29.2688 17.8525 29.4506 18.176 29.7741C18.4995 30.0976 18.6812 30.5364 18.6812 30.9938C18.6812 31.4513 18.4995 31.8901 18.176 32.2136C17.8525 32.5371 17.4137 32.7188 16.9562 32.7188H16.1938C15.8471 32.719 15.5085 32.6139 15.2228 32.4175C14.9371 32.2211 14.7178 31.9426 14.5938 31.6188C12.3211 31.6736 10.1059 30.9007 8.36056 29.444C6.61525 27.9873 5.45872 25.946 5.10625 23.7001C4.96372 23.2552 4.98535 18.6585 4.99994 15.5575C5.00647 14.1713 5.01159 13.0839 5 12.8001C4.96055 9.71084 6.05412 6.71415 8.07403 4.37641Z" fill="#4384F4"/>
<path fill-rule="evenodd" clip-rule="evenodd" d="M17.45 24.1876H9.425C9.30139 24.1871 9.18071 24.1499 9.07822 24.0808C8.97573 24.0117 8.89604 23.9138 8.84921 23.7994C8.80238 23.685 8.79052 23.5593 8.81514 23.4381C8.83975 23.317 8.89974 23.2059 8.9875 23.1188L11.25 20.8876C7.8875 16.0438 11.5562 9.1126 17.5 9.19385C27.4 9.60635 27.4 23.7813 17.45 24.1938V24.1876ZM14.4476 16.1414C14.5941 15.9949 14.7928 15.9126 15 15.9126C15.2072 15.9126 15.4059 15.9949 15.5524 16.1414C15.6989 16.2879 15.7812 16.4866 15.7812 16.6938C15.7812 16.901 15.6989 17.0998 15.5524 17.2463C15.4059 17.3928 15.2072 17.4751 15 17.4751C14.7928 17.4751 14.5941 17.3928 14.4476 17.2463C14.3011 17.0998 14.2188 16.901 14.2188 16.6938C14.2188 16.4866 14.3011 16.2879 14.4476 16.1414ZM18.0524 16.1414C18.1989 16.2879 18.2812 16.4866 18.2812 16.6938C18.2812 16.901 18.1989 17.0998 18.0524 17.2463C17.9059 17.3928 17.7072 17.4751 17.5 17.4751C17.2928 17.4751 17.0941 17.3928 16.9476 17.2463C16.8011 17.0998 16.7188 16.901 16.7188 16.6938C16.7188 16.4866 16.8011 16.2879 16.9476 16.1414C17.0941 15.9949 17.2928 15.9126 17.5 15.9126C17.7072 15.9126 17.9059 15.9949 18.0524 16.1414ZM19.4476 16.1414C19.5941 15.9949 19.7928 15.9126 20 15.9126C20.2072 15.9126 20.4059 15.9949 20.5524 16.1414C20.6989 16.2879 20.7812 16.4866 20.7812 16.6938C20.7812 16.901 20.6989 17.0998 20.5524 17.2463C20.4059 17.3928 20.2072 17.4751 20 17.4751C19.7928 17.4751 19.5941 17.3928 19.4476 17.2463C19.3011 17.0998 19.2188 16.901 19.2188 16.6938C19.2188 16.4866 19.3011 16.2879 19.4476 16.1414Z" fill="#8FB7FC"/>
</svg>
