<svg width="16" height="11" viewBox="0 0 16 11" fill="none" xmlns="http://www.w3.org/2000/svg">
<path d="M12.2292 4.14453C13.0496 4.20312 13.7332 4.53516 14.28 5.14062C14.8464 5.72656 15.1296 6.42969 15.1296 7.25C15.1296 8.10938 14.8171 8.85156 14.1921 9.47656C13.5867 10.082 12.8542 10.3848 11.9949 10.3848H3.87964C2.84448 10.3848 1.95581 10.0234 1.21362 9.30078C0.490967 8.55859 0.129639 7.66992 0.129639 6.63477C0.129639 5.6582 0.451904 4.81836 1.09644 4.11523C1.74097 3.41211 2.53198 3.01172 3.46948 2.91406C3.86011 2.13281 4.42651 1.51758 5.1687 1.06836C5.91089 0.599609 6.7312 0.365234 7.62964 0.365234C8.76245 0.365234 9.75854 0.726562 10.6179 1.44922C11.4773 2.17188 12.0144 3.07031 12.2292 4.14453ZM8.8894 5.99023H10.7644L7.62964 2.88477L4.49487 5.99023H6.36987V8.50977H8.8894V5.99023Z" fill="#EA5B2C"/>
</svg>
