<svg width="10" height="14" viewBox="0 0 10 14" fill="none" xmlns="http://www.w3.org/2000/svg">
<path d="M8.70833 3.95833C8.70833 2.86504 8.265 1.87546 7.54933 1.15979C6.83288 0.443333 5.84329 0 4.75 0C3.65671 0 2.66712 0.443333 1.95067 1.15979C1.235 1.87546 0.791667 2.86504 0.791667 3.95833C0.791667 5.05162 1.235 6.04121 1.95067 6.75687C2.66712 7.47333 3.65671 7.91667 4.75 7.91667C5.84329 7.91667 6.83288 7.47333 7.54933 6.75687C7.91734 6.38975 8.20918 5.95352 8.40808 5.47325C8.60698 4.99299 8.70902 4.47815 8.70833 3.95833ZM0 11.875C0 12.6667 1.78125 13.4583 4.75 13.4583C7.53508 13.4583 9.5 12.6667 9.5 11.875C9.5 10.2917 7.63642 8.70833 4.75 8.70833C1.78125 8.70833 0 10.2917 0 11.875Z" fill="#8FB7FC"/>
</svg>
