<svg width="25" height="24" viewBox="0 0 25 24" fill="none" xmlns="http://www.w3.org/2000/svg">
<path d="M12.5 14C7.49 14 3.41 17.36 3.41 21.5C3.41 21.78 3.63 22 3.91 22H21.09C21.37 22 21.59 21.78 21.59 21.5C21.59 17.36 17.51 14 12.5 14Z" fill="#EA5B2C"/>
<path d="M17.22 10.35L16.26 9.39C16.76 8.64 17.05 7.74 17.05 6.77C17.05 4.13 14.91 2 12.28 2C9.65 2 7.5 4.14 7.5 6.77C7.5 9.4 9.64 11.54 12.27 11.54C13.24 11.54 14.14 11.25 14.89 10.75L15.85 11.71C16.04 11.9 16.29 11.99 16.53 11.99C16.78 11.99 17.03 11.9 17.21 11.71C17.59 11.34 17.59 10.73 17.22 10.35Z" fill="#EA5B2C"/>
</svg>
