<svg width="17" height="18" viewBox="0 0 17 18" fill="none" xmlns="http://www.w3.org/2000/svg">
<path d="M7.36145 1.16253C7.94229 0.665875 8.89351 0.665875 9.48276 1.16253L10.8128 2.30736C11.0653 2.52623 11.5367 2.70301 11.8734 2.70301H13.3045C14.1968 2.70301 14.9291 3.43536 14.9291 4.32766V5.7587C14.9291 6.087 15.1059 6.56682 15.3248 6.81936L16.4696 8.14938C16.9663 8.73022 16.9663 9.68144 16.4696 10.2707L15.3248 11.6007C15.1059 11.8533 14.9291 12.3247 14.9291 12.6614V14.0924C14.9291 14.9847 14.1968 15.7171 13.3045 15.7171H11.8734C11.5451 15.7171 11.0653 15.8938 10.8128 16.1127L9.48276 17.2575C8.90193 17.7542 7.9507 17.7542 7.36145 17.2575L6.03142 16.1127C5.77889 15.8938 5.30748 15.7171 4.97077 15.7171H3.51447C2.62217 15.7171 1.88982 14.9847 1.88982 14.0924V12.653C1.88982 12.3247 1.71304 11.8533 1.50259 11.6007L0.366179 10.2623C-0.122059 9.68144 -0.122059 8.73864 0.366179 8.1578L1.50259 6.81936C1.71304 6.56682 1.88982 6.09542 1.88982 5.76712V4.31924C1.88982 3.42694 2.62217 2.69459 3.51447 2.69459H4.97077C5.29907 2.69459 5.77889 2.51781 6.03142 2.29895L7.36145 1.16253Z" fill="#EA5B2C"/>
<path d="M5.36621 9.20193L7.39492 11.2391L11.4608 7.16479" stroke="white" stroke-width="1.38231" stroke-linecap="round" stroke-linejoin="round"/>
</svg>
