<svg width="20" height="18" viewBox="0 0 20 18" fill="none" xmlns="http://www.w3.org/2000/svg">
<path d="M19.9175 4.69338C19.8308 6.47096 18.5059 8.90504 15.9434 11.9943C13.294 15.2214 11.0525 16.8348 9.21878 16.8348C8.08329 16.8348 7.12163 15.8524 6.3367 13.8869C5.81212 12.0853 5.28813 10.2838 4.76374 8.48219C4.1805 6.5178 3.55518 5.53433 2.88659 5.53433C2.74083 5.53433 2.23067 5.82175 1.35728 6.39441L0.44043 5.28755C1.4021 4.49563 2.3509 3.7039 3.28431 2.91107C4.56693 1.87237 5.52976 1.32614 6.17146 1.27091C7.6881 1.1344 8.62151 2.10585 8.97188 4.18543C9.35051 6.42904 9.61241 7.8246 9.75973 8.37083C10.1968 10.2323 10.6777 11.1618 11.2033 11.1618C11.6112 11.1618 12.2238 10.5581 13.0407 9.35084C13.8568 8.14319 14.2939 7.22442 14.3529 6.59326C14.4691 5.5511 14.0318 5.02874 13.0407 5.02874C12.5742 5.02874 12.0933 5.12935 11.5985 5.32819C12.5561 2.38853 14.3859 0.960891 17.0867 1.04236C19.089 1.0974 20.0329 2.31435 19.9175 4.69338Z" fill="black"/>
</svg>
