<svg width="18" height="18" viewBox="0 0 18 18" fill="none" xmlns="http://www.w3.org/2000/svg">
<path d="M15.7734 6.23887C16.1208 7.09008 16.3125 8.02192 16.3125 9H17.4375C17.4375 7.87372 17.2165 6.79764 16.815 5.81381L15.7734 6.23887ZM16.3125 9C16.3125 9.51952 16.2584 10.0259 16.1558 10.5138L17.2566 10.7455C17.3752 10.1818 17.4375 9.5979 17.4375 9H16.3125ZM16.1558 10.5138C15.5617 13.337 13.3371 15.5617 10.5138 16.1558L10.7455 17.2566C14.0051 16.5707 16.5707 14.0051 17.2566 10.7455L16.1558 10.5138ZM10.5138 16.1558C10.0259 16.2584 9.51952 16.3125 9 16.3125V17.4375C9.5979 17.4375 10.1818 17.3752 10.7455 17.2566L10.5138 16.1558ZM9 16.3125C8.4804 16.3125 7.97415 16.2584 7.48617 16.1558L7.25452 17.2566C7.81815 17.3752 8.4021 17.4375 9 17.4375V16.3125ZM1.6875 9C1.6875 8.02117 1.87951 7.08862 2.2274 6.23688L1.18591 5.8115C0.783825 6.79595 0.5625 7.87283 0.5625 9H1.6875ZM7.48617 16.1558C4.66293 15.5617 2.43834 13.337 1.84427 10.5138L0.74338 10.7455C1.42928 14.0051 3.99485 16.5707 7.25452 17.2566L7.48617 16.1558ZM1.84427 10.5138C1.7416 10.0259 1.6875 9.51952 1.6875 9H0.5625C0.5625 9.5979 0.624773 10.1818 0.74338 10.7455L1.84427 10.5138ZM2.2274 6.23688C3.1328 4.02012 5.09536 2.34735 7.48616 1.84427L7.25452 0.74338C4.49274 1.32451 2.23027 3.25456 1.18591 5.8115L2.2274 6.23688ZM7.48616 1.84427C7.97415 1.7416 8.4804 1.6875 9 1.6875V0.5625C8.4021 0.5625 7.81815 0.624773 7.25452 0.74338L7.48616 1.84427ZM9 1.6875C9.51952 1.6875 10.0259 1.7416 10.5138 1.84427L10.7455 0.74338C10.1818 0.624773 9.5979 0.5625 9 0.5625V1.6875ZM10.5138 1.84427C12.9053 2.3475 14.8684 4.02112 15.7734 6.23887L16.815 5.81381C15.7711 3.25572 13.5081 1.32469 10.7455 0.74338L10.5138 1.84427ZM10.0938 1.46482C10.3111 2.14605 11.1161 4.76716 11.4461 7.17615L12.5607 7.02346C12.2168 4.51248 11.386 1.81376 11.1656 1.12284L10.0938 1.46482ZM11.4461 7.17615C11.5346 7.8219 11.5875 8.4426 11.5875 9H12.7125C12.7125 8.37607 12.6536 7.70175 12.5607 7.02346L11.4461 7.17615ZM16.0666 5.51431C15.2019 5.77659 13.5775 6.2373 11.9014 6.54665L12.1055 7.653C13.841 7.33268 15.5107 6.85855 16.3932 6.59089L16.0666 5.51431ZM11.9014 6.54665C10.8847 6.73428 9.86843 6.8625 9 6.8625V7.9875C9.96555 7.9875 11.0573 7.84643 12.1055 7.653L11.9014 6.54665ZM11.5875 9C11.5875 9.82568 11.4715 10.7856 11.2985 11.7533L12.406 11.9513C12.5848 10.9514 12.7125 9.9189 12.7125 9H11.5875ZM11.2985 11.7533C10.9193 13.8744 10.2823 15.9445 10.0938 16.5352L11.1656 16.8772C11.3587 16.2717 12.0136 14.146 12.406 11.9513L11.2985 11.7533ZM16.5352 10.0938C15.9445 10.2823 13.8744 10.9193 11.7533 11.2985L11.9513 12.406C14.146 12.0136 16.2717 11.3587 16.8772 11.1656L16.5352 10.0938ZM11.7533 11.2985C10.7856 11.4715 9.82568 11.5875 9 11.5875V12.7125C9.9189 12.7125 10.9514 12.5848 11.9513 12.406L11.7533 11.2985ZM9 11.5875C8.17432 11.5875 7.21442 11.4715 6.24673 11.2985L6.04872 12.406C7.04855 12.5848 8.0811 12.7125 9 12.7125V11.5875ZM6.24673 11.2985C4.12557 10.9193 2.0555 10.2823 1.46482 10.0938L1.12284 11.1656C1.72828 11.3587 3.85405 12.0136 6.04872 12.406L6.24673 11.2985ZM5.2875 9C5.2875 9.9189 5.41524 10.9514 5.594 11.9513L6.70144 11.7533C6.52842 10.7856 6.4125 9.82568 6.4125 9H5.2875ZM5.594 11.9513C5.98641 14.146 6.64128 16.2717 6.83446 16.8772L7.9062 16.5352C7.71773 15.9445 7.0807 13.8744 6.70144 11.7533L5.594 11.9513ZM6.83446 1.12284C6.614 1.81376 5.78325 4.51248 5.43926 7.02346L6.55384 7.17615C6.88387 4.76716 7.68885 2.14605 7.9062 1.46482L6.83446 1.12284ZM5.43926 7.02346C5.34634 7.70175 5.2875 8.37607 5.2875 9H6.4125C6.4125 8.4426 6.46539 7.8219 6.55384 7.17615L5.43926 7.02346ZM9 6.8625C8.13158 6.8625 7.11532 6.73428 6.09864 6.54665L5.89447 7.653C6.94273 7.84643 8.03445 7.9875 9 7.9875V6.8625ZM6.09864 6.54665C4.4219 6.23719 2.79691 5.77626 1.93243 5.51404L1.60587 6.5906C2.48812 6.85821 4.15843 7.33256 5.89447 7.653L6.09864 6.54665ZM16.035 5.52713C16.0439 5.52248 16.0549 5.51789 16.0666 5.51431L16.3932 6.59089C16.4497 6.57374 16.5029 6.55177 16.5534 6.52555L16.035 5.52713ZM1.41319 6.50407C1.47242 6.54028 1.53666 6.56961 1.60587 6.5906L1.93243 5.51404C1.95737 5.52161 1.98036 5.53222 2.00012 5.54431L1.41319 6.50407Z" fill="#252525"/>
</svg>
