<svg width="24" height="17" viewBox="0 0 24 17" fill="none" xmlns="http://www.w3.org/2000/svg">
<path d="M23.1423 3.30016C22.881 2.32708 22.108 1.55943 21.1245 1.29634C19.3462 0.824219 12.2113 0.824219 12.2113 0.824219C12.2113 0.824219 5.08005 0.824219 3.29815 1.29634C2.31828 1.55583 1.54528 2.32348 1.28035 3.30016C0.804932 5.06611 0.804932 8.75299 0.804932 8.75299C0.804932 8.75299 0.804932 12.4399 1.28035 14.2058C1.54165 15.1789 2.31465 15.9465 3.29815 16.2096C5.08005 16.6818 12.2113 16.6818 12.2113 16.6818C12.2113 16.6818 19.3462 16.6818 21.1245 16.2096C22.1043 15.9501 22.8773 15.1825 23.1423 14.2058C23.6177 12.4399 23.6177 8.75299 23.6177 8.75299C23.6177 8.75299 23.6177 5.06611 23.1423 3.30016Z" fill="black"/>
<path d="M9.93221 12.1515L15.8586 8.75299L9.93221 5.35443V12.1515Z" fill="white"/>
</svg>
